<svg width="747" height="482" viewBox="0 0 747 482" fill="none" xmlns="http://www.w3.org/2000/svg">
<g clip-path="url(#clip0_1_389)">
<path d="M740.588 432.986C734.188 451.496 717.528 467.656 693.318 481.426H44.488C23.248 468.1 9.19998 452.516 4.69998 434.656C-8.46002 382.506 2.31998 274.806 85.24 231.346C215.51 163.076 164.56 14.586 377.01 0.685989C589.46 -13.214 544.37 188.336 644.36 258.336C726.358 315.746 760.548 375.316 740.588 432.986Z" fill="#262626"/>
<path d="M428.178 481.426H274.258L274.408 479.786L328.858 476.056L359.638 473.936L426.328 469.366L428.178 481.426Z" fill="#DEE8F5"/>
<path opacity="0.07" d="M428.178 481.426H274.258L274.408 479.786L328.858 476.056L359.638 473.936L426.328 469.366L428.178 481.426Z" fill="#0F1011"/>
<path d="M447.888 481.426H268.978C269.198 480.216 269.428 479.016 269.658 477.816L270.278 477.996L272.068 465.726L329.158 462.206L359.478 460.336L447.118 454.926L447.888 481.426Z" fill="#262626"/>
<path d="M376.146 177.92C376.123 177.506 376.123 177.092 376.123 176.677C376.123 172.49 376.285 167.934 376.698 162.964L371.5 162L339.955 156.156C340.577 164.326 340.446 172.537 339.564 180.683C339.472 181.603 339.357 182.547 339.218 183.49C339.212 183.576 339.197 183.661 339.173 183.743C338.989 184.986 338.782 186.228 338.552 187.471C338.414 188.276 338.253 189.081 338.068 189.886C337.884 190.922 337.632 191.934 337.355 192.946C337.078 193.958 336.803 194.946 336.481 195.938C336.181 196.927 335.859 197.894 335.491 198.838C334.819 200.701 334.004 202.509 333.052 204.245V204.268C331.31 207.674 328.863 210.67 325.873 213.057H383.673C380.057 206.819 376.331 196.028 376.146 177.92Z" fill="#E98862"/>
<path opacity="0.15" d="M333.012 204.3L363.55 180.938L339.565 180.689C338.65 188.761 336.762 197.425 333.012 204.3Z" fill="black"/>
<path d="M397.563 144.181C395.018 158.881 386.997 172.799 374.031 177.547C358.639 183.183 347.239 183.565 329.492 183.565C305.275 183.565 306.076 158.309 305.392 132.858C304.709 107.305 306.741 79.896 316.312 70.992C335.417 53.219 391.488 64.474 398.312 94.201C401.84 109.576 399.985 130.19 397.563 144.181Z" fill="#E98862"/>
<path d="M292.416 85.764C292.416 85.764 282.498 83.549 285.216 73.664C287.016 67.105 295.416 68.564 295.416 68.564C295.416 68.564 287.459 67.108 287.459 60.164C287.459 55.786 290.822 48.374 300.968 52.611C312.868 57.584 326.448 56.945 336.768 55.211C342.789 54.199 348.661 52.788 354.501 52.711L354.532 52.704V52.711C361.39 52.5916 368.226 53.5062 374.811 55.424C393.264 60.944 421.191 77.49 415.255 115C408.628 156.863 388.984 172.872 380.341 178.008C379.83 178.316 379.255 178.504 378.661 178.557C378.066 178.61 377.468 178.528 376.91 178.316C376.352 178.104 375.849 177.768 375.44 177.334C375.031 176.899 374.726 176.378 374.548 175.808C372.097 167.962 367.869 148.221 369.055 107.514C312.334 104.732 296.015 103.888 296.015 103.888C296.015 103.888 282.66 104.388 282.66 94.634C282.66 84.88 292.416 85.764 292.416 85.764Z" fill="#0F1011"/>
<path d="M339.999 132.858C341.84 132.858 343.332 131.366 343.332 129.525C343.332 127.684 341.84 126.192 339.999 126.192C338.158 126.192 336.666 127.684 336.666 129.525C336.666 131.366 338.158 132.858 339.999 132.858Z" fill="#0F1011"/>
<path d="M313.697 130.701C315.538 130.701 317.03 129.209 317.03 127.368C317.03 125.527 315.538 124.035 313.697 124.035C311.856 124.035 310.364 125.527 310.364 127.368C310.364 129.209 311.856 130.701 313.697 130.701Z" fill="#0F1011"/>
<path d="M307.919 120.263H307.94L316.772 120.153C317.187 120.15 317.585 119.983 317.876 119.687C318.168 119.392 318.331 118.992 318.328 118.577C318.325 118.162 318.158 117.764 317.862 117.473C317.567 117.181 317.167 117.018 316.752 117.021H316.732L307.899 117.131C307.693 117.132 307.49 117.174 307.301 117.254C307.111 117.334 306.939 117.45 306.795 117.597C306.503 117.892 306.34 118.292 306.343 118.707C306.346 119.122 306.513 119.52 306.809 119.811C307.104 120.103 307.504 120.266 307.919 120.263Z" fill="#0F1011"/>
<path d="M347.2 123.483C347.584 123.483 347.954 123.342 348.24 123.087C348.527 122.832 348.71 122.481 348.755 122.1C348.8 121.719 348.703 121.335 348.484 121.021C348.264 120.706 347.937 120.483 347.564 120.394L338.857 118.294C338.454 118.2 338.03 118.269 337.678 118.486C337.326 118.704 337.074 119.051 336.977 119.453C336.881 119.856 336.947 120.28 337.162 120.634C337.377 120.987 337.722 121.241 338.124 121.341L346.831 123.441C346.952 123.469 347.076 123.483 347.2 123.483Z" fill="#0F1011"/>
<path d="M357.342 137.683C357.036 141.419 358.226 145.123 360.651 147.982C363.076 150.84 366.537 152.618 370.273 152.924C374.009 153.23 377.713 152.04 380.572 149.615C383.43 147.19 385.208 143.729 385.514 139.993C386.152 132.213 380.385 125.006 372.583 124.751C362.51 124.423 357.98 129.9 357.342 137.683Z" fill="#E98862"/>
<g opacity="0.15">
<path d="M325.2 148.016C325.476 148.017 325.743 147.918 325.952 147.738C326.161 147.559 326.299 147.31 326.34 147.037C326.381 146.764 326.322 146.486 326.175 146.252C326.028 146.019 325.802 145.846 325.538 145.766L318.757 143.684L323.5 133.123C323.625 132.845 323.635 132.528 323.526 132.242C323.418 131.957 323.2 131.726 322.922 131.601C322.643 131.476 322.327 131.466 322.041 131.575C321.756 131.683 321.525 131.901 321.4 132.179L316.123 143.929C316.056 144.078 316.021 144.239 316.021 144.403C316.022 144.566 316.057 144.727 316.124 144.876C316.191 145.025 316.29 145.157 316.412 145.265C316.535 145.373 316.679 145.453 316.835 145.501L324.861 147.966C324.971 148 325.085 148.017 325.2 148.016Z" fill="black"/>
</g>
<path d="M338.456 155.781C338.456 155.781 326.15 157.081 317.524 154.065C317.524 154.065 317.592 162.165 327.331 162.965C337.07 163.765 338.456 155.781 338.456 155.781Z" fill="#F8FCFF"/>
<path d="M444.288 416.346C448.418 439.366 454.278 462.636 458.098 481.426H254.768C257.558 461.286 262.508 435.916 265.338 407.226C266.877 392.146 267.582 376.993 267.448 361.836C267.258 344.736 264.708 325.986 262.548 307.636C256.628 257.466 253.618 210.256 309.508 207.846C309.658 207.836 309.818 207.836 309.988 207.826H310L310.73 207.796C312.04 207.756 313.76 207.726 315.83 207.696C315.873 207.691 315.917 207.691 315.96 207.696C316.07 207.686 316.17 207.686 316.28 207.686C316.42 210.656 320.84 212.926 327.56 214.496C327.6 214.506 327.65 214.516 327.7 214.526C341.97 217.826 366.41 217.986 382.11 214.976C382.26 214.956 382.4 214.926 382.55 214.896C387.5 213.916 391.55 212.616 394.07 210.996C394.507 210.719 394.922 210.408 395.31 210.066C396.145 209.393 396.71 208.441 396.9 207.386C397.57 207.386 398.23 207.396 398.89 207.406C400.76 207.446 402.6 207.526 404.4 207.666C423.12 209.026 438.4 215.406 447.7 224.706C472.61 249.616 459.38 286.596 448.68 322.976C445.07 335.196 441.76 347.346 440.28 358.956V358.966C440 361.126 439.79 363.266 439.65 365.386C439.53 367.276 439.46 369.156 439.46 371.016C439.458 385 441.468 400.616 444.288 416.346Z" fill="#367CFF"/>
<path d="M315.851 206.053C316.451 218.708 323.329 237.322 344.566 238.725C372.866 240.589 394.816 218.662 396.473 205.754H388.4C378.191 205.754 332.316 205.876 323.365 205.961C320.544 205.989 318.018 206.019 315.851 206.053Z" fill="#E98862"/>
<path d="M455.818 417.586C457.818 437.336 459.958 458.936 462.178 481.426H359.758C359.708 478.916 359.678 476.416 359.638 473.936C359.578 469.356 359.525 464.823 359.478 460.336C359.288 441.806 359.278 424.026 359.538 407.256C359.608 402.389 359.701 397.609 359.818 392.916C359.878 390.756 359.938 388.616 359.998 386.496C359.998 386.396 359.998 386.286 360.008 386.186C360.318 375.976 360.755 366.243 361.318 356.986C361.651 351.746 362.025 346.679 362.438 341.786C362.638 339.386 362.855 337.033 363.088 334.726C366.188 303.306 374.728 255.886 379.998 228.156C380.978 222.966 381.848 218.466 382.548 214.896C382.678 214.256 382.798 213.636 382.908 213.056C382.978 212.706 383.048 212.376 383.108 212.056V212.046C383.868 208.196 384.318 205.946 384.358 205.766V205.756C384.358 205.756 388.248 205.486 394.218 205.526C395.668 205.526 397.248 205.556 398.928 205.616C400.578 205.666 402.318 205.746 404.138 205.856C414.358 206.506 426.798 208.236 437.038 212.486C460.758 222.336 469.498 277.616 478.478 314.526C478.498 314.596 478.508 314.666 478.528 314.736L454.078 400.366C454.638 405.916 455.218 411.656 455.818 417.586Z" fill="white"/>
<path d="M384.379 205.607C384.379 205.607 359.9 299.82 359.9 396.756L402.241 261.256L388.621 244.149L407.715 230.649L404.126 205.819C397.924 204.557 384.379 205.607 384.379 205.607Z" fill="#F3F5FD"/>
<path d="M331.328 336.126C331.328 338.946 331.308 342.426 331.278 346.496C331.208 353.016 331.098 361.056 330.948 370.346C330.848 377.106 330.718 384.516 330.568 392.506V392.516C330.538 394.106 330.508 395.716 330.478 397.356C330.448 398.896 330.418 400.466 330.388 402.046C330.048 420.036 329.628 440.426 329.158 462.206C329.058 466.766 328.958 471.383 328.858 476.056C328.818 477.836 328.778 479.626 328.738 481.426H243.6C246.77 453.186 249.76 429.176 252.41 409.176C257.57 370.146 261.42 346.376 262.67 336.126L233.09 320.096L232.26 319.646C232.26 319.646 258.33 224.366 280.15 212.486C289.67 207.306 302.71 206.566 310.49 206.216H310.52C310.6 206.216 310.69 206.206 310.77 206.206C320.26 205.776 327.05 205.756 327.05 205.756C327.05 205.756 327.05 205.816 327.06 205.936C327.1 206.526 327.22 208.536 327.41 211.736V211.746C327.43 212.156 327.46 212.596 327.49 213.056C327.52 213.516 327.54 213.996 327.56 214.496C327.83 219.126 328.16 225.436 328.54 233.006V233.016C328.79 238.226 329.05 244.036 329.32 250.306C329.46 253.726 329.61 257.296 329.74 260.976C329.75 260.986 329.75 260.986 329.74 260.996C330.12 270.846 330.47 281.516 330.75 292.596V292.606C330.81 295.116 330.87 297.646 330.93 300.196C331.178 312 331.328 324.136 331.328 336.126Z" fill="white"/>
<path d="M327.064 205.607C327.064 205.607 335.164 310.774 330.687 393.113L304.958 261.256L317.3 245.95L301.823 234.25L310.536 206.071L327.064 205.607Z" fill="#F3F5FD"/>
<path d="M341.978 401.85C341.978 401.85 292.152 406.395 273.129 377.841C272.645 377.113 272.392 376.257 272.402 375.383C272.413 374.509 272.687 373.658 273.189 372.943C273.69 372.227 274.396 371.679 275.214 371.371C276.032 371.063 276.924 371.009 277.773 371.216C295.215 375.486 331.468 382.873 330.838 370.316L358.463 378.827L341.978 401.85Z" fill="#E98862"/>
<path d="M476.437 419.646C480.315 419.645 484.139 418.746 487.61 417.018C491.082 415.29 494.105 412.781 496.444 409.688C498.782 406.595 500.371 403.002 501.087 399.191C501.802 395.38 501.625 391.455 500.568 387.724L476.712 307.052L431.464 327.852L442.174 365.659L340.574 354.759L335.224 404.641L473.758 419.5C474.648 419.597 475.542 419.646 476.437 419.646Z" fill="white"/>
<path d="M235.467 411.456C236.724 411.456 237.98 411.361 239.223 411.173L395.228 387.56L387.721 337.96L273.632 355.224L287.716 316.884L238.463 298.793L211.922 377.723C210.53 381.514 210.074 385.585 210.592 389.59C211.111 393.596 212.588 397.416 214.9 400.728C217.211 404.04 220.288 406.744 223.869 408.612C227.45 410.48 231.428 411.455 235.467 411.456Z" fill="white"/>
<path d="M388.821 344.242C388.821 344.242 415.183 342.377 425.386 363.716L390.638 360.565L388.821 344.242Z" fill="#E98862"/>
<path d="M397.527 263.968L398.94 205.273L394.227 205.2L392.595 263.728L397.527 263.968Z" fill="#0CBC8B"/>
<path d="M309.725 243.43L310.773 206.203L315.851 206.053L315.306 243.488C321.145 244.219 326.516 247.055 330.413 251.464C334.31 255.873 336.466 261.552 336.475 267.436V296.33H330.9V267.436C330.918 264.985 330.451 262.555 329.525 260.285C328.6 258.016 327.234 255.952 325.508 254.212C323.781 252.473 321.727 251.092 319.464 250.15C317.201 249.208 314.775 248.723 312.324 248.723C309.873 248.723 307.446 249.208 305.183 250.15C302.92 251.092 300.866 252.473 299.14 254.212C297.413 255.952 296.047 258.016 295.122 260.285C294.196 262.555 293.729 264.985 293.747 267.436V296.33H288.173V267.436C288.181 261.483 290.384 255.743 294.361 251.314C298.337 246.884 303.808 244.077 309.725 243.43Z" fill="#0CBC8B"/>
<path d="M395.228 278.935C401.195 278.935 406.032 274.098 406.032 268.131C406.032 262.164 401.195 257.327 395.228 257.327C389.261 257.327 384.424 262.164 384.424 268.131C384.424 274.098 389.261 278.935 395.228 278.935Z" fill="#0CBC8B"/>
<path d="M333.744 301.114C336.386 301.114 338.528 298.972 338.528 296.33C338.528 293.688 336.386 291.546 333.744 291.546C331.102 291.546 328.96 293.688 328.96 296.33C328.96 298.972 331.102 301.114 333.744 301.114Z" fill="#0CBC8B"/>
<path d="M291.12 301.114C293.762 301.114 295.904 298.972 295.904 296.33C295.904 293.688 293.762 291.546 291.12 291.546C288.478 291.546 286.336 293.688 286.336 296.33C286.336 298.972 288.478 301.114 291.12 301.114Z" fill="#0CBC8B"/>
<path d="M136.818 233.365C170.473 233.365 197.755 206.083 197.755 172.428C197.755 138.773 170.473 111.491 136.818 111.491C103.163 111.491 75.881 138.773 75.881 172.428C75.881 206.083 103.163 233.365 136.818 233.365Z" fill="#F3F5FD"/>
<path d="M641.99 432.985C675.645 432.985 702.927 405.703 702.927 372.048C702.927 338.393 675.645 311.111 641.99 311.111C608.335 311.111 581.053 338.393 581.053 372.048C581.053 405.703 608.335 432.985 641.99 432.985Z" fill="#F3F5FD"/>
<path d="M589.741 203.917C623.396 203.917 650.678 176.635 650.678 142.98C650.678 109.325 623.396 82.043 589.741 82.043C556.086 82.043 528.804 109.325 528.804 142.98C528.804 176.635 556.086 203.917 589.741 203.917Z" fill="#F3F5FD"/>
<path d="M75.881 418.924C104.606 418.924 127.893 395.637 127.893 366.912C127.893 338.187 104.606 314.9 75.881 314.9C47.1556 314.9 23.869 338.187 23.869 366.912C23.869 395.637 47.1556 418.924 75.881 418.924Z" fill="#F3F5FD"/>
<path d="M144.013 142.98H129.624V201.875H144.013V142.98Z" fill="#FD5D76"/>
<path d="M166.266 179.623V165.234H107.371V179.623H166.266Z" fill="#FD5D76"/>
<path d="M81.471 335.288V341.228H48.019V335.288C48.0193 334.558 48.3094 333.858 48.8257 333.342C49.3419 332.825 50.042 332.535 50.772 332.535H78.717C79.4473 332.535 80.1476 332.825 80.6641 333.341C81.1805 333.858 81.4708 334.558 81.471 335.288Z" fill="#262626"/>
<path d="M81.471 341.228V398.157C81.471 398.987 81.1412 399.784 80.554 400.371C79.9668 400.958 79.1704 401.288 78.34 401.288H51.15C50.3197 401.288 49.5233 400.958 48.9361 400.371C48.3489 399.784 48.019 398.987 48.019 398.157V341.228H81.471Z" fill="#0CBC8B"/>
<path d="M75.882 355.848H53.609V388.249H75.882V355.848Z" fill="#FAFAFA"/>
<path d="M71.657 366.427H57.833C57.5553 366.427 57.289 366.317 57.0927 366.12C56.8963 365.924 56.786 365.658 56.786 365.38C56.786 365.102 56.8963 364.836 57.0927 364.64C57.289 364.443 57.5553 364.333 57.833 364.333H71.657C71.9347 364.333 72.201 364.443 72.3974 364.64C72.5937 364.836 72.704 365.102 72.704 365.38C72.704 365.658 72.5937 365.924 72.3974 366.12C72.201 366.317 71.9347 366.427 71.657 366.427Z" fill="#D7E8F4"/>
<path d="M71.657 370.872H57.833C57.6929 370.876 57.5533 370.852 57.4225 370.802C57.2918 370.751 57.1725 370.675 57.0718 370.577C56.9712 370.48 56.8911 370.363 56.8365 370.234C56.7818 370.105 56.7537 369.966 56.7537 369.826C56.7537 369.685 56.7818 369.546 56.8365 369.417C56.8911 369.288 56.9712 369.171 57.0718 369.074C57.1725 368.976 57.2918 368.9 57.4225 368.849C57.5533 368.799 57.6929 368.775 57.833 368.779H71.657C71.7972 368.775 71.9368 368.799 72.0675 368.849C72.1983 368.9 72.3175 368.976 72.4182 369.074C72.5189 369.171 72.5989 369.288 72.6535 369.417C72.7082 369.546 72.7364 369.685 72.7364 369.826C72.7364 369.966 72.7082 370.105 72.6535 370.234C72.5989 370.363 72.5189 370.48 72.4182 370.577C72.3175 370.675 72.1983 370.751 72.0675 370.802C71.9368 370.852 71.7972 370.876 71.657 370.872Z" fill="#D7E8F4"/>
<path d="M71.657 375.318H57.833C57.5553 375.318 57.289 375.208 57.0927 375.011C56.8963 374.815 56.786 374.549 56.786 374.271C56.786 373.993 56.8963 373.727 57.0927 373.531C57.289 373.334 57.5553 373.224 57.833 373.224H71.657C71.9347 373.224 72.201 373.334 72.3974 373.531C72.5937 373.727 72.704 373.993 72.704 374.271C72.704 374.549 72.5937 374.815 72.3974 375.011C72.201 375.208 71.9347 375.318 71.657 375.318Z" fill="#D7E8F4"/>
<path d="M68.7941 379.763H60.7001C60.5599 379.767 60.4203 379.743 60.2896 379.693C60.1588 379.642 60.0396 379.566 59.9389 379.468C59.8382 379.371 59.7582 379.254 59.7035 379.125C59.6489 378.996 59.6207 378.857 59.6207 378.717C59.6207 378.576 59.6489 378.438 59.7035 378.308C59.7582 378.179 59.8382 378.062 59.9389 377.965C60.0396 377.867 60.1588 377.791 60.2896 377.74C60.4203 377.69 60.5599 377.666 60.7001 377.67H68.8001C68.9402 377.666 69.0798 377.69 69.2106 377.74C69.3413 377.791 69.4606 377.867 69.5612 377.965C69.6619 378.062 69.742 378.179 69.7966 378.308C69.8513 378.438 69.8794 378.576 69.8794 378.717C69.8794 378.857 69.8513 378.996 69.7966 379.125C69.742 379.254 69.6619 379.371 69.5612 379.468C69.4606 379.566 69.3413 379.642 69.2106 379.693C69.0798 379.743 68.9402 379.767 68.8001 379.763H68.7941Z" fill="#D7E8F4"/>
<path d="M111.142 396.994V366.927C111.142 365.445 109.94 364.243 108.458 364.243H66.92C65.4376 364.243 64.236 365.445 64.236 366.927V396.994C64.236 398.476 65.4376 399.678 66.92 399.678H108.458C109.94 399.678 111.142 398.476 111.142 396.994Z" fill="#262626"/>
<path d="M105.026 382.488C105.301 382.488 105.524 382.265 105.524 381.991C105.524 381.716 105.301 381.493 105.026 381.493H70.3509C70.0759 381.493 69.8529 381.716 69.8529 381.991C69.8529 382.265 70.0759 382.488 70.3509 382.488H105.026Z" fill="#ABCBFF"/>
<path d="M73.2319 376.177V369.969C73.2319 369.036 72.4757 368.28 71.5429 368.28H71.5419C70.6091 368.28 69.8529 369.036 69.8529 369.969V376.177C69.8529 377.11 70.6091 377.866 71.5419 377.866H71.5429C72.4757 377.866 73.2319 377.11 73.2319 376.177Z" fill="#FAFAFA"/>
<path d="M78.002 368.28H78.001C77.0682 368.28 76.312 369.036 76.312 369.969V376.177C76.312 377.11 77.0682 377.866 78.001 377.866H78.002C78.9348 377.866 79.691 377.11 79.691 376.177V369.969C79.691 369.036 78.9348 368.28 78.002 368.28Z" fill="#FAFAFA"/>
<path d="M84.46 368.28H84.459C83.5262 368.28 82.77 369.036 82.77 369.969V376.177C82.77 377.11 83.5262 377.866 84.459 377.866H84.46C85.3928 377.866 86.149 377.11 86.149 376.177V369.969C86.149 369.036 85.3928 368.28 84.46 368.28Z" fill="#FAFAFA"/>
<path d="M90.919 368.28H90.918C89.9852 368.28 89.229 369.036 89.229 369.969V376.177C89.229 377.11 89.9852 377.866 90.918 377.866H90.919C91.8518 377.866 92.608 377.11 92.608 376.177V369.969C92.608 369.036 91.8518 368.28 90.919 368.28Z" fill="#FAFAFA"/>
<path d="M97.377 368.28H97.376C96.4432 368.28 95.687 369.036 95.687 369.969V376.177C95.687 377.11 96.4432 377.866 97.376 377.866H97.377C98.3098 377.866 99.066 377.11 99.066 376.177V369.969C99.066 369.036 98.3098 368.28 97.377 368.28Z" fill="#FAFAFA"/>
<path d="M105.525 376.177V369.969C105.525 369.036 104.769 368.28 103.836 368.28H103.835C102.902 368.28 102.146 369.036 102.146 369.969V376.177C102.146 377.11 102.902 377.866 103.835 377.866H103.836C104.769 377.866 105.525 377.11 105.525 376.177Z" fill="#FAFAFA"/>
<path d="M73.2319 393.954V387.746C73.2319 386.813 72.4757 386.057 71.5429 386.057H71.5419C70.6091 386.057 69.8529 386.813 69.8529 387.746V393.954C69.8529 394.887 70.6091 395.643 71.5419 395.643H71.5429C72.4757 395.643 73.2319 394.887 73.2319 393.954Z" fill="#FAFAFA"/>
<path d="M78.002 386.056H78.001C77.0682 386.056 76.312 386.812 76.312 387.745V393.953C76.312 394.886 77.0682 395.642 78.001 395.642H78.002C78.9348 395.642 79.691 394.886 79.691 393.953V387.745C79.691 386.812 78.9348 386.056 78.002 386.056Z" fill="#FAFAFA"/>
<path d="M84.46 386.056H84.459C83.5262 386.056 82.77 386.812 82.77 387.745V393.953C82.77 394.886 83.5262 395.642 84.459 395.642H84.46C85.3928 395.642 86.149 394.886 86.149 393.953V387.745C86.149 386.812 85.3928 386.056 84.46 386.056Z" fill="#FAFAFA"/>
<path d="M90.919 386.056H90.918C89.9852 386.056 89.229 386.812 89.229 387.745V393.953C89.229 394.886 89.9852 395.642 90.918 395.642H90.919C91.8518 395.642 92.608 394.886 92.608 393.953V387.745C92.608 386.812 91.8518 386.056 90.919 386.056Z" fill="#FAFAFA"/>
<path d="M97.377 386.056H97.376C96.4432 386.056 95.687 386.812 95.687 387.745V393.953C95.687 394.886 96.4432 395.642 97.376 395.642H97.377C98.3098 395.642 99.066 394.886 99.066 393.953V387.745C99.066 386.812 98.3098 386.056 97.377 386.056Z" fill="#FAFAFA"/>
<path d="M105.524 393.953V387.745C105.524 386.812 104.768 386.056 103.835 386.056H103.834C102.901 386.056 102.145 386.812 102.145 387.745V393.953C102.145 394.886 102.901 395.642 103.834 395.642H103.835C104.768 395.642 105.524 394.886 105.524 393.953Z" fill="#FAFAFA"/>
<path d="M580.193 108.081L579.98 109.932L571.491 108.955C570.592 108.851 569.688 109.109 568.979 109.672C568.269 110.234 567.812 111.056 567.708 111.955L560.724 172.662C560.621 173.561 560.878 174.465 561.441 175.175C562.004 175.884 562.825 176.341 563.724 176.445L609.046 181.659C609.491 181.71 609.943 181.674 610.374 181.551C610.805 181.428 611.208 181.221 611.559 180.942C611.91 180.664 612.203 180.319 612.421 179.927C612.639 179.535 612.778 179.104 612.829 178.659L619.813 117.952C619.917 117.053 619.659 116.149 619.096 115.439C618.534 114.73 617.712 114.273 616.813 114.169L608.323 113.192L608.536 111.341C608.573 111.027 608.547 110.709 608.461 110.405C608.374 110.101 608.229 109.817 608.032 109.57C607.836 109.322 607.593 109.116 607.316 108.963C607.04 108.81 606.736 108.713 606.422 108.677L582.858 105.966C582.224 105.893 581.587 106.075 581.088 106.472C580.588 106.868 580.266 107.447 580.193 108.081Z" fill="#262626"/>
<path d="M570.736 113.282L563.973 172.063C563.876 172.906 564.481 173.668 565.324 173.766L608.101 178.687C608.944 178.784 609.706 178.179 609.803 177.336L616.566 118.554C616.663 117.711 616.058 116.949 615.215 116.852L572.438 111.93C571.595 111.833 570.833 112.438 570.736 113.282Z" fill="#FAFAFA"/>
<path d="M583.009 110.384L582.382 115.835C582.316 116.408 582.727 116.927 583.301 116.993L603.488 119.315C604.061 119.381 604.579 118.97 604.645 118.396L605.272 112.945C605.338 112.372 604.927 111.854 604.354 111.788L584.167 109.465C583.594 109.399 583.075 109.811 583.009 110.384Z" fill="#0CBC8B"/>
<path d="M580.67 160.34C580.289 160.297 579.945 160.57 579.901 160.95C579.857 161.331 580.13 161.675 580.511 161.718L605.238 164.563C605.619 164.607 605.963 164.334 606.007 163.954C606.051 163.573 605.777 163.229 605.397 163.185L580.67 160.34Z" fill="#9EBCEA"/>
<path d="M587.977 165.239C587.596 165.196 587.252 165.469 587.208 165.849C587.164 166.23 587.438 166.574 587.818 166.617L604.78 168.569C605.161 168.613 605.505 168.34 605.549 167.959C605.593 167.579 605.32 167.235 604.939 167.191L587.977 165.239Z" fill="#9EBCEA"/>
<path d="M573.254 133.371C572.873 133.327 572.529 133.6 572.486 133.981C572.442 134.361 572.715 134.705 573.096 134.749L596.672 137.462C597.053 137.505 597.397 137.232 597.441 136.852C597.485 136.471 597.211 136.127 596.831 136.084L573.254 133.371Z" fill="#9EBCEA"/>
<path d="M572.793 137.376C572.412 137.332 572.068 137.605 572.024 137.985C571.981 138.366 572.254 138.71 572.635 138.754L589.312 140.672C589.693 140.716 590.037 140.443 590.081 140.063C590.125 139.682 589.852 139.338 589.471 139.295L572.793 137.376Z" fill="#9EBCEA"/>
<path d="M572.333 141.382C571.952 141.338 571.608 141.611 571.564 141.992C571.52 142.372 571.793 142.716 572.174 142.76L598.05 145.737C598.431 145.781 598.775 145.508 598.819 145.127C598.863 144.747 598.59 144.403 598.209 144.359L572.333 141.382Z" fill="#9EBCEA"/>
<path d="M571.873 145.388C571.493 145.344 571.148 145.617 571.105 145.997C571.061 146.378 571.334 146.722 571.715 146.766L591.842 149.081C592.223 149.125 592.567 148.852 592.611 148.472C592.655 148.091 592.381 147.747 592.001 147.704L571.873 145.388Z" fill="#9EBCEA"/>
<path d="M578.193 129.1L579.217 127.36L578.159 127.238L577.459 128.448C577.414 128.333 576.339 125.661 576.339 125.661C576.617 125.579 576.865 125.419 577.053 125.199C577.256 124.945 577.377 124.636 577.401 124.312C577.44 124.055 577.417 123.792 577.333 123.546C577.259 123.342 577.135 123.159 576.972 123.015C576.801 122.868 576.602 122.757 576.388 122.686C576.147 122.605 575.897 122.55 575.644 122.522L573.83 122.313L573.251 127.347L574.385 127.477L574.594 125.663L575.219 125.735L576.499 128.908L575.442 130.808L576.615 130.943L577.315 129.643C577.365 129.758 577.741 131.075 577.741 131.075L578.841 131.203L578.193 129.1ZM575.283 124.827L574.696 124.76L574.859 123.347L575.445 123.415C575.684 123.428 575.914 123.505 576.112 123.64C576.187 123.707 576.243 123.793 576.274 123.888C576.305 123.984 576.31 124.086 576.288 124.184C576.283 124.29 576.253 124.393 576.201 124.486C576.149 124.578 576.076 124.658 575.988 124.717C575.772 124.833 575.524 124.872 575.283 124.827Z" fill="#9EBCEA"/>
<path d="M605.521 137.084C605.14 137.04 604.796 137.313 604.752 137.693C604.708 138.074 604.981 138.418 605.362 138.462L609.393 138.925C609.774 138.969 610.118 138.696 610.162 138.316C610.206 137.935 609.933 137.591 609.552 137.548L605.521 137.084Z" fill="#9EBCEA"/>
<path d="M605.058 141.087C604.677 141.044 604.333 141.317 604.289 141.697C604.245 142.078 604.519 142.422 604.899 142.465L608.931 142.929C609.312 142.973 609.656 142.7 609.7 142.32C609.743 141.939 609.47 141.595 609.089 141.551L605.058 141.087Z" fill="#9EBCEA"/>
<path d="M604.598 145.093C604.217 145.049 603.873 145.322 603.829 145.703C603.785 146.083 604.059 146.427 604.439 146.471L608.471 146.935C608.852 146.979 609.196 146.706 609.24 146.325C609.283 145.945 609.01 145.601 608.629 145.557L604.598 145.093Z" fill="#9EBCEA"/>
<path d="M604.138 149.099C603.757 149.055 603.413 149.328 603.369 149.709C603.326 150.089 603.599 150.433 603.979 150.477L608.011 150.941C608.392 150.985 608.736 150.712 608.78 150.331C608.823 149.951 608.55 149.607 608.169 149.563L604.138 149.099Z" fill="#9EBCEA"/>
<path d="M629.5 373.773L625.658 374.414C621.556 374.624 617.517 373.33 614.301 370.775C611.084 368.221 608.91 364.58 608.185 360.537L604.66 340.678L608.491 339.998L612.017 359.857C612.303 361.544 612.92 363.159 613.833 364.606C614.746 366.054 615.936 367.307 617.335 368.292C618.735 369.278 620.315 369.976 621.986 370.348C623.656 370.72 625.384 370.757 627.069 370.458C628.754 370.159 630.363 369.529 631.804 368.605C633.245 367.681 634.488 366.481 635.463 365.074C636.437 363.667 637.124 362.082 637.482 360.408C637.841 358.735 637.865 357.007 637.553 355.324L634.027 335.465L637.858 334.785L641.384 354.644C642.105 358.736 641.291 362.95 639.098 366.48C636.905 370.009 633.488 372.606 629.5 373.773Z" fill="#0F1011"/>
<path d="M606.533 343.685C608.378 343.685 609.873 342.19 609.873 340.345C609.873 338.5 608.378 337.005 606.533 337.005C604.688 337.005 603.193 338.5 603.193 340.345C603.193 342.19 604.688 343.685 606.533 343.685Z" fill="#262626"/>
<path d="M635.83 338.485C637.675 338.485 639.17 336.99 639.17 335.145C639.17 333.3 637.675 331.805 635.83 331.805C633.985 331.805 632.49 333.3 632.49 335.145C632.49 336.99 633.985 338.485 635.83 338.485Z" fill="#262626"/>
<path d="M647.08 415.379C639.521 415.379 631.692 411.138 630.1 403.019L625.074 372.371L629.022 371.725L634.036 402.311C635.357 409.037 642.836 412.153 649.291 411.224L654.083 410.542C655.728 410.308 657.311 409.752 658.74 408.905C660.17 408.058 661.419 406.937 662.414 405.607C663.41 404.276 664.133 402.763 664.542 401.152C664.951 399.542 665.039 397.866 664.799 396.222L662.699 381.78L666.658 381.204L668.758 395.646C669.073 397.811 668.957 400.017 668.417 402.137C667.878 404.257 666.926 406.25 665.615 408.002C664.304 409.753 662.66 411.229 660.778 412.344C658.896 413.459 656.812 414.192 654.646 414.5L649.855 415.182C648.936 415.313 648.009 415.379 647.08 415.379Z" fill="#0F1011"/>
<path d="M664.773 386.355C669.041 386.355 672.501 382.895 672.501 378.627C672.501 374.359 669.041 370.899 664.773 370.899C660.505 370.899 657.045 374.359 657.045 378.627C657.045 382.895 660.505 386.355 664.773 386.355Z" fill="#262626"/>
</g>
<defs>
<clipPath id="clip0_1_389">
<rect width="746.147" height="481.426" fill="white"/>
</clipPath>
</defs>
</svg>
