<svg width="958" height="652" viewBox="0 0 958 652" fill="none" xmlns="http://www.w3.org/2000/svg">
<g clip-path="url(#clip0_1_310)">
<path d="M744.932 88.6C698.099 88.6 678.532 98.936 705.576 145.892C732.62 192.848 814.731 241.221 840.244 185.023C857 148.11 807.333 88.6 744.932 88.6Z" fill="#F3F5FD"/>
<path d="M94.8829 651.015C78.6445 651.03 62.7973 646.031 49.5061 636.702C36.2148 627.373 26.1275 614.169 20.6219 598.892C-3.56705 531.508 -24.8781 406.685 69.8289 271.671C174.549 122.384 263.747 17.765 411.1 1.95899C641.937 -22.8 667.1 193.994 765.043 265.113C850.743 327.34 939.925 394.519 956.864 564.113C957.968 575.095 956.758 586.187 953.313 596.672C949.867 607.158 944.263 616.806 936.861 624.993C929.459 633.181 920.423 639.726 910.337 644.208C900.25 648.689 889.336 651.008 878.299 651.013L94.8829 651.015Z" fill="#F3F5FD"/>
<path d="M361.369 47.9V64H287.532C279.707 64.0003 272.203 67.1082 266.67 72.6402C261.137 78.1723 258.027 85.6756 258.025 93.5V621.508C258.025 629.334 261.134 636.839 266.667 642.373C272.201 647.906 279.706 651.015 287.532 651.015H681.72C685.595 651.016 689.432 650.253 693.013 648.771C696.593 647.288 699.846 645.115 702.587 642.375C705.327 639.634 707.5 636.381 708.983 632.801C710.465 629.221 711.228 625.383 711.227 621.508V93.5C711.225 85.6754 708.116 78.1718 702.582 72.6396C697.049 67.1075 689.544 63.9997 681.72 64H607.882V47.9C607.883 45.1704 607.346 42.4674 606.301 39.9454C605.257 37.4234 603.727 35.1317 601.797 33.2013C599.867 31.2709 597.576 29.7396 595.054 28.6948C592.532 27.65 589.829 27.1121 587.1 27.112H382.152C379.422 27.1121 376.719 27.65 374.198 28.6948C371.676 29.7396 369.385 31.2709 367.455 33.2013C365.525 35.1316 363.994 37.4233 362.95 39.9453C361.906 42.4673 361.368 45.1704 361.369 47.9Z" fill="#C1D8ED"/>
<path d="M285.315 101.876L285.315 613.133C285.315 620.468 291.261 626.414 298.596 626.414H670.654C677.989 626.414 683.935 620.468 683.935 613.133V101.876C683.935 94.5411 677.989 88.595 670.654 88.595H298.596C291.261 88.595 285.315 94.5411 285.315 101.876Z" fill="#FAFAFA"/>
<path d="M387.807 64.892V112.3C387.807 117.287 391.85 121.33 396.837 121.33L572.415 121.33C577.402 121.33 581.445 117.287 581.445 112.3V64.892C581.445 59.9049 577.402 55.862 572.415 55.862L396.837 55.862C391.85 55.862 387.807 59.9049 387.807 64.892Z" fill="#0CBC8B"/>
<path d="M394.292 157.243C383.944 146.457 366.812 148.882 356.026 159.23L355.347 159.908L354.614 159.175C344.052 148.599 326.914 145.805 316.339 156.367C313.824 158.878 311.828 161.86 310.466 165.143C309.103 168.426 308.4 171.945 308.398 175.499C308.395 179.053 309.093 182.573 310.45 185.857C311.808 189.142 313.8 192.127 316.311 194.642L355.324 232.96C355.354 232.99 355.395 233.006 355.437 233.006C355.48 233.006 355.521 232.99 355.551 232.96L394.292 194.715C399.126 189.675 401.826 182.962 401.826 175.979C401.826 168.996 399.126 162.283 394.292 157.243Z" fill="#FD5D76"/>
<path d="M365.54 192.45C365.169 192.452 364.806 192.56 364.494 192.762C364.183 192.963 363.935 193.249 363.78 193.586L360.493 200.886L355.837 170.5C355.766 170.055 355.543 169.649 355.204 169.352C354.866 169.055 354.435 168.885 353.985 168.872C353.54 168.873 353.109 169.022 352.759 169.296C352.409 169.57 352.16 169.952 352.051 170.383L346.451 195.689L345.09 194.019C344.91 193.799 344.683 193.621 344.425 193.499C344.168 193.377 343.887 193.313 343.602 193.313H313.721L315.258 194.989C315.37 195.112 315.487 195.229 315.61 195.351L317.458 197.167H342.681L345.967 201.204C346.195 201.486 346.498 201.698 346.841 201.815C347.183 201.932 347.552 201.951 347.905 201.868C348.258 201.785 348.581 201.605 348.835 201.347C349.09 201.089 349.267 200.765 349.346 200.411L353.59 181.265L357.669 207.9C357.727 208.298 357.909 208.667 358.19 208.955C358.472 209.242 358.836 209.433 359.233 209.5C359.346 209.524 359.461 209.535 359.576 209.533C359.947 209.532 360.309 209.424 360.62 209.223C360.932 209.021 361.178 208.735 361.331 208.397L366.784 196.297H394.1L395.011 195.397C395.419 194.971 395.812 194.535 396.191 194.089L397.591 192.442L365.54 192.45Z" fill="white"/>
<path d="M154.326 236.053L153.546 236.143H128.9C130.9 232.823 133.06 226.313 132.06 214.143L148.04 211.183C148.04 211.183 146.236 230.063 154.326 236.053Z" fill="#E98862"/>
<path opacity="0.15" d="M151.049 232.109L137.777 221.955L148.201 221.847C148.503 225.415 149.469 228.895 151.049 232.109Z" fill="black"/>
<path d="M122.994 205.981C124.101 212.37 127.587 218.419 133.222 220.481C139.364 222.918 146.01 223.816 152.579 223.096C170.069 221.662 166.609 181.896 158.306 174.17C150.003 166.444 125.633 171.337 122.669 184.257C121.136 190.941 121.942 199.9 122.994 205.981Z" fill="#E98862"/>
<path d="M164.075 175.545C163.553 174.717 162.822 174.041 161.955 173.585C154.188 169.362 139.795 167.901 132.882 169.969C124.862 172.369 114.806 179.092 117.382 195.394C117.491 196.081 117.608 196.742 117.729 197.394C115.196 196.961 112.593 197.234 110.205 198.182C107.816 199.13 105.735 200.717 104.189 202.769C102.642 204.822 101.691 207.26 101.438 209.817C101.186 212.375 101.642 214.952 102.756 217.267C103.871 219.582 105.601 221.546 107.758 222.943C109.915 224.341 112.414 225.117 114.983 225.189C117.551 225.26 120.09 224.622 122.321 223.347C124.551 222.071 126.388 220.206 127.629 217.956C128.819 218.984 130.104 219.896 131.467 220.679C132.424 221.248 132.656 220.785 132.988 219.722C134.148 216.012 135.288 201.335 134.378 190.677L153.224 190.026L156.508 180.683L159.199 190.026H165.618C166.479 184.96 167.367 179.222 164.075 175.545Z" fill="#0F1011"/>
<path d="M148.013 201.06C148.813 201.06 149.462 200.411 149.462 199.611C149.462 198.811 148.813 198.162 148.013 198.162C147.213 198.162 146.564 198.811 146.564 199.611C146.564 200.411 147.213 201.06 148.013 201.06Z" fill="#0F1011"/>
<path d="M159.444 200.123C160.244 200.123 160.893 199.474 160.893 198.674C160.893 197.874 160.244 197.225 159.444 197.225C158.644 197.225 157.995 197.874 157.995 198.674C157.995 199.474 158.644 200.123 159.444 200.123Z" fill="#0F1011"/>
<path d="M161.955 195.586H161.947L158.108 195.538C158.018 195.537 157.93 195.519 157.848 195.484C157.765 195.45 157.691 195.399 157.628 195.335C157.565 195.272 157.515 195.196 157.482 195.113C157.448 195.031 157.431 194.942 157.431 194.852C157.432 194.763 157.45 194.675 157.485 194.592C157.52 194.51 157.57 194.435 157.634 194.372C157.698 194.309 157.773 194.26 157.856 194.226C157.939 194.192 158.027 194.175 158.117 194.176H158.125L161.964 194.225C162.14 194.233 162.306 194.309 162.427 194.436C162.549 194.564 162.616 194.734 162.615 194.91C162.614 195.086 162.544 195.255 162.421 195.381C162.298 195.507 162.131 195.58 161.955 195.586Z" fill="#0F1011"/>
<path d="M144.885 196.986C144.718 196.986 144.558 196.924 144.434 196.813C144.309 196.702 144.23 196.55 144.21 196.385C144.191 196.219 144.233 196.052 144.328 195.916C144.423 195.779 144.565 195.682 144.727 195.643L148.511 194.732C148.685 194.694 148.867 194.726 149.017 194.821C149.168 194.916 149.276 195.065 149.317 195.239C149.359 195.412 149.331 195.594 149.24 195.747C149.148 195.9 149.001 196.011 148.829 196.056L145.045 196.967C144.992 196.979 144.939 196.986 144.885 196.986Z" fill="#0F1011"/>
<path d="M140.475 203.157C140.584 204.767 140.054 206.356 139.001 207.579C137.947 208.802 136.455 209.562 134.846 209.693C133.237 209.824 131.641 209.317 130.403 208.281C129.166 207.245 128.385 205.764 128.231 204.157C128.151 203.35 128.234 202.536 128.476 201.762C128.717 200.988 129.112 200.271 129.636 199.653C130.16 199.035 130.804 198.529 131.528 198.165C132.252 197.8 133.042 197.586 133.851 197.533C138.229 197.394 140.2 199.776 140.475 203.157Z" fill="#E98862"/>
<g opacity="0.15">
<path d="M154.445 207.648C154.325 207.648 154.209 207.605 154.119 207.527C154.028 207.449 153.968 207.341 153.95 207.222C153.932 207.104 153.958 206.983 154.022 206.882C154.085 206.78 154.184 206.705 154.298 206.67L157.245 205.765L155.184 201.174C155.135 201.054 155.134 200.919 155.182 200.799C155.23 200.678 155.323 200.581 155.442 200.528C155.56 200.474 155.695 200.469 155.817 200.514C155.939 200.558 156.039 200.648 156.096 200.765L158.389 205.872C158.418 205.937 158.433 206.007 158.433 206.078C158.433 206.149 158.418 206.219 158.389 206.283C158.359 206.348 158.317 206.405 158.264 206.452C158.21 206.499 158.148 206.534 158.08 206.555L154.592 207.626C154.544 207.641 154.495 207.648 154.445 207.648Z" fill="black"/>
</g>
<path d="M148.683 211.023C148.683 211.023 154.032 211.587 157.783 210.277C157.783 210.277 157.753 213.8 153.521 214.147C149.289 214.494 148.683 211.023 148.683 211.023Z" fill="#F8FCFF"/>
<path d="M94.6 473.931H191.416L171.876 346.693L105.846 351.225L94.6 473.931Z" fill="#DEE8F5"/>
<path opacity="0.07" d="M94.6 473.931H191.416L171.876 346.693L105.846 351.225L94.6 473.931Z" fill="#0F1011"/>
<path d="M192.729 640.2L171.876 637.719C172.815 629.827 173.876 620.346 173.948 618.792C173.948 618.892 173.948 618.973 173.948 619.037H194.948C194.943 619.663 194.943 621.578 192.729 640.2Z" fill="#E98862"/>
<path d="M109.053 642.706L88.053 642.637C88.053 642.637 88.124 620.953 88.124 619.037H109.124C109.124 620.959 109.053 642.706 109.053 642.706Z" fill="#E98862"/>
<path d="M163.482 633.565L200.476 632.934C198.739 588.903 198.632 542.716 198.09 498.578C190.87 451.004 188.067 394.658 179.155 347.425H99.66C99.66 347.425 87.16 563.235 82.641 632.372L119.51 635.488C126.153 567.702 137.433 477.932 143.756 406.721C151.016 441.39 154.956 468.289 161.27 502.661C162.533 545.687 163.6 590.666 163.482 633.565Z" fill="#262626"/>
<path d="M134.582 650.828C135.147 650.825 135.705 650.706 136.222 650.478C136.738 650.25 137.202 649.918 137.585 649.503C137.967 649.087 138.26 648.597 138.445 648.064C138.629 647.53 138.702 646.964 138.658 646.401C138.597 645.621 138.315 644.874 137.844 644.249C137.373 643.624 136.733 643.146 136 642.872L111.557 634.685C111.084 634.528 110.582 634.476 110.086 634.531C109.59 634.586 109.112 634.748 108.685 635.005C105.325 637.336 101.305 638.528 97.217 638.405C94.0329 638.179 90.9765 637.062 88.396 635.183C88.1693 634.997 87.8944 634.879 87.6032 634.843C87.3121 634.808 87.0168 634.855 86.7518 634.981C86.4869 635.107 86.2632 635.306 86.1069 635.554C85.9505 635.802 85.8681 636.09 85.869 636.383V648.335C85.869 648.688 85.9387 649.037 86.0739 649.362C86.2092 649.688 86.4074 649.984 86.6573 650.233C86.9071 650.481 87.2036 650.678 87.5298 650.812C87.856 650.946 88.2054 651.014 88.558 651.013L134.582 650.828Z" fill="#C1D8ED"/>
<path d="M218.315 650.828C218.88 650.825 219.438 650.706 219.955 650.478C220.471 650.25 220.936 649.918 221.318 649.503C221.701 649.087 221.994 648.598 222.178 648.064C222.363 647.53 222.436 646.964 222.392 646.401C222.331 645.621 222.048 644.874 221.577 644.249C221.106 643.623 220.466 643.146 219.733 642.872L195.291 634.685C194.817 634.528 194.315 634.476 193.82 634.531C193.324 634.586 192.846 634.748 192.418 635.005C189.058 637.336 185.038 638.528 180.95 638.405C177.766 638.179 174.71 637.062 172.13 635.183C171.903 634.997 171.628 634.879 171.337 634.843C171.046 634.808 170.751 634.855 170.486 634.981C170.221 635.107 169.997 635.306 169.841 635.554C169.685 635.802 169.602 636.09 169.603 636.383V648.335C169.603 648.688 169.673 649.037 169.808 649.362C169.943 649.688 170.141 649.984 170.391 650.233C170.641 650.481 170.938 650.678 171.264 650.812C171.59 650.946 171.939 651.014 172.292 651.013L218.315 650.828Z" fill="#C1D8ED"/>
<path d="M90.149 377.634L90.369 377.177C90.731 380.135 93.505 389.832 91.08 390.846C90.158 391.232 88.744 388.501 87.832 386.446C85.851 390.959 86.153 401.159 86.516 406.887C86.5396 407.266 86.4484 407.644 86.2541 407.97C86.0598 408.296 85.7715 408.556 85.427 408.716C85.0825 408.876 84.6977 408.928 84.323 408.866C83.9483 408.804 83.6012 408.63 83.327 408.367C72.565 398.045 78.319 377.075 78.319 377.075L79.432 371.783L90.149 377.634Z" fill="#E98862"/>
<path d="M263.527 266.969C266.362 270.223 264.782 275.855 257.266 280.437C245.841 287.401 242.766 284.098 239.935 280.844C237.104 277.59 246.587 273.575 253.154 266.744C253.814 266.015 254.624 265.436 255.528 265.046C256.431 264.657 257.408 264.467 258.392 264.488C259.376 264.51 260.343 264.742 261.229 265.17C262.115 265.598 262.899 266.212 263.527 266.969Z" fill="#E98862"/>
<path d="M239.421 275.813C239.267 275.947 249.204 261.44 252.836 265.072C254.436 266.672 249.736 272.165 249.736 272.165" fill="#E98862"/>
<path d="M183.175 349.625C178.986 359.255 96.656 363.255 95.556 346.315C94.856 335.535 104.356 326.125 104.356 305.115C104.356 284.105 85.026 257.275 100.776 241.525C105.347 236.955 113.237 234.005 122.856 233.995C123.577 239.605 157.637 239.625 157.896 234.125C159.196 234.145 160.207 234.165 160.836 234.195C194.017 235.625 179.436 273.385 179.117 301.125C178.726 333.585 187.5 339.705 183.175 349.625Z" fill="#F4F4F4"/>
<path d="M183.175 349.625C178.986 359.255 100.76 364.365 99.66 347.425C98.96 336.645 104.36 326.125 104.36 305.115C104.36 284.105 86.868 257.542 102.618 241.792C107.188 237.222 113.688 234.452 123.308 234.442C124.028 240.052 157.654 240.208 157.914 234.708C159.214 234.728 160.224 234.748 160.854 234.778C194.034 236.208 179.441 273.385 179.121 301.125C178.726 333.585 187.5 339.705 183.175 349.625Z" fill="#367CFF"/>
<path d="M157.9 234.125C157.641 239.625 153.748 240.575 144.518 241.185C132.218 241.995 123.581 239.605 122.86 233.995H122.891C135 234 150.835 234.015 157.9 234.125Z" fill="#E98862"/>
<path d="M137.988 290.048C142.394 334.597 136.475 417.085 136.422 485.832C136.422 485.832 107.293 491.703 82.641 481.92C82.641 481.92 97.441 324.162 101.641 288.763C101.641 288.763 100.977 308.13 98.629 319.243C96.281 330.356 94.014 379.486 94.014 379.486C94.014 379.486 88.822 380.615 72.455 380.615C72.455 380.615 72.455 325.486 76.368 309.442C80.281 293.398 93.918 240.623 105.845 236.486C115.401 233.17 128.745 233.995 128.745 233.995C128.745 233.995 135.978 269.722 137.988 290.048Z" fill="#DEE8F5"/>
<path d="M128.742 234C128.742 234 139.38 274.947 139.38 317.077L120.98 258.186L126.9 250.752L118.6 244.882L120.16 234.09C122.855 233.539 128.742 234 128.742 234Z" fill="white"/>
<path d="M153.653 234C153.653 234 151.791 263.273 151.791 290.665C151.791 318.057 156.137 487.542 156.137 487.542C156.137 487.542 191.004 487.81 202.215 485.404C202.215 485.404 198.144 429.904 190.764 361.491C186.333 320.411 182.511 297.859 181.63 290.665C181.63 290.665 197.017 319.76 208.106 319.76C219.195 319.76 250.374 288.76 250.374 288.76C250.374 288.76 251.081 281.808 243.5 266.74L211.938 288.767C211.938 288.767 183.518 242.089 174.032 236.924C169.892 234.67 164.217 234.353 160.832 234.199C156.652 234.005 153.653 234 153.653 234Z" fill="#DEE8F5"/>
<path d="M153.653 234C153.653 234 150.13 279.708 152.078 315.494L163.26 258.186L157.895 251.534L164.622 246.447L160.835 234.2L153.653 234Z" fill="white"/>
<path d="M147.652 242.845C145.11 242.866 142.62 242.123 140.504 240.713C136.115 237.813 132.953 231.898 131.604 224.069C130.221 216.069 131.074 204.069 131.112 203.557L134.104 203.775C134.095 203.896 133.241 215.923 134.56 223.558C135.77 230.564 138.47 235.768 142.16 238.212C143.416 239.013 144.826 239.538 146.299 239.755C147.773 239.972 149.275 239.875 150.708 239.47C153.678 238.77 155.741 237.517 156.839 235.735C157.985 233.875 158.17 231.287 157.39 228.042C156.941 226.117 156.245 224.257 155.318 222.511C155.318 222.511 155.973 222.255 156.775 221.847C157.252 221.606 157.699 221.31 158.107 220.965C159.046 223.013 159.783 225.148 160.307 227.34C161.28 231.39 160.973 234.74 159.393 237.309C157.861 239.795 155.17 241.509 151.393 242.391C150.168 242.686 148.912 242.838 147.652 242.845Z" fill="#262626"/>
<path d="M196.478 290.887C163.386 290.887 150.148 242.929 149.601 240.887L152.501 240.109C152.63 240.587 165.691 287.886 196.481 287.886C211.481 287.886 221.03 280.864 229.46 274.668C238.831 267.78 246.924 261.831 258.792 268.86L257.263 271.441C247.1 265.424 240.447 270.315 231.237 277.086C222.868 283.235 212.457 290.887 196.478 290.887Z" fill="#262626"/>
<path d="M262.478 281.225C266.512 281.225 269.782 277.955 269.782 273.921C269.782 269.887 266.512 266.617 262.478 266.617C258.444 266.617 255.174 269.887 255.174 273.921C255.174 277.955 258.444 281.225 262.478 281.225Z" fill="#262626"/>
<path d="M262.478 278.319C264.907 278.319 266.876 276.35 266.876 273.921C266.876 271.492 264.907 269.523 262.478 269.523C260.049 269.523 258.08 271.492 258.08 273.921C258.08 276.35 260.049 278.319 262.478 278.319Z" fill="white"/>
<path d="M132.564 206.324C134.032 206.324 135.222 205.134 135.222 203.666C135.222 202.198 134.032 201.008 132.564 201.008C131.096 201.008 129.906 202.198 129.906 203.666C129.906 205.134 131.096 206.324 132.564 206.324Z" fill="#262626"/>
<path d="M380.821 353.505H329.4C324.168 353.499 319.151 351.418 315.452 347.718C311.752 344.019 309.671 339.002 309.665 333.77V282.352C309.671 277.12 311.752 272.103 315.452 268.404C319.151 264.704 324.168 262.623 329.4 262.617H380.818C386.05 262.623 391.067 264.704 394.766 268.404C398.466 272.103 400.547 277.12 400.553 282.352V333.77C400.547 339.002 398.467 344.018 394.767 347.717C391.068 351.417 386.053 353.498 380.821 353.505ZM329.4 272.617C326.819 272.62 324.345 273.646 322.52 275.472C320.695 277.297 319.668 279.771 319.665 282.352V333.77C319.668 336.351 320.695 338.825 322.52 340.65C324.345 342.476 326.819 343.502 329.4 343.505H380.818C383.399 343.502 385.873 342.476 387.698 340.65C389.524 338.825 390.55 336.351 390.553 333.77V282.352C390.55 279.771 389.524 277.297 387.698 275.472C385.873 273.646 383.399 272.62 380.818 272.617H329.4Z" fill="#DEE8F5"/>
<path d="M380.821 469H329.4C324.168 468.994 319.151 466.913 315.452 463.213C311.752 459.514 309.671 454.497 309.665 449.265V397.851C309.671 392.619 311.752 387.602 315.452 383.903C319.151 380.203 324.168 378.122 329.4 378.116H380.818C386.05 378.122 391.067 380.203 394.766 383.903C398.466 387.602 400.547 392.619 400.553 397.851V449.269C400.546 454.5 398.465 459.515 394.766 463.214C391.067 466.912 386.052 468.993 380.821 469ZM329.4 388.116C326.819 388.119 324.345 389.145 322.52 390.97C320.695 392.796 319.668 395.27 319.665 397.851V449.269C319.669 451.849 320.696 454.323 322.521 456.147C324.346 457.971 326.82 458.997 329.4 459H380.818C383.399 458.997 385.873 457.97 387.698 456.145C389.524 454.32 390.55 451.846 390.553 449.265V397.851C390.55 395.27 389.524 392.796 387.698 390.97C385.873 389.145 383.399 388.119 380.818 388.116H329.4Z" fill="#DEE8F5"/>
<path d="M380.821 584.5H329.4C324.168 584.494 319.151 582.413 315.452 578.713C311.752 575.013 309.671 569.996 309.665 564.764V513.35C309.671 508.118 311.752 503.101 315.452 499.402C319.151 495.702 324.168 493.621 329.4 493.615H380.818C386.05 493.621 391.067 495.702 394.766 499.402C398.466 503.101 400.547 508.118 400.553 513.35V564.768C400.546 569.999 398.465 575.014 394.766 578.713C391.067 582.412 386.052 584.493 380.821 584.5ZM329.4 503.615C326.819 503.618 324.345 504.645 322.52 506.47C320.695 508.295 319.668 510.769 319.665 513.35V564.768C319.669 567.348 320.696 569.822 322.521 571.646C324.346 573.471 326.82 574.497 329.4 574.5H380.818C383.399 574.497 385.874 573.47 387.699 571.645C389.524 569.82 390.55 567.345 390.553 564.764V513.35C390.55 510.769 389.524 508.295 387.698 506.47C385.873 504.645 383.399 503.618 380.818 503.615H329.4Z" fill="#DEE8F5"/>
<path d="M344.39 327.9C343.748 327.901 343.114 327.765 342.529 327.501C341.944 327.236 341.423 326.85 341 326.367L325.74 308.92C324.991 308.017 324.624 306.857 324.718 305.687C324.811 304.517 325.358 303.43 326.242 302.658C327.126 301.886 328.276 301.489 329.448 301.553C330.62 301.617 331.72 302.136 332.515 303L344.878 317.134L378.21 289.271C378.66 288.871 379.186 288.565 379.757 288.372C380.327 288.178 380.931 288.102 381.531 288.146C382.132 288.19 382.718 288.355 383.254 288.63C383.79 288.905 384.265 289.284 384.652 289.746C385.038 290.208 385.328 290.743 385.504 291.32C385.68 291.896 385.738 292.501 385.676 293.1C385.614 293.7 385.431 294.28 385.14 294.808C384.849 295.335 384.455 295.799 383.982 296.171L347.275 326.857C346.466 327.533 345.444 327.902 344.39 327.9Z" fill="#FD5D76"/>
<path d="M344.39 443.4C343.748 443.401 343.113 443.265 342.529 443.001C341.944 442.736 341.423 442.349 341 441.866L325.74 424.42C325.351 423.975 325.053 423.458 324.864 422.898C324.675 422.338 324.598 421.746 324.637 421.157C324.717 419.966 325.266 418.855 326.164 418.069C326.609 417.68 327.126 417.383 327.686 417.193C328.246 417.004 328.838 416.927 329.428 416.966C330.619 417.046 331.729 417.596 332.515 418.494L344.878 432.629L378.21 404.765C378.663 404.381 379.187 404.089 379.753 403.909C380.318 403.728 380.914 403.661 381.506 403.711C382.098 403.762 382.674 403.929 383.201 404.203C383.727 404.477 384.195 404.853 384.576 405.309C384.957 405.764 385.244 406.291 385.42 406.858C385.596 407.425 385.659 408.022 385.604 408.613C385.548 409.204 385.377 409.779 385.098 410.304C384.82 410.828 384.441 411.293 383.982 411.67L347.275 442.355C346.466 443.031 345.445 443.401 344.39 443.4Z" fill="#FD5D76"/>
<path d="M344.39 558.9C343.748 558.901 343.113 558.765 342.528 558.5C341.944 558.235 341.422 557.848 341 557.365L325.74 539.919C325.351 539.474 325.053 538.957 324.864 538.397C324.675 537.837 324.598 537.246 324.637 536.656C324.676 536.066 324.832 535.49 325.094 534.96C325.356 534.431 325.72 533.958 326.164 533.568C326.609 533.179 327.126 532.882 327.686 532.692C328.246 532.503 328.838 532.426 329.428 532.466C330.017 532.505 330.593 532.66 331.123 532.922C331.653 533.184 332.126 533.548 332.515 533.993L344.878 548.128L378.21 520.264C378.66 519.864 379.186 519.558 379.757 519.365C380.327 519.171 380.931 519.095 381.531 519.139C382.132 519.183 382.718 519.348 383.254 519.623C383.79 519.898 384.265 520.277 384.652 520.739C385.038 521.201 385.328 521.736 385.504 522.313C385.68 522.889 385.738 523.494 385.676 524.093C385.614 524.693 385.431 525.273 385.14 525.801C384.849 526.328 384.455 526.792 383.982 527.164L347.275 557.849C346.467 558.528 345.445 558.9 344.39 558.9Z" fill="#FD5D76"/>
<g opacity="0.62">
<path d="M428.372 302.068C425.062 302.068 422.378 304.751 422.378 308.062C422.378 311.372 425.062 314.055 428.372 314.055H653.439C656.749 314.055 659.433 311.372 659.433 308.062C659.433 304.751 656.749 302.068 653.439 302.068H428.372Z" fill="#DEE8F5"/>
<path d="M428.371 265.326C425.061 265.326 422.377 268.009 422.377 271.32C422.377 274.63 425.061 277.313 428.371 277.313H653.438C656.748 277.313 659.432 274.63 659.432 271.32C659.432 268.009 656.748 265.326 653.438 265.326H428.371Z" fill="#DEE8F5"/>
<path d="M428.371 338.81C425.061 338.81 422.377 341.493 422.377 344.804C422.377 348.114 425.061 350.797 428.371 350.797H603.438C606.748 350.797 609.432 348.114 609.432 344.804C609.432 341.493 606.748 338.81 603.438 338.81H428.371Z" fill="#DEE8F5"/>
</g>
<g opacity="0.62">
<path d="M428.372 417.567C425.062 417.567 422.378 420.25 422.378 423.56C422.378 426.871 425.062 429.554 428.372 429.554H653.439C656.749 429.554 659.433 426.871 659.433 423.56C659.433 420.25 656.749 417.567 653.439 417.567H428.372Z" fill="#DEE8F5"/>
<path d="M428.371 380.825C425.061 380.825 422.377 383.508 422.377 386.818C422.377 390.129 425.061 392.812 428.371 392.812H653.438C656.748 392.812 659.432 390.129 659.432 386.818C659.432 383.508 656.748 380.825 653.438 380.825H428.371Z" fill="#DEE8F5"/>
<path d="M428.371 454.309C425.061 454.309 422.377 456.992 422.377 460.302C422.377 463.613 425.061 466.296 428.371 466.296H603.438C606.748 466.296 609.432 463.613 609.432 460.302C609.432 456.992 606.748 454.309 603.438 454.309H428.371Z" fill="#DEE8F5"/>
</g>
<g opacity="0.62">
<path d="M428.372 533.066C425.062 533.066 422.378 535.749 422.378 539.06C422.378 542.37 425.062 545.053 428.372 545.053H653.439C656.749 545.053 659.433 542.37 659.433 539.06C659.433 535.749 656.749 533.066 653.439 533.066H428.372Z" fill="#DEE8F5"/>
<path d="M428.371 496.324C425.061 496.324 422.377 499.007 422.377 502.318C422.377 505.628 425.061 508.311 428.371 508.311H653.438C656.748 508.311 659.432 505.628 659.432 502.318C659.432 499.007 656.748 496.324 653.438 496.324H428.371Z" fill="#DEE8F5"/>
<path d="M428.371 569.808C425.061 569.808 422.377 572.491 422.377 575.802C422.377 579.112 425.061 581.795 428.371 581.795H603.438C606.748 581.795 609.432 579.112 609.432 575.802C609.432 572.491 606.748 569.808 603.438 569.808H428.371Z" fill="#DEE8F5"/>
</g>
<path d="M653.308 502.471V593.562C653.311 599.189 651.079 604.586 647.104 608.568C643.129 612.55 637.735 614.791 632.108 614.797H632.072C626.445 614.791 621.051 612.55 617.076 608.568C613.101 604.586 610.869 599.189 610.872 593.562V502.471H653.308Z" fill="#8DDBE0"/>
<path d="M653.308 388.335H610.875C610.092 388.335 609.342 388.646 608.789 389.199C608.236 389.752 607.925 390.503 607.925 391.285C607.925 392.067 608.236 392.818 608.789 393.371C609.342 393.924 610.092 394.235 610.875 394.235V502.471H653.307V394.23C654.089 394.23 654.84 393.919 655.393 393.366C655.946 392.813 656.257 392.062 656.257 391.28C656.257 390.498 655.946 389.747 655.393 389.194C654.84 388.641 654.089 388.33 653.307 388.33L653.308 388.335Z" fill="#DEE8F5"/>
<path d="M740.532 475.666V593.566C740.535 599.193 738.303 604.59 734.328 608.572C730.352 612.554 724.959 614.795 719.332 614.801H719.3C713.673 614.795 708.279 612.554 704.304 608.572C700.328 604.59 698.097 599.193 698.1 593.566V475.666H740.532Z" fill="#262626"/>
<path d="M740.532 388.335H698.1C697.317 388.335 696.567 388.646 696.014 389.199C695.461 389.752 695.15 390.503 695.15 391.285C695.15 392.067 695.461 392.818 696.014 393.371C696.567 393.924 697.317 394.235 698.1 394.235V475.671H740.533V394.23C741.315 394.23 742.066 393.919 742.619 393.366C743.172 392.813 743.483 392.062 743.483 391.28C743.483 390.498 743.172 389.747 742.619 389.194C742.066 388.641 741.315 388.33 740.533 388.33L740.532 388.335Z" fill="#DEE8F5"/>
<path d="M827.755 489.068V593.562C827.758 599.189 825.526 604.586 821.551 608.568C817.576 612.55 812.182 614.791 806.555 614.797H806.519C800.892 614.791 795.498 612.55 791.523 608.568C787.547 604.586 785.316 599.189 785.319 593.562V489.068H827.755Z" fill="#0CBC8B"/>
<path d="M827.756 388.335H785.323C784.541 388.335 783.79 388.646 783.237 389.199C782.684 389.752 782.373 390.503 782.373 391.285C782.373 392.067 782.684 392.818 783.237 393.371C783.79 393.924 784.541 394.235 785.323 394.235V489.073H827.755V394.23C828.537 394.23 829.288 393.919 829.841 393.366C830.394 392.813 830.705 392.062 830.705 391.28C830.705 390.498 830.394 389.747 829.841 389.194C829.288 388.641 828.537 388.33 827.755 388.33L827.756 388.335Z" fill="#DEE8F5"/>
<path d="M879.873 640.963H872.573V436.2C872.573 434.867 872.043 433.589 871.101 432.646C870.158 431.703 868.88 431.174 867.547 431.174H571.082C569.749 431.174 568.471 431.704 567.529 432.646C566.586 433.589 566.057 434.867 566.057 436.2V640.963H558.757C557.424 640.963 556.146 641.492 555.203 642.435C554.26 643.378 553.731 644.656 553.731 645.989C553.731 647.322 554.26 648.6 555.203 649.543C556.146 650.485 557.424 651.015 558.757 651.015H583.406C584.739 651.015 586.017 650.485 586.96 649.543C587.902 648.6 588.432 647.322 588.432 645.989C588.432 644.656 587.902 643.378 586.96 642.435C586.017 641.492 584.739 640.963 583.406 640.963H576.106V441.227H862.523V640.963H855.223C853.89 640.963 852.612 641.492 851.669 642.435C850.726 643.378 850.197 644.656 850.197 645.989C850.197 647.322 850.726 648.6 851.669 649.543C852.612 650.485 853.89 651.015 855.223 651.015H879.872C881.205 651.015 882.483 650.485 883.426 649.543C884.368 648.6 884.898 647.322 884.898 645.989C884.898 644.656 884.368 643.378 883.426 642.435C882.483 641.492 881.206 640.963 879.873 640.963Z" fill="#9EBCEA"/>
<path d="M428.371 160.802C425.061 160.802 422.377 163.485 422.377 166.796C422.377 170.106 425.061 172.789 428.371 172.789H633.438C636.748 172.789 639.432 170.106 639.432 166.796C639.432 163.485 636.748 160.802 633.438 160.802H428.371Z" fill="#D7E8F4"/>
<path d="M453.372 195.638C450.062 195.638 447.378 198.321 447.378 201.632C447.378 204.942 450.062 207.625 453.372 207.625H608.439C611.749 207.625 614.433 204.942 614.433 201.632C614.433 198.321 611.749 195.638 608.439 195.638H453.372Z" fill="#D7E8F4"/>
</g>
<defs>
<clipPath id="clip0_1_310">
<rect width="957.264" height="651.015" fill="white"/>
</clipPath>
</defs>
</svg>
