<svg width="656" height="497" viewBox="0 0 656 497" fill="none" xmlns="http://www.w3.org/2000/svg">
<g clip-path="url(#clip0_1_128)">
<path d="M197.694 52.256C197.694 27.611 185.022 7.89398 160.666 7.89398C138.689 7.89398 124.766 27.901 124.766 52.256" fill="#C1D8ED"/>
<path d="M160.667 7.89996C185 7.89996 197.654 27.583 197.694 52.192C197.714 52.3699 197.724 52.5489 197.722 52.728V288.382C197.694 294.225 198.821 300.016 201.038 305.423C203.255 310.829 206.518 315.744 210.64 319.886C214.762 324.028 219.662 327.314 225.058 329.557C230.453 331.799 236.239 332.954 242.082 332.954C247.926 332.954 253.712 331.799 259.107 329.557C264.503 327.314 269.403 324.028 273.525 319.886C277.647 315.744 280.91 310.829 283.127 305.423C285.344 300.016 286.471 294.225 286.443 288.382H427.733V57.187C427.733 30.8 412.5 9.05196 386.114 7.89996H160.667Z" fill="#D7E8F4"/>
<path d="M242.084 332.741H427.732C433.558 332.741 439.326 331.594 444.709 329.365C450.091 327.135 454.981 323.868 459.101 319.748C463.22 315.629 466.488 310.739 468.717 305.356C470.947 299.974 472.094 294.206 472.094 288.38H286.445C286.469 294.212 285.339 299.992 283.118 305.385C280.897 310.778 277.63 315.678 273.506 319.802C269.382 323.926 264.482 327.193 259.089 329.414C253.696 331.635 247.916 332.765 242.084 332.741Z" fill="#C1D8ED"/>
<path d="M265.557 103.237L360.789 103.237C365.084 103.237 368.565 99.7558 368.565 95.4615C368.565 91.1672 365.084 87.686 360.789 87.686L265.557 87.686C261.262 87.686 257.781 91.1672 257.781 95.4615C257.781 99.7558 261.262 103.237 265.557 103.237Z" fill="#FAFBFC"/>
<path d="M387.995 141.101H238.351C236.521 141.101 235.038 142.584 235.038 144.414V144.415C235.038 146.245 236.521 147.728 238.351 147.728H387.995C389.825 147.728 391.308 146.245 391.308 144.415V144.414C391.308 142.584 389.825 141.101 387.995 141.101Z" fill="#FAFBFC"/>
<path d="M387.995 125.188H238.351C236.521 125.188 235.038 126.671 235.038 128.501V128.502C235.038 130.332 236.521 131.815 238.351 131.815H387.995C389.825 131.815 391.308 130.332 391.308 128.502V128.501C391.308 126.671 389.825 125.188 387.995 125.188Z" fill="#FAFBFC"/>
<path d="M387.995 157.015H238.351C236.521 157.015 235.038 158.498 235.038 160.328V160.329C235.038 162.159 236.521 163.642 238.351 163.642H387.995C389.825 163.642 391.308 162.159 391.308 160.329V160.328C391.308 158.498 389.825 157.015 387.995 157.015Z" fill="#FAFBFC"/>
<path d="M387.995 172.929H238.351C236.521 172.929 235.038 174.412 235.038 176.242V176.243C235.038 178.073 236.521 179.556 238.351 179.556H387.995C389.825 179.556 391.308 178.073 391.308 176.243V176.242C391.308 174.412 389.825 172.929 387.995 172.929Z" fill="#FAFBFC"/>
<path d="M387.995 188.843H238.351C236.521 188.843 235.038 190.326 235.038 192.156V192.157C235.038 193.987 236.521 195.47 238.351 195.47H387.995C389.825 195.47 391.308 193.987 391.308 192.157V192.156C391.308 190.326 389.825 188.843 387.995 188.843Z" fill="#FAFBFC"/>
<path d="M387.995 220.67H238.351C236.521 220.67 235.038 222.153 235.038 223.983V223.984C235.038 225.814 236.521 227.297 238.351 227.297H387.995C389.825 227.297 391.308 225.814 391.308 223.984V223.983C391.308 222.153 389.825 220.67 387.995 220.67Z" fill="#FAFBFC"/>
<path d="M387.995 204.757H238.351C236.521 204.757 235.038 206.24 235.038 208.07V208.071C235.038 209.901 236.521 211.384 238.351 211.384H387.995C389.825 211.384 391.308 209.901 391.308 208.071V208.07C391.308 206.24 389.825 204.757 387.995 204.757Z" fill="#FAFBFC"/>
<path d="M342.993 236.584H283.353C281.523 236.584 280.04 238.067 280.04 239.897V239.898C280.04 241.728 281.523 243.211 283.353 243.211H342.993C344.823 243.211 346.306 241.728 346.306 239.898V239.897C346.306 238.067 344.823 236.584 342.993 236.584Z" fill="#FAFBFC"/>
<path d="M106.091 39.356C106.391 43.025 102.567 46.441 101.937 49.899C101.285 53.477 103.623 58.021 102.097 61.231C100.55 64.487 95.534 65.543 93.215 68.272C90.896 71.001 90.661 76.121 87.697 78.172C84.775 80.195 79.913 78.619 76.488 79.839C73.177 81.018 70.422 85.339 66.752 85.639C63.082 85.939 59.667 82.114 56.209 81.484C52.631 80.832 48.087 83.17 44.877 81.644C41.621 80.097 40.565 75.081 37.836 72.762C35.107 70.443 29.987 70.208 27.936 67.244C25.913 64.322 27.489 59.46 26.269 56.035C25.09 52.724 20.769 49.969 20.469 46.299C20.169 42.629 23.994 39.214 24.624 35.756C25.276 32.178 22.938 27.634 24.464 24.424C26.011 21.168 31.027 20.112 33.346 17.383C35.665 14.654 35.9 9.534 38.864 7.483C41.786 5.46 46.648 7.036 50.073 5.816C53.384 4.637 56.139 0.316001 59.809 0.0160014C63.479 -0.283999 66.894 3.541 70.352 4.171C73.93 4.823 78.474 2.485 81.684 4.011C84.94 5.558 86 10.574 88.725 12.893C91.45 15.212 96.574 15.447 98.625 18.411C100.648 21.333 99.072 26.195 100.292 29.62C101.471 32.931 105.794 35.686 106.091 39.356Z" fill="#0F1011"/>
<path d="M49.989 79.236C51.969 75.886 54.089 69.396 53.109 57.346L69.089 54.396C69.089 54.396 67.289 73.196 75.299 79.236H49.989Z" fill="#E98862"/>
<path opacity="0.15" d="M72.083 75.328L58.82 65.163L69.244 65.063C69.5426 68.6316 70.5054 72.1131 72.083 75.328Z" fill="black"/>
<path d="M44.051 49.175C45.151 55.565 48.633 61.617 54.266 63.686C60.4064 66.1292 67.0512 67.0331 73.621 66.319C91.112 64.9 87.688 25.129 79.391 17.4C71.094 9.67099 46.721 14.538 43.745 27.456C42.206 34.133 43 43.093 44.051 49.175Z" fill="#E98862"/>
<path d="M69.076 44.276C69.8763 44.276 70.525 43.6273 70.525 42.827C70.525 42.0267 69.8763 41.378 69.076 41.378C68.2758 41.378 67.627 42.0267 67.627 42.827C67.627 43.6273 68.2758 44.276 69.076 44.276Z" fill="#0F1011"/>
<path d="M80.508 43.349C81.3083 43.349 81.957 42.7003 81.957 41.9C81.957 41.0997 81.3083 40.451 80.508 40.451C79.7078 40.451 79.059 41.0997 79.059 41.9C79.059 42.7003 79.7078 43.349 80.508 43.349Z" fill="#0F1011"/>
<path d="M83.022 38.815H83.013L79.175 38.763C78.999 38.7552 78.8329 38.6795 78.7116 38.5518C78.5902 38.4241 78.5231 38.2543 78.5242 38.0781C78.5254 37.902 78.5948 37.7331 78.7178 37.607C78.8408 37.481 79.008 37.4075 79.184 37.402H79.193L83.031 37.453C83.2116 37.4542 83.3844 37.5271 83.5113 37.6556C83.6381 37.7842 83.7087 37.9579 83.7075 38.1385C83.7063 38.3191 83.6334 38.4918 83.5049 38.6187C83.3763 38.7456 83.2026 38.8162 83.022 38.815Z" fill="#0F1011"/>
<path d="M65.95 40.2C65.7836 40.1993 65.6231 40.1377 65.499 40.0268C65.3749 39.9159 65.2957 39.7634 65.2763 39.598C65.257 39.4327 65.2989 39.266 65.3941 39.1295C65.4893 38.9929 65.6312 38.896 65.793 38.857L69.578 37.95C69.666 37.9262 69.7578 37.9203 69.848 37.9326C69.9383 37.9449 70.0252 37.9753 70.1035 38.0218C70.1818 38.0683 70.2501 38.13 70.3041 38.2034C70.3581 38.2767 70.3969 38.3602 70.4181 38.4488C70.4393 38.5374 70.4426 38.6293 70.4276 38.7192C70.4126 38.809 70.3798 38.895 70.331 38.9719C70.2822 39.0489 70.2185 39.1153 70.1436 39.1671C70.0687 39.219 69.9842 39.2553 69.895 39.274L66.11 40.181C66.0576 40.1937 66.0039 40.2001 65.95 40.2Z" fill="#0F1011"/>
<path d="M69.736 54.24C69.736 54.24 75.084 54.809 78.836 53.502C78.836 53.502 78.803 57.025 74.571 57.368C70.339 57.711 69.736 54.24 69.736 54.24Z" fill="#F8FCFF"/>
<path d="M55.834 32.634C56.8836 47.608 55.2355 62.6487 50.968 77.04C50.968 77.04 38.775 56.015 36.889 38.51C35.121 22.1 47.222 12.422 55.393 10.6C86.444 3.68902 88.679 26.371 88.679 26.371C83.022 38.134 52.473 38.082 52.473 38.082" fill="#0F1011"/>
<path d="M61.754 49.066C61.8663 50.6792 61.338 52.2715 60.2837 53.4976C59.2294 54.7238 57.7341 55.4847 56.1224 55.6154C54.5106 55.7461 52.9123 55.236 51.6742 54.1958C50.4361 53.1556 49.6581 51.6692 49.509 50.059C49.4298 49.2523 49.5137 48.4379 49.7558 47.6644C49.9979 46.8908 50.3932 46.1739 50.9182 45.5563C51.4431 44.9387 52.087 44.433 52.8115 44.0694C53.5359 43.7059 54.3261 43.4918 55.135 43.44C59.513 43.3 61.48 45.685 61.754 49.066Z" fill="#E98862"/>
<g opacity="0.15">
<path d="M75.5 50.87C75.3803 50.8699 75.2646 50.8268 75.174 50.7486C75.0834 50.6704 75.0238 50.5622 75.0062 50.4439C74.9885 50.3255 75.0139 50.2047 75.0777 50.1034C75.1415 50.0021 75.2396 49.9271 75.354 49.892L78.301 48.992L76.245 44.4C76.1908 44.279 76.1868 44.1413 76.2341 44.0173C76.2813 43.8934 76.3759 43.7933 76.497 43.739C76.6181 43.6848 76.7557 43.6809 76.8797 43.7281C77.0036 43.7754 77.1037 43.87 77.158 43.991L79.447 49.101C79.4759 49.1657 79.4907 49.2358 79.4905 49.3066C79.4902 49.3774 79.475 49.4474 79.4457 49.5119C79.4164 49.5764 79.3737 49.6339 79.3205 49.6806C79.2672 49.7274 79.2047 49.7623 79.137 49.783L75.648 50.851C75.5999 50.8647 75.55 50.8711 75.5 50.87Z" fill="black"/>
</g>
<path d="M103.315 218.375C123.265 306.263 141.33 394.741 155.586 483.742L135.546 487.864C113.515 400.464 95.188 312.038 78.828 223.412L103.315 218.375Z" fill="#E98862"/>
<path d="M62.077 223.819C63.909 311.131 63.777 398.64 59.806 485.893H39.347C35.378 398.641 35.247 311.13 37.077 223.819H62.077Z" fill="#E98862"/>
<path d="M86.276 493.96C86.8407 493.957 87.3988 493.838 87.9155 493.61C88.4321 493.382 88.8961 493.049 89.2786 492.634C89.6611 492.218 89.9538 491.729 90.1385 491.195C90.3232 490.661 90.3958 490.095 90.352 489.532C90.2918 488.751 90.0094 488.004 89.5383 487.378C89.0672 486.752 88.4269 486.274 87.693 486L63.251 477.814C62.7774 477.657 62.2755 477.604 61.7796 477.659C61.2837 477.714 60.8055 477.876 60.378 478.133C57.018 480.464 52.9987 481.656 48.911 481.533C45.7269 481.307 42.6704 480.19 40.09 478.311C39.8633 478.125 39.5883 478.007 39.2972 477.971C39.0061 477.936 38.7108 477.984 38.4458 478.109C38.1809 478.235 37.9572 478.434 37.8008 478.682C37.6445 478.93 37.562 479.218 37.563 479.511V491.463C37.5629 491.816 37.6324 492.165 37.7676 492.491C37.9028 492.816 38.1011 493.112 38.351 493.361C38.6008 493.61 38.8974 493.807 39.2236 493.941C39.5499 494.075 39.8994 494.143 40.252 494.141L86.276 493.96Z" fill="#C1D8ED"/>
<path d="M180.009 493.96C180.574 493.957 181.132 493.838 181.649 493.61C182.165 493.382 182.629 493.05 183.012 492.634C183.394 492.219 183.687 491.729 183.872 491.195C184.056 490.661 184.129 490.095 184.085 489.532C184.025 488.751 183.743 488.004 183.272 487.378C182.801 486.752 182.161 486.274 181.427 486L156.984 477.814C156.511 477.657 156.009 477.604 155.513 477.659C155.017 477.714 154.539 477.876 154.112 478.133C150.752 480.464 146.732 481.656 142.644 481.533C139.46 481.307 136.404 480.19 133.824 478.311C133.597 478.125 133.322 478.007 133.031 477.972C132.74 477.936 132.445 477.984 132.18 478.11C131.915 478.235 131.691 478.434 131.534 478.682C131.378 478.93 131.295 479.218 131.296 479.511V491.463C131.296 491.816 131.366 492.165 131.501 492.49C131.636 492.816 131.834 493.112 132.084 493.361C132.334 493.609 132.631 493.806 132.957 493.94C133.283 494.074 133.632 494.142 133.985 494.141L180.009 493.96Z" fill="#C1D8ED"/>
<path d="M24.4 186.123C24.4 186.123 13.04 236.994 13.04 279.777C13.04 322.56 0 388.821 0 388.821C0 388.821 36.967 382.841 62.044 388.821C105.253 399.123 144 376.689 144 376.689L100.48 190.819L24.4 186.123Z" fill="#262626"/>
<path d="M221.05 138.491C221.05 138.491 229.259 134.502 235.424 136.033C241.589 137.564 238.701 140.217 234.214 141.161C229.727 142.105 219.871 143.64 219.871 143.64" fill="#E98862"/>
<path d="M225.845 138.3C225.845 138.3 241.063 136.7 241.221 140.362C241.221 140.362 241.888 151.657 239.821 153.404C236.7 156.04 221.242 153.976 221.242 153.976L225.845 138.3Z" fill="#E98862"/>
<path d="M185.615 156.968H126.136C124.375 156.968 122.642 156.525 121.097 155.68C119.553 154.835 118.245 153.615 117.295 152.132L79.713 93.464L97.4 82.137L131.884 135.968H185.619L185.615 156.968Z" fill="#367CFF"/>
<path d="M105.3 192.757C101.11 202.387 18.78 206.387 17.68 189.447C16.98 178.666 26.48 169.257 26.48 148.247C26.48 127.237 7.15201 100.406 22.9 84.656C27.47 80.087 35.36 77.137 44.98 77.127C45.7 82.736 79.76 82.757 80.02 77.257C81.32 77.277 82.33 77.296 82.96 77.327C116.14 78.757 101.56 116.517 101.24 144.257C100.852 176.717 109.622 182.837 105.3 192.757Z" fill="#367CFF"/>
<path d="M80.022 77.257C79.762 82.757 76.772 90.846 67.542 91.457C55.242 92.267 45.702 82.736 44.982 77.127H45.012C57.122 77.127 72.962 77.147 80.022 77.257Z" fill="#E98862"/>
<path d="M176.882 206.468C210.019 206.468 236.882 179.605 236.882 146.468C236.882 113.331 210.019 86.468 176.882 86.468C143.745 86.468 116.882 113.331 116.882 146.468C116.882 179.605 143.745 206.468 176.882 206.468Z" fill="#0CBC8B"/>
<g opacity="0.29">
<path d="M176.882 185.364C198.364 185.364 215.778 167.95 215.778 146.468C215.778 124.986 198.364 107.572 176.882 107.572C155.4 107.572 137.986 124.986 137.986 146.468C137.986 167.95 155.4 185.364 176.882 185.364Z" fill="white"/>
</g>
<path d="M164.151 160.362L167.779 154.735C170.655 156.935 173.17 158.063 175.846 158.063C179.052 158.063 180.463 156.733 180.463 154.158C180.463 148.337 165.529 148.442 165.529 138.233C165.529 131.67 170.075 127.49 177.244 127.49C179.28 127.461 181.298 127.875 183.158 128.704C185.018 129.533 186.675 130.756 188.014 132.29L183.852 137.057C181.796 135.187 180.052 134.202 177.69 134.202C174.968 134.202 173.49 135.302 173.49 137.841C173.49 143.241 188.424 142.765 188.424 153.579C188.424 160.079 184.124 164.779 175.844 164.779C171.557 164.681 167.432 163.123 164.151 160.362ZM174.101 121.945H179.62V130.093H174.1L174.101 121.945ZM174.101 161.378H179.62V170.318H174.1L174.101 161.378Z" fill="white"/>
<path d="M239.816 153.412C239.536 153.635 239.222 153.813 238.887 153.94C237.093 154.31 232.572 153.228 231.847 151.974C230.667 149.933 231.399 142.559 232.44 139.883C233.417 137.383 238.283 138.43 238.922 138.549C238.942 138.556 238.962 138.561 238.983 138.565C240.31 138.929 241.183 139.497 241.22 140.37C241.22 140.37 241.89 151.66 239.816 153.412Z" fill="#E98862"/>
<path d="M107.336 160.229C107.336 160.229 109.745 147.075 119.051 149.364C124.922 150.809 141.985 148.231 142.244 155.77C142.469 162.312 126.444 164.056 121.144 163.511C116.387 163.022 107.336 160.229 107.336 160.229Z" fill="#E98862"/>
<path d="M115.643 149.219C115.643 149.219 129.486 147.177 132.578 148.492C135.316 149.655 128.578 153.292 128.578 153.292L115.643 149.219Z" fill="#E98862"/>
<path d="M120.071 167.534L58.191 165.646C56.2596 165.587 54.3786 165.016 52.7405 163.991C51.1025 162.966 49.7664 161.524 48.869 159.813L18.317 101.558L37.627 91.431L65.221 144.046L120.736 145.74L120.071 167.534Z" fill="#367CFF"/>
<path d="M470.941 485.469L491.795 482.989C490.855 475.096 489.795 465.615 489.722 464.06C489.722 464.16 489.722 464.242 489.722 464.305H468.722C468.726 464.935 468.726 466.851 470.941 485.469Z" fill="#E98862"/>
<path d="M554.617 487.979L575.617 487.911C575.617 487.911 575.547 466.226 575.547 464.305H554.547C554.547 466.232 554.617 487.979 554.617 487.979Z" fill="#E98862"/>
<path d="M463.194 478.207C464.931 434.199 465.037 387.976 465.581 343.851C472.8 296.257 476.6 244.058 485.515 196.8L485.782 196.878L486.564 191.549L562.64 186.849L565.317 236.549C569.146 303.129 576.55 410.164 581.029 477.637L544.16 480.76C537.575 414.401 527.838 308.686 521.888 243.282C515.358 276.608 508.201 314.138 502.403 347.86C501.134 390.938 500.073 435.829 500.188 478.838L463.194 478.207Z" fill="#262626"/>
<path d="M529.088 496.1C528.523 496.097 527.965 495.978 527.448 495.75C526.932 495.522 526.468 495.19 526.085 494.775C525.703 494.359 525.41 493.87 525.225 493.336C525.041 492.802 524.968 492.236 525.012 491.673C525.073 490.893 525.355 490.146 525.826 489.52C526.298 488.895 526.938 488.418 527.671 488.144L552.113 479.957C552.586 479.8 553.088 479.748 553.584 479.803C554.08 479.858 554.558 480.02 554.985 480.277C558.345 482.608 562.365 483.8 566.453 483.677C569.637 483.451 572.694 482.334 575.274 480.455C575.501 480.269 575.776 480.151 576.067 480.115C576.358 480.08 576.653 480.128 576.918 480.253C577.183 480.379 577.407 480.578 577.563 480.826C577.719 481.074 577.802 481.362 577.801 481.655V493.61C577.801 493.963 577.731 494.312 577.596 494.637C577.461 494.963 577.263 495.259 577.013 495.508C576.763 495.756 576.466 495.953 576.14 496.087C575.814 496.221 575.465 496.289 575.112 496.288L529.088 496.1Z" fill="#C1D8ED"/>
<path d="M445.355 496.1C444.79 496.097 444.232 495.978 443.715 495.75C443.199 495.522 442.734 495.19 442.352 494.775C441.969 494.359 441.676 493.87 441.492 493.336C441.307 492.802 441.234 492.236 441.278 491.673C441.339 490.893 441.622 490.146 442.093 489.521C442.564 488.896 443.204 488.418 443.937 488.144L468.38 479.957C468.853 479.8 469.355 479.748 469.851 479.803C470.347 479.858 470.825 480.02 471.252 480.277C474.612 482.608 478.632 483.8 482.72 483.677C485.904 483.45 488.96 482.334 491.54 480.455C491.767 480.269 492.042 480.151 492.333 480.115C492.624 480.08 492.919 480.128 493.184 480.253C493.449 480.379 493.673 480.578 493.829 480.826C493.985 481.074 494.068 481.362 494.067 481.655V493.61C494.067 493.962 493.997 494.312 493.862 494.637C493.727 494.963 493.529 495.258 493.279 495.507C493.029 495.756 492.733 495.953 492.407 496.087C492.081 496.221 491.732 496.289 491.379 496.288L445.355 496.1Z" fill="#C1D8ED"/>
<path d="M533.416 259.434V324.39C533.416 327.007 534.455 329.516 536.306 331.367C538.156 333.217 540.665 334.257 543.282 334.257H645.577C648.194 334.257 650.703 333.217 652.553 331.367C654.404 329.516 655.443 327.007 655.443 324.39V259.434C655.443 256.817 654.404 254.308 652.553 252.458C650.703 250.607 648.194 249.568 645.577 249.568H618.54V242.713C618.537 240.268 617.564 237.924 615.835 236.195C614.106 234.466 611.762 233.493 609.317 233.49H579.541C577.096 233.493 574.752 234.466 573.023 236.195C571.294 237.924 570.321 240.268 570.318 242.713V249.568H543.282C540.665 249.568 538.156 250.607 536.306 252.458C534.455 254.308 533.416 256.817 533.416 259.434ZM612.54 249.568H576.318V242.713C576.319 241.859 576.659 241.039 577.263 240.435C577.867 239.831 578.687 239.491 579.541 239.49H609.317C610.171 239.491 610.991 239.831 611.595 240.435C612.199 241.039 612.539 241.859 612.54 242.713V249.568Z" fill="#0CBC8B"/>
<path d="M395.4 165.516C392.5 166.195 382.439 166.936 382.324 169.562C382.254 171.137 389.892 171.188 389.892 171.188" fill="#E98862"/>
<path d="M389.728 184.837C401.722 182.027 410.647 176.344 409.663 172.143C408.679 167.941 398.158 166.813 386.165 169.622C374.171 172.432 365.246 178.115 366.23 182.316C367.214 186.517 377.735 187.646 389.728 184.837Z" fill="#E98862"/>
<path d="M584.98 220.892C584.98 223.872 583.406 233.835 585.937 234.547C587.454 234.973 589.247 227.547 589.247 227.547" fill="#E98862"/>
<path d="M596.927 219.328C596.927 219.328 605.486 228.55 599.668 239.49C598.861 241.007 590.996 241.898 590.996 240.039C590.996 232.239 590.39 226.121 585.253 227.991V215.427" fill="#E98862"/>
<path d="M447.6 143.356L484.838 87.7089L485.058 87.8559C488.258 82.9749 493.753 79.8559 502.832 79.4679C503.461 79.4379 504.471 79.4179 505.772 79.3979C506.031 84.8979 540.091 84.8779 540.812 79.2679C550.431 79.2779 558.321 82.2279 562.892 86.7979C565.017 88.9019 566.647 91.4526 567.664 94.2649L567.785 94.2109L591.957 148.635C592.377 149.58 592.66 150.581 592.798 151.606L602.189 221.435L580.58 224.341L571.4 156.059L561.875 134.613C560.348 139.74 559.488 145.042 559.315 150.388C559.315 171.398 568.815 180.808 568.115 191.588C567.015 208.528 484.685 204.528 480.496 194.898C476.175 184.978 484.945 178.858 484.555 146.398C484.398 140.701 483.946 135.017 483.201 129.367L463.728 158.467C462.431 160.405 460.547 161.877 458.353 162.667L397.396 184.567L390.025 164.045L447.6 143.356Z" fill="#367CFF"/>
<path d="M505.775 79.4C506.034 84.9 509.025 92.99 518.255 93.6C530.555 94.41 540.094 84.88 540.815 79.27H540.784C528.675 79.268 512.835 79.288 505.775 79.4Z" fill="#E98862"/>
<path d="M532.333 66.2899C532.295 64.034 532.375 61.7776 532.572 59.5299C529.888 59.0299 519.461 57.1019 516.593 56.5699C517.147 58.5309 516.645 73.36 513.593 77.4799C512.833 78.9583 511.77 80.2599 510.473 81.2999H535.6C534.042 78.6199 532.442 73.9999 532.333 66.2899Z" fill="#E98862"/>
<path opacity="0.15" d="M513.58 77.494L526.852 67.34L516.428 67.232C516.126 70.8002 515.16 74.2807 513.58 77.494Z" fill="black"/>
<path d="M541.635 51.366C539.6 66.39 525.107 69.605 512.05 68.483C494.56 67.049 498.02 27.283 506.323 19.557C514.626 11.831 539 16.724 541.961 29.644C543.494 36.326 542.688 45.285 541.635 51.366Z" fill="#E98862"/>
<path d="M494.09 15.865C494.079 10.565 500.704 1.93597 518.218 13.875C527.824 14.05 533.395 14.561 540.462 19.834C555.993 30.439 542.496 63.71 533.153 66.061C532.197 66.63 531.965 66.167 531.633 65.104C530.59 61.1759 529.843 57.1749 529.4 53.135C528.829 48.935 525.055 46.265 525.511 41.235C525.671 39.477 528.502 33.035 519.739 32.962C500.611 34.239 491.947 31.283 494.09 15.865Z" fill="#0F1011"/>
<path d="M524.154 48.542C523.387 56.475 535.864 57.499 536.398 49.542C537.317 41.352 523.962 40.771 524.154 48.542Z" fill="#E98862"/>
<path d="M526.852 29.056L531.376 30.712C529.996 34.504 532.431 69.542 519.686 70.03C502.58 72.148 499.511 66.982 500.151 53.48C526.353 56.452 524.391 52.7 526.852 29.056Z" fill="#0F1011"/>
<path d="M515.173 44.878C515.154 45.2541 515.282 45.6228 515.53 45.9062C515.778 46.1895 516.127 46.3651 516.502 46.3958C516.877 46.4264 517.25 46.3098 517.541 46.0705C517.832 45.8313 518.018 45.4882 518.06 45.114C518.079 44.7379 517.951 44.3691 517.703 44.0858C517.455 43.8025 517.106 43.6269 516.731 43.5962C516.356 43.5655 515.983 43.6822 515.692 43.9214C515.401 44.1607 515.215 44.5038 515.173 44.878Z" fill="#0F1011"/>
<path d="M503.741 43.94C503.715 44.3198 503.84 44.6946 504.088 44.9831C504.337 45.2717 504.689 45.451 505.068 45.4821C505.448 45.5133 505.824 45.3938 506.116 45.1496C506.408 44.9053 506.592 44.5559 506.629 44.177C506.655 43.7971 506.53 43.4224 506.282 43.1338C506.033 42.8452 505.681 42.6659 505.302 42.6348C504.922 42.6037 504.546 42.7231 504.254 42.9674C503.962 43.2116 503.778 43.561 503.741 43.94Z" fill="#0F1011"/>
<path d="M502.675 40.971C502.675 40.971 506.517 40.922 506.521 40.923C506.697 40.9144 506.863 40.8378 506.984 40.7093C507.105 40.5809 507.171 40.4106 507.169 40.2343C507.167 40.0579 507.096 39.8893 506.972 39.7639C506.848 39.6385 506.68 39.5661 506.504 39.562L502.666 39.61C502.49 39.6178 502.324 39.6935 502.203 39.8212C502.081 39.9489 502.014 40.1186 502.015 40.2948C502.016 40.4709 502.086 40.6398 502.209 40.7659C502.332 40.892 502.499 40.9655 502.675 40.971Z" fill="#0F1011"/>
<path d="M519.744 42.37C522.5 41.032 516.724 40.385 516.118 40.117C515.944 40.0793 515.762 40.1113 515.612 40.2059C515.461 40.3006 515.353 40.4505 515.312 40.6235C515.27 40.7966 515.298 40.979 515.389 41.1318C515.481 41.2845 515.628 41.3955 515.8 41.441C515.989 41.465 519.548 42.383 519.744 42.37Z" fill="#0F1011"/>
<g opacity="0.15">
<path d="M510.184 53.033C512.24 52.107 507.784 51.402 507.384 51.15L509.445 46.559C509.065 43.441 506.49 51.115 506.245 51.259C505.774 52.272 509.736 52.727 510.184 53.033Z" fill="black"/>
</g>
<path d="M515.946 56.408C515.946 56.408 510.597 56.972 506.846 55.662C506.691 60.26 515.363 60.954 515.946 56.408Z" fill="#F8FCFF"/>
<path d="M427.733 86.494C445.46 86.494 459.831 72.1232 459.831 54.396C459.831 36.6687 445.46 22.298 427.733 22.298C410.006 22.298 395.635 36.6687 395.635 54.396C395.635 72.1232 410.006 86.494 427.733 86.494Z" fill="#8DDBE0"/>
<path d="M423 67.557C422.448 67.5569 421.918 67.3462 421.516 66.968L411.025 57.068C410.818 56.8731 410.652 56.6395 410.536 56.3804C410.42 56.1213 410.356 55.8419 410.348 55.5581C410.339 55.2743 410.387 54.9916 410.488 54.7262C410.589 54.4609 410.742 54.218 410.936 54.0115C411.131 53.805 411.365 53.6389 411.624 53.5227C411.883 53.4065 412.163 53.3424 412.446 53.3342C412.73 53.326 413.013 53.3738 413.278 53.4748C413.544 53.5758 413.786 53.7281 413.993 53.923L422.881 62.31L441.363 41.943C441.753 41.5354 442.286 41.2961 442.85 41.2761C443.413 41.2562 443.962 41.4572 444.379 41.8363C444.797 42.2153 445.05 42.7425 445.084 43.3053C445.118 43.8681 444.931 44.4221 444.563 44.849L424.599 66.849C424.406 67.0618 424.172 67.234 423.911 67.3555C423.651 67.4771 423.368 67.5456 423.081 67.557H423Z" fill="white"/>
</g>
<defs>
<clipPath id="clip0_1_128">
<rect width="655.443" height="496.288" fill="white"/>
</clipPath>
</defs>
</svg>
