<svg width="480" height="485" viewBox="0 0 480 485" fill="none" xmlns="http://www.w3.org/2000/svg">
<g clip-path="url(#clip0_1_476)">
<path d="M391.161 30.967H284.726V164.984H391.161V30.967Z" fill="#F3F5FD"/>
<path d="M331.432 129.254H299.27C291.77 129.254 293.523 123.176 293.523 115.679V103.979C293.523 95.8474 295.673 87.8604 299.754 80.8274C303.836 73.7943 309.704 67.9653 316.764 63.931L316.958 63.82C318.218 63.1001 319.645 62.7237 321.096 62.7286C322.547 62.7334 323.971 63.1192 325.226 63.8475C326.481 64.5757 327.523 65.6208 328.247 66.8782C328.971 68.1355 329.352 69.561 329.352 71.012V115.674C329.352 123.174 331.102 129.249 323.605 129.249L331.432 129.254Z" fill="#D7E8F4"/>
<path d="M342.032 129.254H374.194C381.694 129.254 379.941 123.176 379.941 115.679V103.979C379.94 95.8483 377.79 87.8623 373.709 80.8302C369.627 73.7981 363.76 67.9699 356.7 63.936L356.506 63.825C355.246 63.1051 353.82 62.7287 352.369 62.7336C350.918 62.7384 349.493 63.1242 348.238 63.8525C346.983 64.5807 345.942 65.6258 345.218 66.8832C344.493 68.1405 344.112 69.566 344.112 71.017V115.679C344.112 123.179 342.362 129.254 349.86 129.254H342.032Z" fill="#D7E8F4"/>
<path d="M356.862 96.206C356.297 96.7695 355.532 97.086 354.734 97.086C353.936 97.086 353.171 96.7695 352.606 96.206L341.051 84.651C339.905 83.5067 338.352 82.8641 336.732 82.8641C335.113 82.8641 333.559 83.5067 332.413 84.651L320.857 96.206C320.578 96.4855 320.246 96.7073 319.881 96.8586C319.516 97.0099 319.124 97.0877 318.729 97.0878C318.334 97.0878 317.942 97.01 317.577 96.8588C317.212 96.7076 316.88 96.4859 316.601 96.2065C316.321 95.927 316.099 95.5953 315.948 95.2301C315.797 94.865 315.719 94.4736 315.719 94.0783C315.719 93.6831 315.797 93.2917 315.948 92.9265C316.099 92.5613 316.321 92.2295 316.6 91.95L331.932 76.618C332.501 76.0522 332.953 75.379 333.26 74.6374C333.567 73.8958 333.724 73.1006 333.721 72.298V56.648C333.714 56.2482 333.786 55.8509 333.934 55.4794C334.082 55.1079 334.303 54.7696 334.583 54.4842C334.863 54.1989 335.197 53.9722 335.566 53.8175C335.935 53.6628 336.331 53.5831 336.731 53.5831C337.13 53.5831 337.526 53.6628 337.895 53.8175C338.264 53.9722 338.598 54.1989 338.878 54.4842C339.158 54.7696 339.379 55.1079 339.527 55.4794C339.675 55.8509 339.747 56.2482 339.74 56.648V72.3C339.738 73.1022 339.895 73.8969 340.202 74.6381C340.509 75.3792 340.96 76.0522 341.529 76.618L356.862 91.95C357.142 92.2293 357.364 92.5611 357.515 92.9262C357.666 93.2913 357.744 93.6827 357.744 94.078C357.744 94.4733 357.666 94.8646 357.515 95.2298C357.364 95.5949 357.142 95.9266 356.862 96.206Z" fill="#D7E8F4"/>
<path d="M119.188 99.644H35.209V205.386H119.188V99.644Z" fill="#F3F5FD"/>
<path d="M66.329 175.232C70.507 175.232 73.894 172.981 73.894 170.204C73.894 167.427 70.507 165.176 66.329 165.176C62.1509 165.176 58.764 167.427 58.764 170.204C58.764 172.981 62.1509 175.232 66.329 175.232Z" fill="#C1D8ED"/>
<path d="M49.571 178.709C42.128 176.101 35.476 130.784 55.171 126.551C74.866 122.318 103.818 118.405 109.297 120.751C114.776 123.097 109.825 144.896 90.26 156.309C69.684 168.312 58.623 181.882 49.571 178.709Z" fill="#D7E8F4"/>
<path d="M83.997 483.329L425.342 483.329V290.328H83.997V483.329Z" fill="#F3F5FD"/>
<path d="M83.997 290.329H7.08301V483.33H83.997V290.329Z" fill="#C1D8ED"/>
<path d="M75.313 290.329L434.026 290.329V276.859L75.313 276.859V290.329Z" fill="#C1D8ED"/>
<path d="M-1.52588e-05 290.329H75.313V276.859H-1.52588e-05V290.329Z" fill="#C1D8ED"/>
<path opacity="0.08" d="M-1.52588e-05 290.329H75.313V276.859H-1.52588e-05V290.329Z" fill="black"/>
<path d="M83.997 433.625L425.342 433.625V340.033L83.997 340.033V433.625Z" fill="#DEE8F5"/>
<path d="M254.669 425.978C276.29 425.978 293.818 408.45 293.818 386.829C293.818 365.208 276.29 347.68 254.669 347.68C233.048 347.68 215.52 365.208 215.52 386.829C215.52 408.45 233.048 425.978 254.669 425.978Z" fill="#FAFAFA"/>
<path d="M226.178 381.493V392.166H249.333V415.32H260.006V392.166H283.16V381.493H260.006V358.338H249.333V381.493H226.178Z" fill="#FD5D76"/>
<path opacity="0.04" d="M380.118 207.036C380.118 207.036 416.172 219.405 461.618 212.118L460.471 200.527L380.118 207.036Z" fill="black"/>
<path d="M177.338 474.022L156.484 471.541C157.423 463.649 158.484 454.168 158.556 452.614C158.551 452.714 158.556 452.795 158.556 452.859H179.556C179.552 453.489 179.552 455.4 177.338 474.022Z" fill="#E98862"/>
<path d="M93.662 476.532L72.662 476.463C72.662 476.463 72.732 454.779 72.732 452.863H93.732C93.732 454.785 93.662 476.532 93.662 476.532Z" fill="#E98862"/>
<path d="M171.876 326.289C165.025 280.957 161.385 230.379 152.764 185.354L152.497 185.433L151.715 180.103L75.638 175.403L67.2 467.03L104.172 468.481L117.717 233C122.004 254.334 125.245 275.953 129.201 297.322C139.723 353.257 143.408 412.165 148.166 468.779L185.009 465.37C179.582 419.415 176.436 372.327 171.876 326.289Z" fill="#262626"/>
<path opacity="0.04" d="M74.379 218.924C74.379 218.924 156.484 214.788 156.484 205.909C156.484 185.478 74.839 203.266 74.839 203.266L74.379 218.924Z" fill="black"/>
<path d="M119.19 484.654C119.755 484.651 120.313 484.532 120.83 484.304C121.346 484.076 121.811 483.744 122.193 483.329C122.576 482.913 122.869 482.424 123.053 481.89C123.238 481.356 123.311 480.79 123.267 480.227C123.206 479.447 122.923 478.7 122.452 478.075C121.981 477.45 121.341 476.972 120.608 476.698L96.165 468.511C95.6915 468.354 95.1897 468.302 94.694 468.357C94.1983 468.412 93.7204 468.574 93.293 468.831C89.9326 471.162 85.913 472.354 81.825 472.231C78.641 472.005 75.5848 470.888 73.005 469.008C72.7782 468.822 72.5033 468.705 72.2123 468.669C71.9213 468.634 71.6262 468.682 71.3614 468.808C71.0966 468.933 70.873 469.132 70.7166 469.38C70.5602 469.628 70.4775 469.915 70.478 470.208V482.16C70.478 482.513 70.5476 482.862 70.6828 483.187C70.818 483.513 71.0162 483.808 71.2659 484.057C71.5157 484.306 71.8121 484.503 72.1381 484.637C72.4642 484.771 72.8135 484.839 73.166 484.838L119.19 484.654Z" fill="#C1D8ED"/>
<path d="M202.924 484.654C203.489 484.651 204.047 484.532 204.564 484.304C205.08 484.076 205.544 483.744 205.927 483.329C206.309 482.913 206.602 482.424 206.787 481.89C206.971 481.356 207.044 480.79 207 480.227C206.939 479.447 206.657 478.7 206.186 478.075C205.715 477.449 205.075 476.972 204.342 476.698L179.9 468.511C179.427 468.354 178.925 468.302 178.429 468.357C177.933 468.412 177.455 468.574 177.028 468.831C173.668 471.162 169.648 472.354 165.56 472.231C162.376 472.005 159.32 470.888 156.74 469.008C156.513 468.822 156.238 468.704 155.947 468.669C155.656 468.633 155.361 468.681 155.096 468.807C154.831 468.932 154.607 469.131 154.45 469.379C154.294 469.627 154.211 469.915 154.212 470.208V482.16C154.212 482.513 154.282 482.862 154.417 483.187C154.552 483.513 154.75 483.809 155 484.058C155.25 484.306 155.547 484.503 155.873 484.637C156.199 484.771 156.548 484.839 156.901 484.838L202.924 484.654Z" fill="#C1D8ED"/>
<path d="M106.483 55.016C106.493 54.836 106.493 54.656 106.493 54.476C106.493 52.656 106.423 50.676 106.243 48.516L108.503 48.096L122.213 45.556C121.943 49.107 121.999 52.6754 122.382 56.216C122.423 56.616 122.472 57.026 122.533 57.436C122.536 57.4729 122.542 57.5094 122.552 57.545C122.632 58.0857 122.722 58.626 122.822 59.166C122.882 59.516 122.952 59.866 123.033 60.216C123.112 60.666 123.222 61.106 123.342 61.545C123.462 61.984 123.583 62.416 123.722 62.845C123.861 63.274 123.993 63.695 124.153 64.105C124.445 64.9147 124.799 65.7005 125.213 66.455V66.465C125.97 67.9451 127.034 69.247 128.333 70.284H103.213C104.783 67.576 106.4 62.886 106.483 55.016Z" fill="#E98862"/>
<path opacity="0.15" d="M125.23 66.48L111.957 56.326L122.381 56.218C122.683 59.7863 123.649 63.2668 125.23 66.48Z" fill="black"/>
<path d="M97.1751 40.352C98.2811 46.74 101.767 52.79 107.402 54.852C114.092 57.302 119.047 57.468 126.76 57.468C137.285 57.468 136.937 46.491 137.232 35.43C137.532 24.324 136.646 12.411 132.486 8.54103C124.183 0.818027 99.8131 5.71003 96.8491 18.63C95.3161 25.312 96.1221 34.271 97.1751 40.352Z" fill="#E98862"/>
<path d="M142.874 14.963C142.874 14.963 147.184 14 146 9.70001C145.218 6.84901 141.565 7.48201 141.565 7.48201C141.565 7.48201 145.023 6.84901 145.023 3.83001C145.023 1.93001 143.562 -1.29399 139.152 0.548005C133.978 2.70901 128.078 2.43101 123.592 1.67701C121.055 1.12206 118.48 0.75903 115.888 0.591005H115.875C112.894 0.538872 109.923 0.936338 107.061 1.77001C99.041 4.17001 86.903 11.36 89.483 27.663C92.364 45.857 100.901 52.815 104.658 55.047C104.88 55.1809 105.13 55.2626 105.388 55.2858C105.647 55.309 105.907 55.2731 106.149 55.1809C106.392 55.0887 106.61 54.9426 106.788 54.7536C106.966 54.5646 107.098 54.3377 107.175 54.09C108.241 50.68 110.075 42.1 109.563 24.408C134.215 23.199 141.308 22.832 141.308 22.832C141.308 22.832 147.108 23.05 147.108 18.81C147.108 14.57 142.874 14.963 142.874 14.963Z" fill="#0F1011"/>
<path d="M122.193 35.431C122.993 35.431 123.642 34.7823 123.642 33.982C123.642 33.1818 122.993 32.533 122.193 32.533C121.393 32.533 120.744 33.1818 120.744 33.982C120.744 34.7823 121.393 35.431 122.193 35.431Z" fill="#0F1011"/>
<path d="M133.625 34.494C134.425 34.494 135.074 33.8453 135.074 33.045C135.074 32.2447 134.425 31.596 133.625 31.596C132.825 31.596 132.176 32.2447 132.176 33.045C132.176 33.8453 132.825 34.494 133.625 34.494Z" fill="#0F1011"/>
<path d="M136.135 29.957H136.127L132.288 29.909C132.112 29.9012 131.946 29.8255 131.825 29.6978C131.703 29.5701 131.636 29.4004 131.637 29.2242C131.638 29.048 131.708 28.8792 131.831 28.7531C131.954 28.627 132.121 28.5535 132.297 28.548H132.305L136.144 28.596C136.32 28.6038 136.486 28.6796 136.608 28.8073C136.729 28.935 136.796 29.1047 136.795 29.2809C136.794 29.457 136.724 29.6259 136.601 29.752C136.478 29.878 136.311 29.9516 136.135 29.957Z" fill="#0F1011"/>
<path d="M119.065 31.356C118.898 31.3566 118.737 31.2958 118.612 31.185C118.487 31.0743 118.407 30.9214 118.387 30.7555C118.368 30.5896 118.41 30.4224 118.506 30.2856C118.602 30.1489 118.744 30.0522 118.907 30.014L122.691 29.102C122.867 29.0598 123.052 29.0892 123.206 29.1836C123.36 29.278 123.47 29.4298 123.513 29.6055C123.555 29.7812 123.525 29.9665 123.431 30.1205C123.337 30.2746 123.185 30.3848 123.009 30.427L119.225 31.338C119.173 31.3499 119.119 31.356 119.065 31.356Z" fill="#0F1011"/>
<path d="M114.655 37.528C114.733 38.3383 114.649 39.156 114.408 39.9335C114.167 40.711 113.774 41.4329 113.251 42.0572C112.729 42.6814 112.087 43.1956 111.364 43.5699C110.642 43.9442 109.851 44.171 109.04 44.2373C108.229 44.3035 107.412 44.2079 106.638 43.9559C105.864 43.7039 105.148 43.3006 104.531 42.7693C103.915 42.2381 103.409 41.5896 103.045 40.8615C102.681 40.1334 102.466 39.3402 102.411 38.528C102.331 37.7213 102.414 36.9068 102.656 36.133C102.897 35.3592 103.292 34.6418 103.816 34.0237C104.34 33.4055 104.984 32.8992 105.708 32.5349C106.432 32.1705 107.222 31.9556 108.031 31.903C112.409 31.765 114.378 34.146 114.655 37.528Z" fill="#E98862"/>
<g opacity="0.15">
<path d="M128.625 42.019C128.505 42.0191 128.389 41.9762 128.299 41.8981C128.208 41.8199 128.148 41.7118 128.13 41.5933C128.112 41.4749 128.138 41.354 128.202 41.2526C128.265 41.1513 128.363 41.0762 128.478 41.041L131.425 40.141L129.364 35.551C129.336 35.491 129.32 35.426 129.318 35.3599C129.315 35.2938 129.326 35.2278 129.349 35.1658C129.372 35.1037 129.407 35.0469 129.452 34.9986C129.498 34.9503 129.552 34.9114 129.612 34.8843C129.673 34.8572 129.738 34.8423 129.804 34.8405C129.87 34.8387 129.936 34.8501 129.998 34.874C130.06 34.8979 130.116 34.9338 130.164 34.9796C130.211 35.0255 130.25 35.0803 130.276 35.141L132.569 40.248C132.598 40.3127 132.613 40.3828 132.613 40.4537C132.613 40.5246 132.598 40.5946 132.569 40.6592C132.539 40.7238 132.497 40.7814 132.444 40.8283C132.39 40.8752 132.328 40.9102 132.26 40.931L128.772 42C128.724 42.0136 128.675 42.02 128.625 42.019Z" fill="black"/>
</g>
<path d="M122.863 45.394C122.863 45.394 128.212 45.958 131.963 44.648C131.963 44.648 131.933 48.17 127.701 48.517C123.469 48.864 122.863 45.394 122.863 45.394Z" fill="#F8FCFF"/>
<path d="M159.052 204.049C154.86 213.678 70.305 217.2 69.205 200.26C68.505 189.48 78.964 159.951 78.964 138.941C78.964 117.931 59.634 91.101 75.384 75.351C79.954 70.781 87.844 67.831 97.464 67.821C98.184 73.431 132.244 73.451 132.504 67.951C133.804 67.971 134.814 67.991 135.444 68.021C168.624 69.451 154.044 107.211 153.724 134.951C153.334 167.411 163.37 194.128 159.052 204.049Z" fill="#262626"/>
<path d="M132.5 67.951C132.24 73.451 129.25 81.541 120.02 82.151C107.72 82.961 98.18 73.431 97.46 67.821H100.97C105.407 67.821 109.635 74.999 114.164 75.01C119.656 75.023 125.345 67.875 129.236 67.91C130.464 67.923 131.562 67.936 132.5 67.951Z" fill="#367CFF"/>
<path d="M129.374 67.926C129.163 72.386 126.738 78.945 119.255 79.44C109.282 80.097 101.547 72.37 100.963 67.821H100.987C106.348 67.821 112.609 67.821 118.122 67.845C122.707 67.86 126.774 67.886 129.374 67.926Z" fill="#E98862"/>
<path d="M121.333 152.34C121.333 152.34 142.988 154.315 151.256 141.905C151.467 141.589 151.577 141.216 151.572 140.837C151.568 140.457 151.449 140.087 151.231 139.776C151.013 139.465 150.706 139.227 150.35 139.093C149.995 138.959 149.607 138.936 149.238 139.026C141.657 140.882 125.901 144.092 126.175 138.633L114.168 142.333L121.333 152.34Z" fill="#E98862"/>
<path d="M62.894 160.075C61.2085 160.075 59.546 159.684 58.037 158.934C56.5281 158.183 55.2138 157.092 54.1975 155.747C53.1812 154.403 52.4906 152.841 52.1799 151.184C51.8693 149.528 51.947 147.821 52.407 146.2L61.462 114.235L82.44 120.178L77.785 136.61L121.942 131.874L124.267 153.554L64.058 160.011C63.6714 160.053 63.2829 160.075 62.894 160.075Z" fill="#367CFF"/>
<path d="M167.625 156.515C167.078 156.515 166.532 156.474 165.992 156.392L98.192 146.129L101.455 124.571L151.04 132.071L144.919 115.407L165.387 107.889L177.861 141.849C178.467 143.497 178.666 145.266 178.441 147.007C178.215 148.748 177.573 150.409 176.569 151.849C175.564 153.288 174.226 154.464 172.67 155.275C171.113 156.087 169.383 156.51 167.628 156.51L167.625 156.515Z" fill="#367CFF"/>
<path d="M100.974 127.3C100.974 127.3 89.517 126.49 85.082 135.764L100.182 134.395L100.974 127.3Z" fill="#E98862"/>
<path d="M69.9644 84.2161L61.4614 114.235L82.4401 120.177L90.9431 90.1584L69.9644 84.2161Z" fill="#262626"/>
<path d="M154.679 78.5593L134.205 86.0816L144.984 115.421L165.458 107.898L154.679 78.5593Z" fill="#262626"/>
<path d="M98.1397 67.747L95.9963 67.8512L97.1903 92.4132L99.3337 92.309L98.1397 67.747Z" fill="white"/>
<path d="M132.351 83.488L131.451 67.865L129.244 67.912L129.929 83.512C127.392 83.8301 125.057 85.0627 123.364 86.9787C121.67 88.8948 120.733 91.3627 120.729 93.92V106.478H123.152V93.921C123.152 91.7796 124.003 89.726 125.517 88.2118C127.031 86.6976 129.085 85.847 131.226 85.847C133.367 85.847 135.421 86.6976 136.935 88.2118C138.449 89.726 139.3 91.7796 139.3 93.921V106.479H141.722V93.921C141.719 91.3333 140.761 88.8377 139.032 86.9126C137.302 84.9874 134.924 83.768 132.351 83.488Z" fill="white"/>
<path d="M98.189 98.919C100.783 98.919 102.885 96.8165 102.885 94.223C102.885 91.6295 100.783 89.527 98.189 89.527C95.5955 89.527 93.493 91.6295 93.493 94.223C93.493 96.8165 95.5955 98.919 98.189 98.919Z" fill="white"/>
<path d="M121.911 108.558C123.059 108.558 123.99 107.627 123.99 106.479C123.99 105.331 123.059 104.4 121.911 104.4C120.763 104.4 119.832 105.331 119.832 106.479C119.832 107.627 120.763 108.558 121.911 108.558Z" fill="white"/>
<path d="M140.437 108.558C141.585 108.558 142.516 107.627 142.516 106.479C142.516 105.331 141.585 104.4 140.437 104.4C139.289 104.4 138.358 105.331 138.358 106.479C138.358 107.627 139.289 108.558 140.437 108.558Z" fill="white"/>
<path d="M357.618 474.022C355.405 455.404 355.405 453.489 355.405 452.859H376.405C376.405 452.795 376.405 452.713 376.405 452.614C376.479 454.168 377.538 463.649 378.477 471.541L357.618 474.022Z" fill="#E98862"/>
<path d="M441.294 476.532C441.294 476.532 441.224 454.785 441.224 452.859H462.224C462.224 454.779 462.294 476.459 462.294 476.459L441.294 476.532Z" fill="#E98862"/>
<path d="M430.838 469.313L467.707 466.198C463.215 397.483 449.318 175.408 449.318 175.408L373.241 180.108L372.46 185.438L372.193 185.359C363.273 232.645 359.477 284.871 352.246 332.493C351.736 376.593 351.597 422.786 349.871 466.765L386.871 467.395C386.754 424.467 387.82 379.55 389.083 336.495C395.394 302.159 400.337 266.224 407.598 231.552C413.934 302.959 424.155 401.111 430.838 469.313Z" fill="#262626"/>
<path d="M415.766 484.654C415.201 484.651 414.643 484.532 414.126 484.304C413.61 484.076 413.146 483.744 412.763 483.329C412.381 482.913 412.088 482.424 411.903 481.89C411.719 481.356 411.646 480.79 411.69 480.227C411.751 479.447 412.033 478.7 412.504 478.075C412.975 477.449 413.615 476.972 414.348 476.698L438.791 468.511C439.264 468.354 439.766 468.302 440.262 468.357C440.758 468.412 441.236 468.574 441.663 468.831C445.023 471.162 449.043 472.354 453.131 472.231C456.315 472.005 459.371 470.888 461.951 469.008C462.178 468.822 462.453 468.704 462.744 468.669C463.035 468.633 463.33 468.681 463.595 468.807C463.86 468.932 464.084 469.131 464.241 469.379C464.397 469.627 464.48 469.915 464.479 470.208V482.16C464.479 482.513 464.409 482.862 464.274 483.187C464.139 483.513 463.941 483.809 463.691 484.058C463.441 484.306 463.144 484.503 462.818 484.637C462.492 484.771 462.143 484.839 461.79 484.838L415.766 484.654Z" fill="#C1D8ED"/>
<path d="M332.032 484.654C331.467 484.651 330.909 484.532 330.393 484.304C329.876 484.076 329.412 483.744 329.029 483.329C328.647 482.913 328.354 482.423 328.17 481.89C327.985 481.356 327.912 480.79 327.956 480.227C328.017 479.447 328.299 478.7 328.77 478.074C329.242 477.449 329.882 476.972 330.615 476.698L355.057 468.511C355.531 468.354 356.033 468.302 356.528 468.357C357.024 468.412 357.502 468.574 357.93 468.831C361.29 471.162 365.309 472.354 369.397 472.231C372.581 472.005 375.638 470.888 378.218 469.008C378.445 468.822 378.72 468.705 379.011 468.669C379.302 468.634 379.597 468.682 379.862 468.808C380.126 468.933 380.35 469.132 380.506 469.38C380.663 469.628 380.746 469.915 380.745 470.208V482.16C380.745 482.513 380.675 482.862 380.54 483.187C380.405 483.513 380.207 483.809 379.957 484.058C379.707 484.306 379.41 484.503 379.084 484.637C378.758 484.771 378.409 484.84 378.056 484.838L332.032 484.654Z" fill="#C1D8ED"/>
<path d="M283.209 75.138C280.374 78.391 281.954 84.023 289.47 88.605C300.895 95.569 303.97 92.266 306.801 89.013C309.632 85.76 300.149 81.744 293.582 74.913C292.922 74.1835 292.112 73.6044 291.208 73.2151C290.305 72.8259 289.328 72.6354 288.344 72.6568C287.36 72.6781 286.393 72.9107 285.507 73.3388C284.621 73.7669 283.837 74.3805 283.209 75.138Z" fill="#E98862"/>
<path d="M251.904 114.54L291.772 111.198C294.33 110.984 296.23 108.736 296.016 106.178L291.283 49.7262C291.069 47.1682 288.821 45.2683 286.263 45.4828L246.395 48.825C243.837 49.0394 241.937 51.287 242.152 53.845L246.884 110.297C247.099 112.855 249.346 114.755 251.904 114.54Z" fill="#262626"/>
<path d="M252.723 110.248L290.249 107.102C291.451 107.001 292.343 105.945 292.242 104.744L287.797 51.713C287.696 50.5116 286.64 49.6193 285.439 49.72L247.913 52.8659C246.711 52.9667 245.819 54.0223 245.92 55.2237L250.365 108.255C250.466 109.456 251.522 110.348 252.723 110.248Z" fill="white"/>
<path d="M307.317 87.189C307.471 87.323 293.453 68.01 289.817 71.642C288.217 73.242 292.917 78.734 292.917 78.734" fill="#E98862"/>
<path d="M341.344 151.859C339.673 151.859 338.025 151.475 336.526 150.737C335.027 149.998 333.718 148.925 332.7 147.6L291.611 94.1L308.9 80.822L340.77 122.315L352.26 105.3L370.333 117.5L350.381 147.063C349.415 148.495 348.122 149.677 346.61 150.512C345.097 151.347 343.408 151.81 341.681 151.863C341.567 151.857 341.455 151.859 341.344 151.859Z" fill="#367CFF"/>
<path d="M365.905 204.049C370.096 213.678 454.651 217.2 455.751 200.26C456.451 189.48 445.992 159.951 445.992 138.941C445.992 117.931 465.323 91.101 449.573 75.351C445.002 70.781 437.112 67.831 427.492 67.821C426.772 73.431 417.232 82.961 404.932 82.151C395.702 81.541 392.712 73.451 392.452 67.951C391.152 67.971 390.142 67.991 389.512 68.021C356.332 69.451 370.912 107.211 371.232 134.951C371.622 167.411 361.586 194.128 365.905 204.049Z" fill="#262626"/>
<path d="M372.112 75.8846L352.261 105.296L370.334 117.494L390.184 88.0827L372.112 75.8846Z" fill="#262626"/>
<path d="M424.32 96.768L373.884 103.978L383.343 170.155L433.78 162.945L424.32 96.768Z" fill="white"/>
<path d="M418.132 97.6517L373.884 103.977L383.344 170.154L427.592 163.829L418.132 97.6517Z" fill="#D7E8F4"/>
<path d="M418.132 97.655L422.11 97.086L423.567 107.415L419.596 107.894L418.132 97.655Z" fill="#0CBC8B"/>
<path d="M420.849 117.422L424.828 116.853L423.567 107.415L419.596 107.894L420.849 117.422Z" fill="#262626"/>
<path d="M392.452 67.951C392.712 73.451 395.702 81.541 404.932 82.151C417.232 82.961 426.772 73.431 427.492 67.821H424.611C420.247 67.821 414.052 75 409.543 75.01C403.58 75.024 399.443 67.874 395.334 67.915C394.262 67.926 393.3 67.938 392.452 67.951Z" fill="#367CFF"/>
<path d="M395.334 67.93C395.551 72.525 398.049 79.284 405.761 79.794C416.038 80.471 424.009 72.508 424.611 67.821H424.586C414.468 67.821 401.233 67.838 395.334 67.93Z" fill="#E98862"/>
<path d="M405.157 133.314L405.646 133.179C402.798 132.301 393.74 127.864 392.315 130.073C391.773 130.913 394.215 132.785 396.072 134.045C391.281 135.2 381.293 133.108 375.719 131.745C375.35 131.655 374.963 131.679 374.607 131.813C374.252 131.947 373.945 132.185 373.727 132.496C373.509 132.806 373.39 133.176 373.385 133.556C373.38 133.935 373.49 134.308 373.7 134.624C381.968 147.035 403.623 145.059 403.623 145.059L410.788 135.051L405.157 133.314Z" fill="#E98862"/>
<path d="M468.675 152.515C468.518 152.515 468.36 152.515 468.201 152.505L401.379 149.605L402.325 127.821L451.569 129.956L447.969 121.845L467.894 113L478.638 137.191C479.376 138.851 479.687 140.669 479.544 142.479C479.401 144.29 478.807 146.036 477.817 147.559C476.827 149.082 475.472 150.334 473.876 151.2C472.279 152.066 470.491 152.52 468.675 152.519V152.515Z" fill="#367CFF"/>
<path d="M397.519 70L398.299 70.09H422.948C420.948 66.77 418.788 60.26 419.788 48.09L403.809 45.13C403.809 45.13 405.609 64.011 397.519 70Z" fill="#E98862"/>
<path opacity="0.15" d="M400.8 66.057L414.067 55.9001L403.643 55.8C403.342 59.3663 402.378 62.8449 400.8 66.057Z" fill="black"/>
<path d="M428.85 39.929C427.744 46.318 424.258 52.367 418.622 54.429C412.479 56.8665 405.834 57.7642 399.265 57.044C381.775 55.61 385.235 15.844 393.538 8.11799C401.841 0.391992 426.211 5.28499 429.176 18.205C430.709 24.889 429.9 33.848 428.85 39.929Z" fill="#E98862"/>
<path d="M387.77 9.49302C388.292 8.66466 389.023 7.98857 389.889 7.53302C397.656 3.31002 412.049 1.84902 418.962 3.91702C426.982 6.31702 437.039 13.04 434.462 29.342C434.354 30.029 434.236 30.69 434.115 31.342C436.648 30.9091 439.251 31.1817 441.639 32.1298C444.028 33.078 446.109 34.6652 447.655 36.7175C449.202 38.7699 450.153 41.2082 450.406 43.7654C450.658 46.3226 450.202 48.9 449.088 51.2152C447.973 53.5305 446.243 55.4943 444.086 56.8915C441.929 58.2887 439.43 59.0654 436.861 59.1365C434.293 59.2077 431.754 58.5705 429.523 57.2948C427.293 56.0191 425.456 54.154 424.215 51.904C423.025 52.932 421.74 53.8438 420.377 54.627C419.42 55.196 419.188 54.733 418.856 53.671C417.697 49.96 416.556 35.283 417.467 24.625L398.62 23.974L395.337 14.631L392.645 23.974H386.227C385.366 18.908 384.478 13.17 387.77 9.49302Z" fill="#0F1011"/>
<path d="M403.831 35.008C404.631 35.008 405.28 34.3593 405.28 33.559C405.28 32.7588 404.631 32.11 403.831 32.11C403.031 32.11 402.382 32.7588 402.382 33.559C402.382 34.3593 403.031 35.008 403.831 35.008Z" fill="#0F1011"/>
<path d="M392.4 34.071C393.2 34.071 393.849 33.4223 393.849 32.622C393.849 31.8218 393.2 31.173 392.4 31.173C391.6 31.173 390.951 31.8218 390.951 32.622C390.951 33.4223 391.6 34.071 392.4 34.071Z" fill="#0F1011"/>
<path d="M389.889 29.534H389.898L393.737 29.486C393.918 29.4848 394.09 29.412 394.217 29.2834C394.344 29.1548 394.415 28.9812 394.414 28.8005C394.412 28.6199 394.339 28.4472 394.211 28.3203C394.082 28.1934 393.909 28.1228 393.728 28.124H393.719L389.88 28.173C389.704 28.1809 389.538 28.2566 389.417 28.3843C389.295 28.512 389.228 28.6817 389.229 28.8579C389.23 29.034 389.3 29.2029 389.423 29.329C389.546 29.4551 389.713 29.5286 389.889 29.534Z" fill="#0F1011"/>
<path d="M406.959 30.9341C407.126 30.9336 407.286 30.8722 407.411 30.7614C407.535 30.6506 407.614 30.498 407.634 30.3326C407.653 30.1672 407.611 30.0004 407.516 29.8638C407.421 29.7271 407.279 29.6301 407.117 29.5911L403.333 28.6801C403.244 28.6509 403.149 28.6406 403.056 28.6497C402.962 28.6588 402.872 28.6872 402.79 28.733C402.708 28.7788 402.636 28.8411 402.579 28.916C402.523 28.9908 402.482 29.0766 402.46 29.168C402.438 29.2593 402.435 29.3542 402.451 29.4467C402.468 29.5392 402.503 29.6273 402.555 29.7055C402.608 29.7836 402.675 29.8501 402.754 29.9008C402.834 29.9515 402.922 29.9853 403.015 30.0001L406.799 30.9111C406.851 30.9246 406.905 30.9323 406.959 30.9341Z" fill="#0F1011"/>
<path d="M411.369 37.1C411.26 38.7105 411.79 40.2991 412.843 41.5221C413.897 42.7452 415.389 43.5046 416.998 43.6359C418.607 43.7673 420.203 43.2602 421.441 42.2243C422.678 41.1883 423.459 39.7068 423.613 38.1C423.693 37.2934 423.61 36.4789 423.369 35.7051C423.127 34.9312 422.733 34.2139 422.208 33.5958C421.684 32.9777 421.04 32.4715 420.316 32.1073C419.592 31.7431 418.802 31.5284 417.993 31.476C413.615 31.342 411.646 33.724 411.369 37.1Z" fill="#E98862"/>
<g opacity="0.15">
<path d="M397.4 41.6C397.52 41.6001 397.636 41.5572 397.726 41.4791C397.817 41.4009 397.877 41.2928 397.895 41.1744C397.913 41.0559 397.887 40.935 397.823 40.8336C397.76 40.7323 397.662 40.6572 397.547 40.622L394.6 39.717L396.662 35.126C396.716 35.005 396.72 34.8673 396.673 34.7433C396.626 34.6194 396.531 34.5193 396.41 34.465C396.289 34.4108 396.151 34.4069 396.027 34.4541C395.903 34.5014 395.803 34.596 395.749 34.717L393.456 39.824C393.427 39.8887 393.412 39.9588 393.412 40.0297C393.412 40.1006 393.427 40.1706 393.456 40.2352C393.486 40.2998 393.528 40.3575 393.581 40.4043C393.635 40.4512 393.697 40.4862 393.765 40.507L397.253 41.578C397.301 41.5925 397.35 41.5999 397.4 41.6Z" fill="black"/>
</g>
<path d="M403.161 44.971C403.161 44.971 397.812 45.535 394.061 44.225C394.061 44.225 394.091 47.748 398.323 48.095C402.555 48.442 403.161 44.971 403.161 44.971Z" fill="#F8FCFF"/>
<path d="M250.264 60.8C250.021 60.8006 249.787 60.707 249.612 60.5389C249.436 60.3708 249.333 60.1413 249.323 59.8986C249.313 59.6558 249.397 59.4186 249.558 59.2367C249.72 59.0549 249.945 58.9424 250.187 58.923L279.861 56.468C279.984 56.4579 280.108 56.472 280.225 56.5097C280.343 56.5474 280.452 56.6079 280.546 56.6877C280.64 56.7675 280.718 56.8651 280.775 56.9749C280.831 57.0847 280.865 57.2045 280.876 57.3275C280.886 57.4506 280.872 57.5744 280.834 57.692C280.796 57.8096 280.736 57.9186 280.656 58.0128C280.576 58.107 280.478 58.1846 280.369 58.2411C280.259 58.2976 280.139 58.3319 280.016 58.342L250.343 60.796C250.317 60.7988 250.29 60.8002 250.264 60.8Z" fill="#D7E8F4"/>
<path d="M250.791 67.3C250.548 67.3011 250.314 67.2079 250.138 67.04C249.962 66.8721 249.858 66.6425 249.848 66.3996C249.838 66.1566 249.922 65.9192 250.083 65.7371C250.244 65.555 250.47 65.4424 250.712 65.423L266.652 64.067C266.776 64.0547 266.901 64.0672 267.02 64.1036C267.139 64.1401 267.25 64.1999 267.346 64.2794C267.441 64.359 267.52 64.4569 267.578 64.5672C267.636 64.6776 267.671 64.7984 267.681 64.9224C267.692 65.0465 267.678 65.1715 267.64 65.29C267.602 65.4086 267.54 65.5184 267.46 65.6131C267.379 65.7077 267.28 65.7854 267.169 65.8415C267.057 65.8977 266.936 65.9312 266.812 65.94L250.871 67.3H250.791Z" fill="#D7E8F4"/>
<path d="M251.408 71.8301C251.165 71.8309 250.931 71.7374 250.755 71.5695C250.58 71.4015 250.476 71.172 250.466 70.9291C250.456 70.6862 250.54 70.4489 250.701 70.2669C250.862 70.0849 251.088 69.9725 251.33 69.9531L263.358 68.9291C263.606 68.9079 263.853 68.9862 264.044 69.1469C264.235 69.3077 264.354 69.5376 264.375 69.7861C264.396 70.0346 264.318 70.2813 264.157 70.4721C263.996 70.6628 263.767 70.7819 263.518 70.8031L251.489 71.8271C251.462 71.8291 251.435 71.8301 251.408 71.8301Z" fill="#D7E8F4"/>
<path d="M251.705 76.5601C251.462 76.5608 251.228 76.4674 251.052 76.2994C250.877 76.1315 250.773 75.9019 250.763 75.6591C250.753 75.4162 250.837 75.1789 250.998 74.9969C251.159 74.8149 251.385 74.7024 251.627 74.6831L263.655 73.6601C263.779 73.6478 263.904 73.6602 264.023 73.6966C264.142 73.7331 264.253 73.7929 264.349 73.8725C264.444 73.952 264.523 74.0499 264.581 74.1602C264.639 74.2706 264.674 74.3914 264.684 74.5154C264.695 74.6395 264.681 74.7645 264.643 74.883C264.605 75.0016 264.543 75.1114 264.463 75.2061C264.382 75.3008 264.283 75.3784 264.172 75.4346C264.06 75.4907 263.939 75.5242 263.815 75.5331L251.786 76.5561C251.759 76.5589 251.732 76.5602 251.705 76.5601Z" fill="#D7E8F4"/>
<path d="M252.407 85.788C252.164 85.7891 251.93 85.6959 251.754 85.528C251.578 85.3601 251.474 85.1305 251.464 84.8876C251.453 84.6446 251.538 84.4072 251.699 84.2251C251.86 84.043 252.086 83.9304 252.328 83.911L261.336 83.144C261.584 83.1228 261.831 83.2012 262.022 83.3619C262.213 83.5226 262.332 83.7525 262.353 84.001C262.374 84.2495 262.296 84.4963 262.135 84.687C261.974 84.8778 261.744 84.9968 261.496 85.018L252.488 85.785C252.461 85.787 252.434 85.788 252.407 85.788Z" fill="#D7E8F4"/>
<path d="M251.966 81.4001C251.723 81.4011 251.489 81.3079 251.313 81.14C251.137 80.9721 251.033 80.7425 251.023 80.4996C251.013 80.2566 251.097 80.0192 251.258 79.8371C251.419 79.655 251.645 79.5424 251.887 79.5231L266.237 78.3021C266.486 78.2808 266.732 78.3592 266.923 78.5199C267.114 78.6806 267.233 78.9105 267.254 79.1591C267.275 79.4076 267.197 79.6543 267.036 79.845C266.875 80.0358 266.646 80.1548 266.397 80.1761L252.047 81.4001H251.966Z" fill="#D7E8F4"/>
<path d="M281.082 64.446C280.839 64.4479 280.604 64.3553 280.427 64.1876C280.251 64.0199 280.146 63.7903 280.136 63.5471C280.125 63.3038 280.209 63.066 280.37 62.8835C280.532 62.7011 280.757 62.5884 281 62.569L285.33 62.201C285.576 62.1843 285.819 62.2649 286.006 62.4254C286.193 62.586 286.31 62.8136 286.331 63.0593C286.351 63.305 286.275 63.5491 286.117 63.7389C285.96 63.9287 285.734 64.0491 285.489 64.074L281.159 64.443L281.082 64.446Z" fill="#D7E8F4"/>
<path d="M281.7 68.9751C281.457 68.9758 281.223 68.8824 281.047 68.7144C280.872 68.5465 280.768 68.317 280.758 68.0741C280.748 67.8312 280.832 67.5939 280.993 67.4119C281.154 67.2299 281.38 67.1174 281.622 67.0981L285.334 66.7821C285.583 66.761 285.829 66.8395 286.02 67.0003C286.21 67.1611 286.329 67.3911 286.35 67.6396C286.372 67.8881 286.293 68.1348 286.132 68.3254C285.971 68.516 285.742 68.635 285.493 68.6561L281.781 68.9721C281.754 68.9741 281.727 68.9751 281.7 68.9751Z" fill="#D7E8F4"/>
<path d="M282 73.7051C281.757 73.7059 281.523 73.6124 281.347 73.4445C281.172 73.2765 281.068 73.047 281.058 72.8041C281.048 72.5612 281.132 72.3239 281.293 72.1419C281.454 71.9599 281.68 71.8475 281.922 71.8281L285.902 71.4891C286.151 71.4679 286.397 71.5462 286.588 71.7069C286.779 71.8677 286.898 72.0976 286.919 72.3461C286.94 72.5946 286.862 72.8413 286.701 73.0321C286.54 73.2228 286.311 73.3419 286.062 73.3631L282.081 73.7021C282.052 73.7007 282.025 73.7017 282 73.7051Z" fill="#D7E8F4"/>
<path d="M282.7 82.9331C282.457 82.9341 282.223 82.8409 282.047 82.673C281.871 82.5051 281.767 82.2755 281.757 82.0326C281.747 81.7896 281.831 81.5522 281.992 81.3701C282.153 81.188 282.379 81.0754 282.621 81.0561L286.478 80.7281C286.602 80.7157 286.727 80.7282 286.846 80.7646C286.965 80.8011 287.076 80.8609 287.172 80.9405C287.267 81.02 287.346 81.1179 287.404 81.2282C287.462 81.3386 287.497 81.4594 287.508 81.5834C287.518 81.7075 287.504 81.8325 287.466 81.951C287.428 82.0696 287.366 82.1794 287.286 82.2741C287.205 82.3688 287.106 82.4464 286.995 82.5025C286.883 82.5587 286.762 82.5922 286.638 82.6011L282.781 82.9291C282.754 82.9319 282.727 82.9332 282.7 82.9331Z" fill="#D7E8F4"/>
<path d="M282.257 78.546C282.014 78.5471 281.78 78.4539 281.604 78.286C281.428 78.1181 281.324 77.8885 281.314 77.6456C281.304 77.4026 281.388 77.1652 281.549 76.9831C281.71 76.801 281.936 76.6884 282.178 76.669L285.899 76.353C286.023 76.3401 286.149 76.3522 286.269 76.3884C286.388 76.4246 286.499 76.4843 286.596 76.564C286.692 76.6437 286.771 76.7418 286.829 76.8526C286.887 76.9633 286.922 77.0845 286.933 77.209C286.943 77.3335 286.929 77.4589 286.89 77.5778C286.852 77.6967 286.79 77.8067 286.708 77.9014C286.627 77.9961 286.527 78.0735 286.415 78.1293C286.304 78.185 286.182 78.2179 286.057 78.226L282.337 78.543L282.257 78.546Z" fill="#D7E8F4"/>
<path d="M271.943 99.733C271.7 99.7341 271.466 99.6409 271.29 99.473C271.114 99.305 271.01 99.0755 271 98.8326C270.99 98.5896 271.074 98.3522 271.235 98.1701C271.396 97.988 271.622 97.8754 271.864 97.856L287.8 96.5C287.923 96.4895 288.047 96.5033 288.165 96.5407C288.282 96.5781 288.392 96.6383 288.486 96.7179C288.58 96.7975 288.658 96.8949 288.715 97.0045C288.772 97.1142 288.806 97.234 288.817 97.357C288.827 97.4801 288.814 97.604 288.776 97.7217C288.739 97.8394 288.679 97.9486 288.599 98.043C288.52 98.1375 288.422 98.2153 288.312 98.2721C288.203 98.3289 288.083 98.3635 287.96 98.374L272.023 99.73L271.943 99.733Z" fill="#D7E8F4"/>
<path d="M275.875 103.48C275.632 103.481 275.398 103.388 275.222 103.22C275.046 103.052 274.942 102.823 274.932 102.58C274.922 102.337 275.006 102.099 275.167 101.917C275.328 101.735 275.554 101.622 275.796 101.603L287.825 100.579C288.073 100.558 288.32 100.636 288.511 100.797C288.701 100.958 288.82 101.188 288.841 101.437C288.863 101.685 288.784 101.932 288.623 102.122C288.462 102.313 288.232 102.432 287.984 102.453L275.956 103.477C275.929 103.479 275.902 103.48 275.875 103.48Z" fill="#D7E8F4"/>
<path d="M255.66 42.7826L276.124 41.067C276.694 41.0193 277.259 41.1998 277.696 41.569C278.133 41.9381 278.405 42.4656 278.453 43.0354L278.881 48.1485L254.12 50.2242L253.691 45.1112C253.644 44.5414 253.824 43.9759 254.193 43.5392C254.563 43.1025 255.09 42.8304 255.66 42.7826Z" fill="#262626"/>
<path d="M454.467 82.7634L434.539 91.6142L447.967 121.847L467.895 112.997L454.467 82.7634Z" fill="#262626"/>
</g>
<defs>
<clipPath id="clip0_1_476">
<rect width="479.576" height="484.841" fill="white"/>
</clipPath>
</defs>
</svg>
