<svg width="780" height="523" viewBox="0 0 780 523" fill="none" xmlns="http://www.w3.org/2000/svg">
<g clip-path="url(#clip0_1_3)">
<path d="M615.084 0H459.893V201.999H615.084V0Z" fill="#F4F4F4"/>
<path d="M615.084 201.999H620.118V3.05176e-05H615.084V201.999Z" fill="#F4F4F4"/>
<path opacity="0.05" d="M615.084 201.999H620.118V3.05176e-05H615.084V201.999Z" fill="#292A2E"/>
<path opacity="0.05" d="M586.814 36.797H488.163V165.203H586.814V36.797Z" fill="#292A2E"/>
<path opacity="0.03" d="M586.813 36.797H581.672V165.203H586.813V36.797Z" fill="#292A2E"/>
<path d="M742.004 251.674H615.083V379.76H742.004V251.674Z" fill="#F4F4F4"/>
<path opacity="0.05" d="M718.884 275.007H638.204V356.428H718.884V275.007Z" fill="#292A2E"/>
<path d="M742.005 379.76H747.039V251.674H742.005V379.76Z" fill="#F4F4F4"/>
<path opacity="0.05" d="M742.005 379.76H747.039V251.674H742.005V379.76Z" fill="#292A2E"/>
<path opacity="0.03" d="M718.883 275.007H713.742V356.428H718.883V275.007Z" fill="#292A2E"/>
<path d="M343.266 18.753H18.026V343.993H343.266V18.753Z" fill="#F4F4F4"/>
<path d="M18.027 18.753H14.299V343.993H18.027V18.753Z" fill="#F4F4F4"/>
<path opacity="0.05" d="M18.027 18.753H14.299V343.993H18.027V18.753Z" fill="#292A2E"/>
<path opacity="0.05" d="M96.817 242.87V157.777H166.521V207.214H274.493V294.749H320.383V343.993H274.493H265.653H33.672V242.87H96.817Z" fill="#292A2E"/>
<path opacity="0.34" d="M157.574 167.016H106.815V176.255H157.574V167.016Z" fill="#FFFFFA"/>
<path opacity="0.34" d="M157.574 186.162H106.815V195.401H157.574V186.162Z" fill="#FFFFFA"/>
<path opacity="0.34" d="M157.574 205.307H106.815V214.546H157.574V205.307Z" fill="#FFFFFA"/>
<path opacity="0.34" d="M52.029 251.839H42.673V261.078H52.029V251.839Z" fill="#FFFFFA"/>
<path opacity="0.34" d="M52.029 270.984H42.673V280.223H52.029V270.984Z" fill="#FFFFFA"/>
<path opacity="0.34" d="M52.029 290.13H42.673V299.369H52.029V290.13Z" fill="#FFFFFA"/>
<path opacity="0.34" d="M69.337 251.839H59.981V261.078H69.337V251.839Z" fill="#FFFFFA"/>
<path opacity="0.34" d="M69.337 270.984H59.981V280.223H69.337V270.984Z" fill="#FFFFFA"/>
<path opacity="0.34" d="M69.337 290.13H59.981V299.369H69.337V290.13Z" fill="#FFFFFA"/>
<path opacity="0.34" d="M86.177 251.839H76.821V261.078H86.177V251.839Z" fill="#FFFFFA"/>
<path opacity="0.34" d="M86.177 270.984H76.821V280.223H86.177V270.984Z" fill="#FFFFFA"/>
<path opacity="0.34" d="M86.177 290.13H76.821V299.369H86.177V290.13Z" fill="#FFFFFA"/>
<path d="M18.026 179.549H83.47V18.753H88.882V179.549H265.653V18.753H271.065V179.549H343.267V184.961H271.065V343.993H265.653V184.961H88.882V343.993H83.47V184.961H18.026V179.549Z" fill="white"/>
<path d="M356.223 343.601H5.07V354.417H356.223V343.601Z" fill="#F4F4F4"/>
<path opacity="0.1" d="M356.223 343.601H5.07V354.417H356.223V343.601Z" fill="#292A2E"/>
<path opacity="0.1" d="M5.07 343.601H0V354.417H5.07V343.601Z" fill="#292A2E"/>
<path opacity="0.1" d="M5.07 343.601H0V354.417H5.07V343.601Z" fill="#292A2E"/>
<path d="M237.343 179.585C237.343 179.585 251.432 167.385 253.382 141.36C254.891 121.206 237.343 135.373 237.343 135.373C237.343 135.373 238.288 120.851 227.901 122.981C217.514 125.111 212.649 140.627 212.649 140.627" fill="#0C0C0C"/>
<path d="M173.805 128.3C173.805 128.3 122.142 137.365 145.678 206.617H159.692" fill="#0C0C0C"/>
<path d="M231.989 278.613C231.759 278.583 229.215 320.803 180.167 317.122C146.212 314.578 134.105 278.553 133.327 278.553C136.988 277.775 143.153 276.644 144.779 275.776C150.125 272.903 156.741 269.913 158.464 259.53C159.458 253.546 157.773 222.93 158.291 216.874L210.412 228.508C209.684 241.296 204.587 270.942 222.452 276.189C225.425 277.057 228.627 277.855 231.989 278.613Z" fill="#E98862"/>
<path opacity="0.52" d="M211.143 264.073C210.327 261.442 209.801 258.729 209.575 255.984C209.002 249.719 209.116 243.409 209.916 237.169C199.322 235.739 189.342 231.366 181.109 224.548C180.142 228.122 174.819 243.74 176.293 247.137C179.078 253.558 192.169 264.073 211.143 264.073Z" fill="#0C0C0C"/>
<path d="M201.892 253.872C181.252 253.407 155.828 242.09 153.608 214.264L151.608 189.156C149.388 161.331 162.208 137.607 188.402 135.517C214.602 133.426 235.984 154.417 238.202 182.246L239.089 193.362C239.327 197.184 239.304 201.017 239.021 204.836C238.346 214.936 237.281 230.29 231.178 241.036C225.415 251.186 215.078 254.17 201.892 253.872Z" fill="#E98862"/>
<path d="M230.429 199.314C232.217 199.314 233.666 197.865 233.666 196.077C233.666 194.289 232.217 192.84 230.429 192.84C228.641 192.84 227.192 194.289 227.192 196.077C227.192 197.865 228.641 199.314 230.429 199.314Z" fill="#0C0C0C"/>
<path d="M200.705 199.517C202.493 199.517 203.942 198.068 203.942 196.28C203.942 194.492 202.493 193.043 200.705 193.043C198.917 193.043 197.468 194.492 197.468 196.28C197.468 198.068 198.917 199.517 200.705 199.517Z" fill="#0C0C0C"/>
<path d="M155.911 222.611C147.949 223.247 140.811 215.244 140.18 207.282C139.549 199.32 145.649 194.414 153.611 193.782L158.139 198.789L162.757 222.068L155.911 222.611Z" fill="#E98862"/>
<path d="M162.981 209.275C162.981 209.275 163.031 169.688 174.817 166.454C182.667 164.3 202.723 174.295 220.37 169.688C228.091 167.672 235.645 169.11 236.648 172.754C237.048 174.197 240.508 152.854 227.192 137.72C216.592 125.672 184.441 124.22 170.203 129.362C130.779 143.587 152.084 195.625 152.084 195.625L154.784 209.091L162.981 209.275Z" fill="#0C0C0C"/>
<g opacity="0.52">
<path d="M214.42 218.825H214.471C217.037 218.625 221.32 218.009 221.171 216.089C221.046 214.498 215.371 197.664 214.72 195.75C214.66 195.591 214.54 195.462 214.387 195.39C214.233 195.317 214.057 195.307 213.897 195.362C213.736 195.416 213.602 195.531 213.524 195.681C213.446 195.832 213.43 196.007 213.478 196.17C215.999 203.625 219.778 215.109 219.863 216.19C219.646 216.663 217.025 217.312 214.363 217.518C214.191 217.526 214.029 217.602 213.912 217.729C213.796 217.857 213.734 218.024 213.74 218.197C213.747 218.369 213.821 218.532 213.947 218.65C214.072 218.768 214.24 218.832 214.412 218.827L214.42 218.825Z" fill="#0C0C0C"/>
</g>
<path d="M220.16 179.345C222.776 178.428 225.591 178.232 228.309 178.779C229.646 179.04 230.936 179.499 232.136 180.143C233.324 180.774 234.427 181.552 235.421 182.459C235.584 182.601 235.685 182.8 235.704 183.015C235.723 183.231 235.657 183.445 235.521 183.612C235.385 183.78 235.189 183.888 234.975 183.914C234.76 183.94 234.544 183.882 234.372 183.752L234.319 183.712C233.398 182.96 232.386 182.326 231.307 181.825C230.244 181.326 229.112 180.991 227.949 180.831C225.651 180.497 223.305 180.776 221.149 181.64L221.067 181.674C220.915 181.746 220.75 181.786 220.582 181.792C220.413 181.798 220.246 181.771 220.089 181.711C219.931 181.651 219.788 181.559 219.667 181.443C219.546 181.326 219.45 181.186 219.384 181.031C219.318 180.876 219.285 180.709 219.285 180.541C219.285 180.373 219.319 180.206 219.385 180.052C219.452 179.897 219.548 179.757 219.67 179.641C219.791 179.524 219.935 179.434 220.092 179.374L220.16 179.345Z" fill="#0C0C0C"/>
<path d="M201.159 181.91C199.003 181.047 196.657 180.768 194.359 181.103C193.196 181.263 192.064 181.598 191.001 182.097C189.922 182.597 188.91 183.231 187.989 183.984L187.938 184.023C187.766 184.152 187.55 184.21 187.337 184.184C187.123 184.158 186.928 184.05 186.792 183.883C186.656 183.716 186.59 183.503 186.608 183.288C186.625 183.074 186.726 182.874 186.887 182.732C187.88 181.824 188.984 181.046 190.172 180.415C191.372 179.771 192.663 179.311 194 179.05C196.718 178.503 199.532 178.699 202.148 179.616C202.453 179.733 202.701 179.966 202.837 180.263C202.973 180.56 202.987 180.899 202.877 181.207C202.766 181.515 202.539 181.767 202.245 181.91C201.951 182.052 201.612 182.074 201.302 181.97L201.241 181.947L201.159 181.91Z" fill="#0C0C0C"/>
<path d="M217.563 225.344C210.098 226.206 202.558 224.556 196.135 220.654C195.912 220.52 195.656 220.452 195.396 220.458C195.136 220.464 194.883 220.544 194.667 220.689C194.451 220.834 194.28 221.037 194.175 221.275C194.071 221.513 194.036 221.776 194.075 222.033C194.79 226.433 197.375 234.462 206.705 235.046C212.731 235.423 216.849 230.609 218.889 227.446C219.031 227.227 219.108 226.971 219.109 226.71C219.111 226.448 219.037 226.192 218.898 225.971C218.759 225.75 218.559 225.573 218.322 225.462C218.086 225.351 217.822 225.31 217.563 225.344Z" fill="white"/>
<path d="M214.43 152.305C220.246 150.677 223.019 142.418 220.623 133.858C218.227 125.298 211.571 119.678 205.755 121.306C199.939 122.934 197.166 131.192 199.562 139.753C201.958 148.313 208.614 153.933 214.43 152.305Z" fill="#0C0C0C"/>
<path d="M179.193 306.594C145.101 304.987 143.666 276.05 143.666 276.05C143.666 276.05 126.774 277.142 115.545 278.661C97.161 281.148 85.033 287.382 75.382 297.034C66.403 306.012 60.937 315.726 66.722 377.744C70.91 422.65 67.962 521.424 67.962 521.424H273.712C273.712 521.424 286.051 391.959 287.77 371.744C291.053 333.155 293.718 299.538 285.706 291.526C269.235 275.055 236.906 276.05 222.748 276.052C222.518 276.052 225.621 308.782 179.193 306.594Z" fill="#367CFF"/>
<path d="M479.471 520.092L330.871 520.826C323.742 520.311 316.908 517.768 311.175 513.498C305.443 509.229 301.05 503.409 298.514 496.726L225.222 334.126C221.693 324.828 222.003 314.508 226.083 305.438C230.163 296.368 237.679 289.29 246.977 285.761C266.343 278.412 285.461 283.353 292.809 302.715L360.144 447.746L482.48 449.731C482.48 449.731 480.391 520.158 479.471 520.092Z" fill="#367CFF"/>
<path d="M284.861 380.766C284.869 380.633 284.93 380.51 285.03 380.422C285.129 380.334 285.26 380.289 285.393 380.298C285.525 380.306 285.649 380.367 285.737 380.466C285.825 380.566 285.869 380.696 285.861 380.829L281.678 447.657C281.67 447.777 281.62 447.891 281.535 447.976C281.451 448.062 281.338 448.115 281.218 448.124C281.194 448.126 281.171 448.126 281.147 448.124C281.081 448.12 281.017 448.103 280.958 448.074C280.899 448.045 280.846 448.005 280.803 447.956C280.759 447.906 280.726 447.849 280.705 447.787C280.684 447.724 280.675 447.659 280.679 447.593" fill="#0C0C0C"/>
<path d="M310.2 452.432L280.065 441.869L284.391 441.569C285.786 441.445 287.081 440.796 288.016 439.753C288.95 438.71 289.454 437.352 289.425 435.952C289.385 435.23 289.199 434.523 288.877 433.875C288.555 433.228 288.105 432.652 287.553 432.184C287.002 431.716 286.361 431.366 285.669 431.154C284.978 430.942 284.25 430.873 283.531 430.952L230.218 436.618L231.602 453.751C232.032 459.072 234.042 464.144 237.374 468.316C240.706 472.487 245.207 475.569 250.302 477.165L273.39 484.357C274.582 484.754 275.875 484.727 277.05 484.28C278.225 483.833 279.209 482.994 279.836 481.905C280.381 480.91 280.594 479.767 280.444 478.642C280.293 477.517 279.788 476.47 279 475.653C279.07 475.602 279.125 475.533 279.159 475.453C279.186 475.378 279.195 475.298 279.185 475.219C279.175 475.14 279.146 475.065 279.1 475L283.356 476.334C284.683 476.78 286.13 476.705 287.404 476.125C288.679 475.545 289.685 474.503 290.22 473.209C290.658 472.036 290.668 470.746 290.249 469.567C289.83 468.387 289.008 467.393 287.928 466.759C287.978 466.732 288.022 466.697 288.058 466.654L289.808 467.202C291 467.599 292.293 467.572 293.468 467.125C294.643 466.678 295.627 465.839 296.254 464.75C296.916 463.542 297.085 462.125 296.725 460.796C296.364 459.466 295.503 458.328 294.322 457.62C294.332 457.585 294.337 457.548 294.339 457.512L306.888 461.912C307.512 462.14 308.176 462.241 308.839 462.211C309.503 462.18 310.154 462.018 310.755 461.733C311.356 461.449 311.894 461.049 312.339 460.555C312.783 460.061 313.126 459.484 313.345 458.856C313.565 458.229 313.658 457.565 313.619 456.901C313.58 456.238 313.41 455.589 313.118 454.992C312.827 454.395 312.419 453.862 311.92 453.423C311.42 452.985 310.839 452.65 310.209 452.438L310.2 452.432Z" fill="#E98862"/>
<path opacity="0.2" d="M293.84 458C293.782 458 293.724 457.99 293.669 457.97L281.53 453.556C281.466 453.536 281.406 453.503 281.355 453.459C281.303 453.415 281.261 453.361 281.231 453.301C281.201 453.24 281.184 453.174 281.18 453.107C281.177 453.039 281.186 452.972 281.21 452.908C281.233 452.845 281.268 452.787 281.314 452.737C281.361 452.688 281.416 452.648 281.478 452.621C281.54 452.594 281.607 452.58 281.674 452.579C281.742 452.578 281.809 452.591 281.871 452.617L294.011 457.031C294.121 457.072 294.213 457.15 294.271 457.251C294.33 457.353 294.35 457.472 294.33 457.587C294.31 457.702 294.25 457.807 294.16 457.882C294.07 457.958 293.957 457.999 293.84 458Z" fill="#0A0A0A"/>
<path opacity="0.2" d="M287.7 466.824C287.643 466.824 287.587 466.814 287.533 466.795L277.965 463.395C277.844 463.348 277.747 463.255 277.693 463.137C277.639 463.019 277.633 462.885 277.676 462.762C277.72 462.64 277.809 462.539 277.925 462.482C278.041 462.424 278.175 462.414 278.299 462.453L287.867 465.848C287.978 465.887 288.071 465.965 288.131 466.067C288.19 466.168 288.212 466.288 288.192 466.404C288.172 466.52 288.112 466.625 288.022 466.701C287.932 466.777 287.818 466.819 287.7 466.819V466.824Z" fill="#0A0A0A"/>
<path opacity="0.2" d="M278.694 475.779C278.633 475.779 278.572 475.768 278.515 475.746L274.034 474.037C273.914 473.987 273.818 473.892 273.767 473.773C273.715 473.653 273.713 473.519 273.759 473.397C273.805 473.276 273.897 473.177 274.015 473.122C274.133 473.067 274.267 473.06 274.39 473.103L278.872 474.812C278.981 474.854 279.072 474.932 279.129 475.034C279.187 475.136 279.206 475.255 279.185 475.369C279.164 475.484 279.103 475.588 279.014 475.663C278.924 475.738 278.811 475.779 278.694 475.779Z" fill="#0A0A0A"/>
<path d="M252.557 489.729L65.719 520.7C59.959 521.327 54.1321 520.611 48.6955 518.607C43.2588 516.604 38.3603 513.368 34.3844 509.154C30.4084 504.939 27.4631 499.861 25.7795 494.317C24.0959 488.772 23.7199 482.914 24.681 477.2L64.522 317.6C66.172 307.792 71.6507 299.042 79.7526 293.273C87.8545 287.505 97.9162 285.191 107.724 286.841C117.532 288.491 126.283 293.97 132.051 302.072C137.819 310.174 140.133 320.235 138.483 330.043L107.928 441.278L243.691 422.732L252.557 489.729Z" fill="#367CFF"/>
<path d="M83.573 444.769C83.4474 444.768 83.3269 444.72 83.2353 444.634C83.1436 444.548 83.0877 444.431 83.0785 444.306C83.0693 444.18 83.1075 444.056 83.1856 443.958C83.2637 443.86 83.3759 443.794 83.5 443.775L106.788 440.288C106.853 440.277 106.92 440.28 106.984 440.295C107.048 440.311 107.108 440.339 107.161 440.378C107.214 440.417 107.259 440.467 107.292 440.523C107.326 440.58 107.348 440.643 107.357 440.708C107.376 440.839 107.343 440.973 107.264 441.079C107.185 441.186 107.067 441.256 106.936 441.276L83.648 444.763C83.6232 444.767 83.5981 444.769 83.573 444.769Z" fill="#0C0C0C"/>
<path d="M70.92 521.424C70.7874 521.432 70.6568 521.388 70.5571 521.3C70.4573 521.212 70.3965 521.089 70.388 520.956C70.3795 520.823 70.4241 520.693 70.5118 520.593C70.5996 520.493 70.7234 520.432 70.856 520.424L251.51 489.35L242.753 423.35L107.928 441.278C107.851 441.288 107.772 441.279 107.698 441.254C107.624 441.228 107.558 441.186 107.503 441.13C107.448 441.074 107.408 441.005 107.385 440.93C107.361 440.856 107.356 440.776 107.369 440.699L121.958 377.758C121.968 377.693 121.991 377.63 122.026 377.574C122.06 377.518 122.106 377.469 122.159 377.431C122.213 377.393 122.274 377.366 122.338 377.351C122.403 377.337 122.469 377.335 122.534 377.347C122.599 377.358 122.661 377.381 122.717 377.416C122.772 377.451 122.821 377.497 122.859 377.55C122.897 377.604 122.924 377.665 122.939 377.729C122.953 377.793 122.955 377.859 122.944 377.924L108.467 440.2L243.128 422.29C243.194 422.281 243.261 422.286 243.326 422.303C243.39 422.321 243.45 422.351 243.503 422.392C243.555 422.434 243.599 422.485 243.631 422.543C243.663 422.601 243.684 422.666 243.691 422.732L252.557 489.732C252.571 489.862 252.534 489.992 252.453 490.095C252.372 490.198 252.255 490.265 252.125 490.282L70.985 521.42C70.9635 521.423 70.9417 521.424 70.92 521.424Z" fill="#0C0C0C"/>
<path d="M396.161 503.145L445.085 352.756C445.945 350.113 447.619 347.81 449.867 346.177C452.116 344.544 454.824 343.664 457.603 343.664H656.921C658.999 343.664 661.047 344.156 662.898 345.099C664.749 346.043 666.351 347.411 667.572 349.092C668.793 350.774 669.598 352.72 669.923 354.772C670.247 356.824 670.081 358.924 669.438 360.9L620.515 511.289C619.655 513.931 617.982 516.234 615.734 517.867C613.486 519.5 610.779 520.38 608 520.38H408.679C406.601 520.38 404.553 519.888 402.702 518.945C400.851 518.002 399.249 516.634 398.028 514.952C396.807 513.271 396.001 511.325 395.677 509.273C395.352 507.221 395.518 505.121 396.161 503.145Z" fill="#292A2E"/>
<path d="M436.07 508.186H302.648C299.323 508.186 296.628 510.881 296.628 514.206V514.36C296.628 517.685 299.323 520.38 302.648 520.38H436.07C439.395 520.38 442.09 517.685 442.09 514.36V514.206C442.09 510.881 439.395 508.186 436.07 508.186Z" fill="#292A2E"/>
<path d="M532.8 460.264C544.346 460.264 553.705 450.905 553.705 439.359C553.705 427.814 544.346 418.454 532.8 418.454C521.255 418.454 511.895 427.814 511.895 439.359C511.895 450.905 521.255 460.264 532.8 460.264Z" fill="white"/>
<path d="M760.178 287.874H540.111L511.9 309.008V199.767C511.9 194.89 513.837 190.213 517.286 186.764C520.735 183.315 525.412 181.378 530.289 181.378H760.178C765.055 181.378 769.732 183.315 773.181 186.764C776.63 190.213 778.567 194.89 778.567 199.767V269.486C778.567 274.363 776.629 279.04 773.181 282.488C769.732 285.937 765.055 287.874 760.178 287.874Z" fill="white"/>
<path d="M511.9 309.508C511.822 309.508 511.746 309.49 511.676 309.455C511.593 309.413 511.523 309.35 511.475 309.271C511.426 309.192 511.4 309.101 511.4 309.008V199.767C511.406 194.759 513.398 189.958 516.939 186.417C520.48 182.876 525.281 180.884 530.289 180.878H760.178C765.186 180.884 769.987 182.876 773.528 186.417C777.069 189.958 779.061 194.759 779.067 199.767V269.485C779.061 274.493 777.069 279.294 773.528 282.835C769.987 286.376 765.186 288.368 760.178 288.374H540.278L512.2 309.408C512.113 309.473 512.008 309.508 511.9 309.508ZM530.289 181.878C525.546 181.883 520.999 183.77 517.645 187.123C514.292 190.477 512.405 195.024 512.4 199.767V308.009L539.817 287.474C539.904 287.409 540.009 287.374 540.117 287.374H760.178C764.921 287.369 769.468 285.482 772.822 282.129C776.175 278.775 778.062 274.228 778.067 269.485V199.767C778.062 195.024 776.175 190.477 772.822 187.123C769.468 183.77 764.921 181.883 760.178 181.878H530.289Z" fill="#292A2E"/>
<path d="M759.479 233.406H615.355C615.167 233.406 614.988 233.332 614.855 233.199C614.723 233.066 614.648 232.887 614.648 232.699C614.648 232.511 614.723 232.332 614.855 232.199C614.988 232.066 615.167 231.992 615.355 231.992H759.479C759.667 231.992 759.846 232.066 759.979 232.199C760.112 232.332 760.186 232.511 760.186 232.699C760.186 232.887 760.112 233.066 759.979 233.199C759.846 233.332 759.667 233.406 759.479 233.406Z" fill="#367CFF"/>
<path d="M759.479 251.08H615.355C615.262 251.08 615.17 251.062 615.084 251.026C614.999 250.991 614.921 250.939 614.855 250.873C614.789 250.807 614.737 250.729 614.702 250.644C614.666 250.558 614.648 250.466 614.648 250.373C614.648 250.28 614.666 250.188 614.702 250.102C614.737 250.017 614.789 249.939 614.855 249.873C614.921 249.807 614.999 249.755 615.084 249.72C615.17 249.684 615.262 249.666 615.355 249.666H759.479C759.572 249.666 759.664 249.684 759.75 249.72C759.835 249.755 759.913 249.807 759.979 249.873C760.045 249.939 760.097 250.017 760.132 250.102C760.168 250.188 760.186 250.28 760.186 250.373C760.186 250.466 760.168 250.558 760.132 250.644C760.097 250.729 760.045 250.807 759.979 250.873C759.913 250.939 759.835 250.991 759.75 251.026C759.664 251.062 759.572 251.08 759.479 251.08Z" fill="#367CFF"/>
<path d="M693.734 268.753H615.355C615.167 268.753 614.988 268.679 614.855 268.546C614.723 268.413 614.648 268.233 614.648 268.046C614.648 267.858 614.723 267.679 614.855 267.546C614.988 267.413 615.167 267.339 615.355 267.339H693.734C693.827 267.339 693.919 267.357 694.005 267.393C694.09 267.428 694.168 267.48 694.234 267.546C694.3 267.612 694.352 267.69 694.387 267.775C694.423 267.861 694.441 267.953 694.441 268.046C694.441 268.139 694.423 268.231 694.387 268.317C694.352 268.402 694.3 268.48 694.234 268.546C694.168 268.612 694.09 268.664 694.005 268.699C693.919 268.735 693.827 268.753 693.734 268.753Z" fill="#367CFF"/>
<path d="M563.689 273.2C583.287 273.2 599.175 257.312 599.175 237.714C599.175 218.116 583.287 202.228 563.689 202.228C544.091 202.228 528.203 218.116 528.203 237.714C528.203 257.312 544.091 273.2 563.689 273.2Z" fill="#292A2E"/>
<path d="M625.54 199.278L628.43 206.754L636.433 207.191L630.215 212.25L632.272 219.997L625.54 215.646L618.808 219.997L620.865 212.25L614.648 207.191L622.651 206.754L625.54 199.278Z" fill="#367CFF"/>
<path d="M654.15 199.278L657.04 206.754L665.043 207.191L658.825 212.25L660.882 219.997L654.15 215.646L647.418 219.997L649.475 212.25L643.258 207.191L651.261 206.754L654.15 199.278Z" fill="#367CFF"/>
<path d="M682.76 199.278L685.65 206.754L693.653 207.191L687.435 212.25L689.492 219.997L682.76 215.646L676.028 219.997L678.085 212.25L671.868 207.191L679.871 206.754L682.76 199.278Z" fill="#367CFF"/>
<path d="M711.37 199.278L714.26 206.754L722.263 207.191L716.046 212.25L718.102 219.997L711.37 215.646L704.638 219.997L706.695 212.25L700.478 207.191L708.481 206.754L711.37 199.278Z" fill="#367CFF"/>
<path d="M739.98 199.278L742.87 206.754L750.873 207.191L744.656 212.25L746.712 219.997L739.98 215.646L733.248 219.997L735.305 212.25L729.088 207.191L737.091 206.754L739.98 199.278Z" fill="#367CFF"/>
<path d="M458.93 122.122H379.47C373.886 122.122 369.359 126.649 369.359 132.233V190.387C369.359 195.971 373.886 200.498 379.47 200.498H458.93C464.514 200.498 469.041 195.971 469.041 190.387V132.233C469.041 126.649 464.514 122.122 458.93 122.122Z" fill="#292A2E"/>
<path d="M444.306 167.039H443.947C445.064 167.276 446.065 167.892 446.781 168.782C447.496 169.672 447.883 170.782 447.875 171.924C447.847 173.248 447.298 174.508 446.347 175.43C445.396 176.352 444.12 176.862 442.795 176.849H441.964C442.984 177.198 443.863 177.87 444.467 178.763C445.071 179.656 445.367 180.722 445.311 181.799C445.225 183.083 444.65 184.285 443.705 185.159C442.761 186.033 441.518 186.512 440.231 186.499H438.7L408.1 186.472L408.144 147.34C411.144 142.722 416.42 134.919 416.42 134.919C417.236 133.624 418.534 132.705 420.027 132.367C421.52 132.028 423.087 132.296 424.383 133.113C425.678 133.929 426.596 135.226 426.935 136.72C427.274 138.213 427.005 139.78 426.189 141.075L422.275 147.289L426.89 147.296H430.171L445.331 147.313C446.629 147.303 447.881 147.794 448.825 148.685C449.77 149.575 450.334 150.796 450.4 152.092C450.424 152.757 450.314 153.42 450.077 154.041C449.839 154.663 449.479 155.23 449.018 155.709C448.557 156.189 448.004 156.571 447.392 156.832C446.78 157.093 446.122 157.228 445.457 157.23C446.574 157.467 447.575 158.083 448.291 158.973C449.007 159.862 449.395 160.972 449.388 162.114C449.359 163.438 448.809 164.698 447.858 165.62C446.907 166.542 445.631 167.052 444.306 167.039Z" fill="white"/>
<path d="M408.141 147.152V147.336L408.111 186.468V186.502L391.765 186.475L391.796 147.124L408.141 147.152Z" fill="#367CFF"/>
<path opacity="0.65" d="M399.953 157.458C401.818 157.458 403.33 155.946 403.33 154.081C403.33 152.216 401.818 150.704 399.953 150.704C398.088 150.704 396.576 152.216 396.576 154.081C396.576 155.946 398.088 157.458 399.953 157.458Z" fill="white"/>
<path d="M563.693 140.858C586.811 140.858 605.551 122.118 605.551 99C605.551 75.8824 586.811 57.142 563.693 57.142C540.575 57.142 521.835 75.8824 521.835 99C521.835 122.118 540.575 140.858 563.693 140.858Z" fill="#367CFF"/>
<path d="M585.107 98.928C585.126 101.752 584.587 104.553 583.519 107.168C582.452 109.783 580.877 112.161 578.887 114.165C576.896 116.169 574.529 117.76 571.921 118.845C569.314 119.931 566.517 120.489 563.693 120.489C560.868 120.489 558.071 119.931 555.464 118.845C552.856 117.76 550.489 116.169 548.498 114.165C546.508 112.161 544.933 109.783 543.866 107.168C542.798 104.553 542.259 101.752 542.278 98.928H585.107Z" fill="white"/>
<path d="M548.577 85.848C550.591 85.848 552.224 84.2151 552.224 82.201C552.224 80.1868 550.591 78.554 548.577 78.554C546.563 78.554 544.93 80.1868 544.93 82.201C544.93 84.2151 546.563 85.848 548.577 85.848Z" fill="#0C0C0C"/>
<path d="M578.808 85.848C580.822 85.848 582.455 84.2151 582.455 82.201C582.455 80.1868 580.822 78.554 578.808 78.554C576.794 78.554 575.161 80.1868 575.161 82.201C575.161 84.2151 576.794 85.848 578.808 85.848Z" fill="#0C0C0C"/>
<path d="M563.689 239.321C571.886 239.321 578.531 232.676 578.531 224.479C578.531 216.282 571.886 209.637 563.689 209.637C555.492 209.637 548.847 216.282 548.847 224.479C548.847 232.676 555.492 239.321 563.689 239.321Z" fill="white"/>
<path d="M591.848 259.318C588.533 263.635 584.27 267.131 579.388 269.537C574.506 271.944 569.136 273.195 563.693 273.195C558.25 273.195 552.88 271.944 547.998 269.537C543.116 267.131 538.853 263.635 535.538 259.318C539.038 255.287 543.363 252.055 548.221 249.84C553.078 247.625 558.354 246.478 563.693 246.478C569.032 246.478 574.308 247.625 579.165 249.84C584.023 252.055 588.348 255.287 591.848 259.318Z" fill="white"/>
<path d="M563.689 273.7C556.572 273.7 549.614 271.59 543.696 267.636C537.778 263.682 533.165 258.062 530.442 251.486C527.718 244.91 527.005 237.675 528.393 230.694C529.782 223.713 533.209 217.301 538.242 212.268C543.274 207.236 549.686 203.808 556.667 202.42C563.648 201.031 570.883 201.744 577.459 204.467C584.035 207.191 589.655 211.803 593.609 217.721C597.563 223.639 599.674 230.597 599.674 237.714C599.663 247.255 595.869 256.402 589.123 263.148C582.376 269.894 573.23 273.689 563.689 273.7ZM563.689 202.728C556.769 202.728 550.005 204.78 544.252 208.624C538.498 212.468 534.014 217.932 531.365 224.325C528.717 230.718 528.024 237.752 529.374 244.539C530.724 251.326 534.056 257.56 538.949 262.453C543.842 267.346 550.076 270.678 556.862 272.028C563.649 273.378 570.683 272.685 577.076 270.037C583.469 267.389 588.933 262.905 592.778 257.151C596.622 251.398 598.674 244.634 598.674 237.714C598.664 228.439 594.974 219.546 588.416 212.987C581.857 206.428 572.965 202.739 563.689 202.728Z" fill="#292A2E"/>
<path d="M646.335 505.274C646.193 505.274 646.055 505.234 645.935 505.159C645.815 505.085 645.718 504.977 645.656 504.85L625.748 464.018C625.663 463.839 625.653 463.633 625.719 463.446C625.785 463.258 625.922 463.105 626.1 463.018C626.278 462.931 626.484 462.917 626.672 462.981C626.86 463.044 627.016 463.179 627.105 463.356L647.013 504.188C647.057 504.277 647.082 504.374 647.088 504.473C647.094 504.572 647.081 504.671 647.048 504.765C647.016 504.859 646.965 504.946 646.9 505.02C646.834 505.094 646.754 505.155 646.665 505.198C646.562 505.248 646.449 505.274 646.335 505.274Z" fill="#292A2E"/>
<path d="M679.987 502.9C679.82 502.9 679.658 502.845 679.527 502.743C679.395 502.641 679.3 502.498 679.258 502.337L656.221 414.39C656.192 414.293 656.183 414.191 656.194 414.09C656.206 413.99 656.237 413.892 656.287 413.804C656.336 413.716 656.403 413.639 656.483 413.577C656.564 413.515 656.655 413.47 656.753 413.444C656.851 413.418 656.954 413.413 657.054 413.428C657.154 413.442 657.25 413.477 657.337 413.529C657.423 413.582 657.498 413.652 657.558 413.734C657.617 413.816 657.659 413.909 657.681 414.008L680.718 501.958C680.748 502.07 680.751 502.187 680.728 502.3C680.705 502.414 680.657 502.52 680.586 502.612C680.515 502.703 680.424 502.777 680.321 502.828C680.217 502.878 680.103 502.905 679.987 502.904V502.9Z" fill="#292A2E"/>
<path d="M723.932 506.8C723.831 506.8 723.731 506.78 723.638 506.74C723.547 506.701 723.464 506.645 723.394 506.574C723.325 506.504 723.27 506.42 723.233 506.328C723.196 506.236 723.177 506.138 723.178 506.038C723.179 505.939 723.199 505.841 723.238 505.75L747.052 449.666C747.135 449.489 747.283 449.35 747.466 449.28C747.649 449.21 747.851 449.213 748.032 449.29C748.212 449.366 748.355 449.51 748.432 449.69C748.508 449.87 748.511 450.073 748.441 450.256L724.627 506.34C724.569 506.476 724.472 506.593 724.349 506.675C724.225 506.756 724.08 506.8 723.932 506.8Z" fill="#292A2E"/>
<path d="M680.842 519.792C680.78 519.792 680.718 519.785 680.658 519.769C680.562 519.745 680.471 519.702 680.392 519.643C680.312 519.584 680.245 519.51 680.194 519.425C680.143 519.34 680.109 519.246 680.095 519.148C680.08 519.05 680.085 518.95 680.109 518.854L707.78 408.154C707.829 407.96 707.953 407.793 708.124 407.69C708.296 407.587 708.502 407.556 708.696 407.605C708.89 407.654 709.057 407.778 709.16 407.949C709.263 408.121 709.294 408.327 709.245 408.521L681.573 519.221C681.532 519.384 681.438 519.529 681.306 519.632C681.173 519.735 681.01 519.792 680.842 519.792Z" fill="#292A2E"/>
<path d="M728.786 447.733C742.338 441.287 747.237 423.267 739.729 407.484C732.221 391.701 715.149 384.132 701.598 390.578C688.047 397.024 683.148 415.044 690.656 430.827C698.164 446.61 715.235 454.179 728.786 447.733Z" fill="#0CBC8B"/>
<path opacity="0.4" d="M728.786 447.733C742.338 441.287 747.237 423.267 739.729 407.484C732.221 391.701 715.149 384.132 701.598 390.578C688.047 397.024 683.148 415.044 690.656 430.827C698.164 446.61 715.235 454.179 728.786 447.733Z" fill="white"/>
<path d="M759.072 478.93C767.221 475.648 770.651 465.106 766.735 455.382C762.819 445.659 753.039 440.437 744.891 443.718C736.743 447 733.312 457.543 737.228 467.266C741.144 476.99 750.924 482.212 759.072 478.93Z" fill="#0CBC8B"/>
<path d="M671.148 434.404C675.649 419.549 669.486 404.532 657.382 400.865C645.278 397.197 631.817 406.266 627.315 421.122C622.813 435.977 628.976 450.993 641.08 454.661C653.184 458.329 666.646 449.26 671.148 434.404Z" fill="#0CBC8B"/>
<path d="M635.516 471.243C637.109 461.734 632.923 453.108 626.166 451.976C619.41 450.844 612.642 457.636 611.049 467.145C609.456 476.655 613.642 485.281 620.399 486.412C627.155 487.544 633.924 480.752 635.516 471.243Z" fill="#0CBC8B"/>
<path d="M746.143 491.538H628.599V520.83H746.143V491.538Z" fill="#292A2E"/>
<path opacity="0.3" d="M746.143 491.538H628.599V520.83H746.143V491.538Z" fill="white"/>
<path d="M717.657 498.272C727.647 494.246 731.869 481.362 727.086 469.495C722.303 457.628 710.328 451.272 700.338 455.298C690.348 459.325 686.126 472.209 690.909 484.075C695.691 495.942 707.667 502.298 717.657 498.272Z" fill="#0CBC8B"/>
<path d="M664.342 495.433C674.288 495.433 682.35 487.371 682.35 477.425C682.35 467.479 674.288 459.417 664.342 459.417C654.396 459.417 646.334 467.479 646.334 477.425C646.334 487.371 654.396 495.433 664.342 495.433Z" fill="#0CBC8B"/>
<path opacity="0.68" d="M759.072 478.93C767.221 475.648 770.651 465.106 766.735 455.382C762.819 445.659 753.039 440.437 744.891 443.718C736.743 447 733.312 457.543 737.228 467.266C741.144 476.99 750.924 482.212 759.072 478.93Z" fill="white"/>
<path opacity="0.68" d="M671.148 434.404C675.649 419.549 669.486 404.532 657.382 400.865C645.278 397.197 631.817 406.266 627.315 421.122C622.813 435.977 628.976 450.993 641.08 454.661C653.184 458.329 666.646 449.26 671.148 434.404Z" fill="white"/>
<path opacity="0.68" d="M635.516 471.243C637.109 461.734 632.923 453.108 626.166 451.976C619.41 450.844 612.642 457.636 611.049 467.145C609.456 476.655 613.642 485.281 620.399 486.412C627.155 487.544 633.924 480.752 635.516 471.243Z" fill="white"/>
<path opacity="0.68" d="M717.657 498.272C727.647 494.246 731.869 481.362 727.086 469.495C722.303 457.628 710.328 451.272 700.338 455.298C690.348 459.325 686.126 472.209 690.909 484.075C695.691 495.942 707.667 502.298 717.657 498.272Z" fill="white"/>
<path opacity="0.4" d="M664.342 495.433C674.288 495.433 682.35 487.371 682.35 477.425C682.35 467.479 674.288 459.417 664.342 459.417C654.396 459.417 646.334 467.479 646.334 477.425C646.334 487.371 654.396 495.433 664.342 495.433Z" fill="white"/>
<path d="M722.184 462.264C708.516 466.083 701.323 454.913 701.323 454.913L701.331 454.898C708.622 452.724 716.705 455.781 722.184 462.264Z" fill="#292A2E"/>
<path d="M635.848 466.838C629.12 464.262 623.545 459.35 620.142 453C621.986 452.015 624.1 451.658 626.165 451.981C631.856 452.928 635.72 459.2 635.848 466.838Z" fill="#292A2E"/>
<path d="M667.556 459.706C662.314 464.428 655.764 467.451 648.77 468.378C650.632 465.179 653.434 462.631 656.795 461.079C660.156 459.528 663.913 459.048 667.556 459.706Z" fill="#292A2E"/>
<path d="M767.616 522.424H1.487C1.22178 522.424 0.967429 522.319 0.779893 522.131C0.592356 521.944 0.487 521.689 0.487 521.424C0.487 521.159 0.592356 520.905 0.779893 520.717C0.967429 520.529 1.22178 520.424 1.487 520.424H767.616C767.881 520.424 768.136 520.529 768.323 520.717C768.511 520.905 768.616 521.159 768.616 521.424C768.616 521.689 768.511 521.944 768.323 522.131C768.136 522.319 767.881 522.424 767.616 522.424Z" fill="#292A2E"/>
</g>
<defs>
<clipPath id="clip0_1_3">
<rect width="779.067" height="522.424" fill="white"/>
</clipPath>
</defs>
</svg>
