<svg width="768" height="622" viewBox="0 0 768 622" fill="none" xmlns="http://www.w3.org/2000/svg">
<g clip-path="url(#clip0_1_590)">
<path d="M244.182 23.707C162.557 57.673 115.714 140.245 115.714 255.118C115.714 369.991 91.805 354.829 61.038 412.987C39.069 454.512 51.065 526.842 79.3 560.564C118.415 607.275 185.685 626.435 261.364 619.922C384.277 609.345 392.564 498.454 575.125 543.912C662.04 565.555 740.147 490.865 763.725 384.312C777.87 320.381 748.269 233.59 687.475 199.112C604.615 152.123 607.159 192.312 515.385 90.681C416.748 -18.551 332.04 -12.853 244.182 23.707Z" fill="#F3F5FD"/>
<path d="M680.376 249.698C703.751 249.698 722.701 230.748 722.701 207.373C722.701 183.998 703.751 165.048 680.376 165.048C657.001 165.048 638.051 183.998 638.051 207.373C638.051 230.748 657.001 249.698 680.376 249.698Z" fill="#0CBC8B"/>
<g opacity="0.29">
<path d="M680.376 234.81C695.529 234.81 707.813 222.526 707.813 207.373C707.813 192.22 695.529 179.936 680.376 179.936C665.223 179.936 652.939 192.22 652.939 207.373C652.939 222.526 665.223 234.81 680.376 234.81Z" fill="white"/>
</g>
<path d="M671.4 217.173L673.96 213.204C675.536 214.608 677.542 215.436 679.65 215.552C681.912 215.552 682.907 214.613 682.907 212.797C682.907 208.691 672.372 208.765 672.372 201.563C672.372 196.934 675.579 193.985 680.636 193.985C682.073 193.964 683.496 194.256 684.809 194.84C686.121 195.425 687.291 196.288 688.236 197.37L685.301 200.733C684.747 200.124 684.078 199.633 683.331 199.287C682.585 198.941 681.776 198.748 680.954 198.719C679.034 198.719 677.992 199.493 677.992 201.286C677.992 205.092 688.527 204.76 688.527 212.386C688.527 216.969 685.494 220.286 679.653 220.286C676.628 220.219 673.716 219.121 671.4 217.173ZM678.419 190.073H682.313V195.82H678.419V190.073ZM678.419 217.889H682.313V224.2H678.419V217.889Z" fill="white"/>
<path d="M609.665 325.151C624.818 325.151 637.102 312.867 637.102 297.714C637.102 282.561 624.818 270.277 609.665 270.277C594.512 270.277 582.228 282.561 582.228 297.714C582.228 312.867 594.512 325.151 609.665 325.151Z" fill="#0CBC8B"/>
<g opacity="0.29">
<path d="M609.665 315.5C619.488 315.5 627.451 307.537 627.451 297.714C627.451 287.891 619.488 279.928 609.665 279.928C599.842 279.928 591.879 287.891 591.879 297.714C591.879 307.537 599.842 315.5 609.665 315.5Z" fill="white"/>
</g>
<path d="M603.844 304.067L605.503 301.494C606.525 302.404 607.825 302.941 609.192 303.016C610.658 303.016 611.303 302.408 611.303 301.23C611.303 298.568 604.474 298.616 604.474 293.948C604.474 290.948 606.553 289.035 609.831 289.035C610.762 289.021 611.685 289.211 612.535 289.59C613.386 289.969 614.144 290.529 614.756 291.23L612.856 293.41C612.497 293.015 612.063 292.697 611.579 292.472C611.095 292.248 610.571 292.123 610.038 292.104C608.793 292.104 608.118 292.604 608.118 293.768C608.118 296.235 614.947 296.02 614.947 300.968C614.947 303.939 612.981 306.088 609.195 306.088C607.233 306.044 605.345 305.331 603.844 304.067ZM608.394 286.5H610.918V290.226H608.394V286.5ZM608.394 304.532H610.918V308.62H608.394V304.532Z" fill="white"/>
<path d="M322.96 77.4834L0.000488281 180.354L128.151 582.678L451.11 479.807L322.96 77.4834Z" fill="#C1D8ED"/>
<g opacity="0.61">
<path d="M109.389 439.644C109.09 439.645 108.799 439.551 108.558 439.374C108.317 439.198 108.139 438.95 108.049 438.665L70.1 319.52C70.0439 319.344 70.023 319.159 70.0385 318.975C70.054 318.791 70.1056 318.611 70.1904 318.447C70.2752 318.283 70.3915 318.137 70.5326 318.018C70.6738 317.899 70.837 317.809 71.013 317.753L344.5 230.642C344.855 230.529 345.241 230.562 345.572 230.733C345.904 230.904 346.154 231.2 346.267 231.555L384.214 350.7C384.271 350.876 384.292 351.061 384.277 351.245C384.262 351.43 384.21 351.609 384.125 351.773C384.041 351.937 383.924 352.083 383.782 352.202C383.641 352.321 383.477 352.411 383.301 352.466L109.816 439.578C109.678 439.622 109.534 439.644 109.389 439.644ZM73.205 320.006L110.3 436.47L381.106 350.214L344.006 233.749L73.205 320.006Z" fill="white"/>
</g>
<g opacity="0.61">
<path d="M117.679 465.671C117.343 465.671 117.018 465.551 116.763 465.333C116.508 465.114 116.339 464.812 116.288 464.48C116.236 464.148 116.305 463.809 116.482 463.523C116.659 463.238 116.932 463.025 117.252 462.923L390.738 375.812C391.093 375.699 391.479 375.732 391.81 375.903C392.142 376.074 392.391 376.37 392.504 376.725C392.618 377.081 392.585 377.467 392.414 377.798C392.242 378.129 391.946 378.379 391.591 378.492L118.106 465.6C117.968 465.646 117.824 465.67 117.679 465.671Z" fill="white"/>
</g>
<g opacity="0.61">
<path d="M124.625 487.48C124.29 487.479 123.966 487.359 123.711 487.14C123.457 486.922 123.289 486.62 123.238 486.289C123.186 485.957 123.255 485.619 123.431 485.333C123.607 485.048 123.88 484.835 124.199 484.733L397.684 397.622C397.861 397.562 398.048 397.538 398.234 397.551C398.421 397.564 398.603 397.614 398.769 397.699C398.936 397.783 399.084 397.9 399.206 398.042C399.327 398.184 399.418 398.349 399.475 398.527C399.532 398.705 399.552 398.893 399.536 399.079C399.519 399.265 399.465 399.446 399.378 399.611C399.291 399.776 399.171 399.922 399.027 400.041C398.883 400.159 398.716 400.248 398.537 400.301L125.052 487.413C124.914 487.458 124.77 487.48 124.625 487.48Z" fill="white"/>
</g>
<g opacity="0.61">
<path d="M131.572 509.289C131.237 509.289 130.912 509.168 130.658 508.95C130.403 508.732 130.235 508.43 130.184 508.098C130.132 507.767 130.201 507.428 130.377 507.143C130.553 506.857 130.826 506.644 131.145 506.542L404.63 419.43C404.985 419.317 405.371 419.349 405.703 419.521C406.034 419.692 406.284 419.988 406.397 420.343C406.51 420.698 406.478 421.084 406.306 421.416C406.135 421.747 405.839 421.997 405.484 422.11L132 509.221C131.862 509.266 131.717 509.289 131.572 509.289Z" fill="white"/>
</g>
<g opacity="0.61">
<path d="M138.519 531.1C138.184 531.099 137.859 530.979 137.605 530.761C137.35 530.543 137.182 530.24 137.131 529.909C137.079 529.578 137.148 529.239 137.324 528.954C137.5 528.668 137.773 528.455 138.092 528.353L411.578 441.24C411.754 441.184 411.939 441.163 412.123 441.179C412.307 441.194 412.486 441.246 412.65 441.331C412.814 441.416 412.96 441.532 413.079 441.673C413.198 441.814 413.289 441.978 413.345 442.153C413.401 442.329 413.421 442.515 413.406 442.699C413.39 442.883 413.338 443.062 413.254 443.226C413.169 443.39 413.052 443.536 412.911 443.655C412.77 443.774 412.607 443.864 412.431 443.92L138.946 531.031C138.808 531.076 138.664 531.099 138.519 531.1Z" fill="white"/>
</g>
<g opacity="0.61">
<path d="M64.181 297.714C63.8456 297.714 63.5215 297.593 63.2669 297.375C63.0124 297.157 62.8442 296.854 62.7927 296.523C62.7412 296.192 62.8097 295.853 62.986 295.568C63.1622 295.282 63.4346 295.069 63.754 294.967L337.24 207.856C337.595 207.743 337.981 207.776 338.312 207.947C338.644 208.118 338.893 208.414 339.007 208.77C339.12 209.125 339.087 209.511 338.916 209.842C338.744 210.173 338.448 210.423 338.093 210.536L64.608 297.648C64.4699 297.692 64.3259 297.714 64.181 297.714Z" fill="white"/>
</g>
<g opacity="0.61">
<path d="M145.639 244.134C145.304 244.134 144.979 244.013 144.725 243.795C144.47 243.577 144.302 243.274 144.251 242.943C144.199 242.612 144.268 242.273 144.444 241.988C144.62 241.702 144.893 241.489 145.212 241.387L329.248 182.767C329.602 182.66 329.984 182.696 330.311 182.868C330.638 183.04 330.885 183.334 330.997 183.686C331.109 184.039 331.078 184.421 330.911 184.751C330.743 185.08 330.453 185.331 330.102 185.448L146.066 244.068C145.928 244.111 145.784 244.134 145.639 244.134Z" fill="white"/>
</g>
<g opacity="0.61">
<path d="M311.146 125.939L127.117 184.578L129.849 193.153L313.879 134.514L311.146 125.939Z" fill="white"/>
</g>
<g opacity="0.61">
<path d="M137.06 217.2C136.725 217.2 136.4 217.079 136.146 216.861C135.891 216.643 135.723 216.34 135.672 216.009C135.62 215.678 135.689 215.339 135.865 215.054C136.041 214.768 136.314 214.555 136.633 214.453L320.668 155.834C320.844 155.778 321.029 155.757 321.213 155.773C321.397 155.788 321.577 155.84 321.741 155.925C321.905 156.009 322.05 156.126 322.17 156.267C322.289 156.408 322.379 156.571 322.435 156.747C322.491 156.923 322.512 157.108 322.496 157.292C322.481 157.476 322.429 157.656 322.344 157.82C322.26 157.984 322.143 158.129 322.002 158.249C321.861 158.368 321.698 158.458 321.522 158.514L137.487 217.131C137.349 217.176 137.205 217.199 137.06 217.2Z" fill="white"/>
</g>
<path d="M165.482 384.246C165.326 384.296 165.162 384.318 164.998 384.311L113.167 382.134C112.983 382.126 112.802 382.082 112.634 382.005C112.467 381.927 112.317 381.817 112.192 381.681C111.94 381.407 111.807 381.044 111.822 380.672C111.838 380.299 112.001 379.948 112.275 379.696C112.55 379.444 112.913 379.311 113.285 379.327L164.232 381.467L196.14 321.6C196.302 321.295 196.571 321.061 196.895 320.942C197.219 320.823 197.576 320.827 197.897 320.954L241.364 338.141L269.978 308.1C270.146 307.924 270.357 307.795 270.589 307.725C270.822 307.655 271.069 307.646 271.306 307.7L320.864 318.948L336.007 277.209C336.134 276.859 336.395 276.573 336.732 276.416C337.07 276.258 337.456 276.24 337.806 276.367C338.157 276.495 338.442 276.755 338.6 277.093C338.758 277.43 338.775 277.817 338.648 278.167L323.083 321.067C322.967 321.389 322.737 321.658 322.436 321.823C322.135 321.987 321.785 322.035 321.451 321.958L271.461 310.613L242.745 340.765C242.552 340.967 242.303 341.108 242.029 341.168C241.756 341.228 241.471 341.205 241.211 341.102L198.029 324.028L166.3 383.568C166.126 383.892 165.833 384.136 165.482 384.246Z" fill="#262626"/>
<path d="M83.077 269.039C103.916 269.039 120.81 252.145 120.81 231.306C120.81 210.467 103.916 193.573 83.077 193.573C62.2376 193.573 45.344 210.467 45.344 231.306C45.344 252.145 62.2376 269.039 83.077 269.039Z" fill="#F3F5FD"/>
<path d="M101.37 198.307L83.083 231.307L71.631 195.356C76.3534 193.844 81.3282 193.281 86.269 193.699C91.2098 194.118 96.0191 195.509 100.42 197.794C100.738 197.958 101.058 198.131 101.37 198.307Z" fill="#0CBC8B"/>
<path d="M119.036 219.857C121.1 226.295 121.385 233.171 119.86 239.757L83.083 231.312L100.42 197.797C100.738 197.961 101.058 198.134 101.37 198.31C109.801 202.964 116.125 210.677 119.036 219.857Z" fill="#262626"/>
<path d="M121.173 407.18C120.931 407.179 120.693 407.12 120.479 407.007C120.264 406.895 120.081 406.732 119.943 406.532C119.806 406.333 119.718 406.104 119.689 405.864C119.659 405.623 119.688 405.38 119.773 405.153L147.445 331.485C147.515 331.298 147.622 331.127 147.759 330.982C147.895 330.837 148.06 330.721 148.242 330.64C148.425 330.559 148.622 330.516 148.821 330.512C149.02 330.508 149.219 330.544 149.404 330.618L208.195 354.03L233.468 321.486C233.644 321.259 233.882 321.088 234.153 320.992C234.424 320.896 234.716 320.88 234.996 320.946L286.948 333.135L331.077 261.279C331.179 261.108 331.313 260.959 331.473 260.841C331.632 260.722 331.814 260.636 332.007 260.589C332.2 260.541 332.401 260.532 332.597 260.563C332.794 260.594 332.982 260.663 333.152 260.767C333.321 260.871 333.468 261.008 333.584 261.169C333.7 261.331 333.783 261.514 333.828 261.707C333.873 261.901 333.879 262.102 333.845 262.298C333.812 262.494 333.74 262.681 333.633 262.849L288.938 335.628C288.773 335.897 288.528 336.106 288.237 336.227C287.946 336.349 287.624 336.375 287.317 336.303L235.248 324.087L209.869 356.76C209.67 357.017 209.392 357.202 209.078 357.288C208.764 357.373 208.431 357.354 208.129 357.234L149.711 333.971L122.578 406.208C122.471 406.494 122.278 406.74 122.027 406.914C121.776 407.087 121.478 407.18 121.173 407.18Z" fill="white"/>
<path d="M568.528 70.011H216.615V520.861H568.528V70.011Z" fill="#DEE8F5"/>
<path d="M309.738 98.689H244.341V157.234H309.738V98.689Z" fill="white"/>
<path d="M540.807 242.764H482.351V383.124H540.807V242.764Z" fill="#8DDBE0"/>
<path d="M482.352 364.167H244.347V382.062H482.352V364.167Z" fill="#C1D8ED"/>
<path d="M540.807 234.314H244.335V251.215H540.807V234.314Z" fill="white"/>
<path d="M542.213 384.531H242.929V234.314H245.741V381.719H539.401V234.314H542.213V384.531Z" fill="white"/>
<path d="M300.214 242.764H297.401V383.125H300.214V242.764Z" fill="white"/>
<path d="M540.807 267.703H244.347V270.516H540.807V267.703Z" fill="white"/>
<path d="M540.807 286.715H244.347V289.528H540.807V286.715Z" fill="white"/>
<path d="M540.807 305.726H244.347V308.539H540.807V305.726Z" fill="white"/>
<path d="M540.807 324.738H244.347V327.551H540.807V324.738Z" fill="white"/>
<path d="M540.807 343.749H244.347V346.562H540.807V343.749Z" fill="white"/>
<path d="M540.807 362.761H244.347V365.574H540.807V362.761Z" fill="white"/>
<path d="M423.727 242.764H420.914V383.125H423.727V242.764Z" fill="white"/>
<path d="M483.757 242.764H480.944V383.125H483.757V242.764Z" fill="white"/>
<path d="M540.807 460.873H450.955V492.994H540.807V460.873Z" fill="white"/>
<path d="M540.807 410.587H244.335V413.4H540.807V410.587Z" fill="white"/>
<path d="M540.807 435.027H244.335V437.84H540.807V435.027Z" fill="white"/>
<path d="M540.807 131.388H336.086V134.201H540.807V131.388Z" fill="white"/>
<path d="M440.781 155.828H336.086V158.641H440.781V155.828Z" fill="white"/>
<path d="M540.807 182.933H244.335V185.746H540.807V182.933Z" fill="white"/>
<path d="M540.807 207.373H244.335V210.186H540.807V207.373Z" fill="white"/>
<path d="M540.807 99.689H336.086V111.211H540.807V99.689Z" fill="white"/>
<path d="M713.48 390.997L573.42 348.366C566.43 346.239 559.039 350.18 556.912 357.17L506.183 523.834C504.056 530.824 507.997 538.215 514.987 540.342L655.047 582.973C662.037 585.101 669.428 581.159 671.555 574.17L722.284 407.505C724.411 400.515 720.47 393.125 713.48 390.997Z" fill="#262626"/>
<path d="M701.578 402.111L577.111 364.227C573.06 362.993 568.776 365.278 567.543 369.329L561.845 388.048C560.612 392.099 562.897 396.383 566.948 397.616L691.415 435.501C695.467 436.734 699.751 434.449 700.984 430.398L706.681 411.68C707.914 407.628 705.63 403.344 701.578 402.111Z" fill="white"/>
<path d="M589.389 417.774L561.405 409.256C558.365 408.331 555.149 410.046 554.224 413.086L547.7 434.518C546.775 437.559 548.49 440.774 551.53 441.7L579.514 450.217C582.554 451.143 585.77 449.428 586.695 446.387L593.219 424.955C594.144 421.915 592.429 418.699 589.389 417.774Z" fill="#FD5D76"/>
<path opacity="0.16" d="M639.461 433.014L611.478 424.496C608.437 423.571 605.222 425.285 604.296 428.326L597.773 449.758C596.847 452.799 598.562 456.014 601.603 456.94L629.586 465.457C632.627 466.383 635.842 464.668 636.768 461.627L643.291 440.195C644.216 437.154 642.502 433.939 639.461 433.014Z" fill="#0F1011"/>
<path opacity="0.16" d="M689.532 448.255L661.549 439.737C658.508 438.812 655.293 440.526 654.368 443.567L647.844 464.999C646.919 468.04 648.633 471.255 651.674 472.181L679.657 480.698C682.698 481.624 685.913 479.909 686.839 476.868L693.362 455.436C694.288 452.395 692.573 449.18 689.532 448.255Z" fill="#0F1011"/>
<path opacity="0.16" d="M576.153 461.259L548.17 452.742C545.129 451.816 541.914 453.531 540.988 456.572L534.465 478.004C533.539 481.045 535.254 484.26 538.295 485.185L566.278 493.703C569.319 494.628 572.534 492.914 573.459 489.873L579.983 468.441C580.908 465.4 579.194 462.185 576.153 461.259Z" fill="#0F1011"/>
<path opacity="0.16" d="M626.224 476.5L598.241 467.983C595.2 467.057 591.985 468.772 591.059 471.813L584.536 493.245C583.61 496.285 585.325 499.501 588.366 500.426L616.349 508.944C619.39 509.869 622.605 508.154 623.531 505.114L630.054 483.682C630.98 480.641 629.265 477.426 626.224 476.5Z" fill="#0F1011"/>
<path opacity="0.16" d="M562.916 504.744L534.933 496.226C531.892 495.301 528.677 497.016 527.751 500.056L521.228 521.488C520.303 524.529 522.017 527.744 525.058 528.67L553.041 537.187C556.082 538.113 559.297 536.398 560.223 533.357L566.746 511.925C567.672 508.885 565.957 505.669 562.916 504.744Z" fill="#0F1011"/>
<path opacity="0.16" d="M612.989 519.985L585.005 511.467C581.964 510.542 578.749 512.256 577.824 515.297L571.3 536.729C570.375 539.77 572.089 542.985 575.13 543.911L603.114 552.428C606.154 553.354 609.369 551.639 610.295 548.598L616.818 527.166C617.744 524.125 616.029 520.91 612.989 519.985Z" fill="#0F1011"/>
<path d="M648.312 483.224C646.852 482.78 645.275 482.934 643.928 483.652C642.581 484.37 641.575 485.594 641.13 487.054L629.57 525.034L627.138 533.023L621.371 551.972C621.151 552.695 621.075 553.454 621.149 554.206C621.222 554.958 621.443 555.689 621.798 556.356C622.154 557.022 622.637 557.613 623.221 558.093C623.805 558.573 624.477 558.933 625.2 559.153L653.184 567.671C653.907 567.891 654.666 567.967 655.418 567.893C656.171 567.82 656.901 567.599 657.568 567.244C658.235 566.888 658.825 566.404 659.305 565.82C659.785 565.237 660.145 564.564 660.365 563.841L666.133 544.892L668.565 536.903L680.125 498.923C680.569 497.463 680.415 495.886 679.697 494.539C678.979 493.193 677.755 492.186 676.295 491.742L648.312 483.224Z" fill="#0CBC8B"/>
</g>
<defs>
<clipPath id="clip0_1_590">
<rect width="767.211" height="621.158" fill="white"/>
</clipPath>
</defs>
</svg>
